SplineFontDB: 3.0
FontName: LiberationSans-BoldItalic
FullName: Liberation Sans Bold Italic
FamilyName: Liberation Sans
Weight: Bold
Copyright: Copyright © 2007 Red Hat, Inc. All rights reserved. LIBERATION is a trademark of Red Hat, Inc.
Version: 1.07
ItalicAngle: -12
UnderlinePosition: -110
UnderlineWidth: 215
Ascent: 1638
Descent: 410
LayerCount: 2
Layer: 0 1 "Back"  1
Layer: 1 1 "Fore"  0
NeedsXUIDChange: 1
XUID: [1021 131 222397055 951244]
FSType: 0
OS2Version: 3
OS2_WeightWidthSlopeOnly: 0
OS2_UseTypoMetrics: 1
CreationTime: 1123372800
ModificationTime: 1306519347
PfmFamily: 17
TTFWeight: 700
TTFWidth: 5
LineGap: 67
VLineGap: 0
Panose: 2 11 7 4 2 2 2 9 2 4
OS2TypoAscent: -147
OS2TypoAOffset: 1
OS2TypoDescent: -21
OS2TypoDOffset: 1
OS2TypoLinegap: 307
OS2WinAscent: -255
OS2WinAOffset: 1
OS2WinDescent: -187
OS2WinDOffset: 1
HheadAscent: -255
HheadAOffset: 1
HheadDescent: 187
HheadDOffset: 1
OS2SubXSize: 1434
OS2SubYSize: 1331
OS2SubXOff: 30
OS2SubYOff: 283
OS2SupXSize: 1434
OS2SupYSize: 1331
OS2SupXOff: 90
OS2SupYOff: 977
OS2StrikeYSize: 102
OS2StrikeYPos: 530
OS2FamilyClass: 2053
OS2Vendor: '1ASC'
OS2CodePages: 6000009f.dfd70000
OS2UnicodeRanges: a00002af.500078fb.00000000.00000000
Lookup: 258 0 0 "'kern' Horizontal Kerning lookup 0"  {"'kern' Horizontal Kerning lookup 0 subtable"  } ['kern' ('DFLT' <'dflt' > 'cyrl' <'dflt' > 'grek' <'dflt' > 'latn' <'dflt' > ) ]
DEI: 91125
TtTable: prep
PUSHW_8
 80
 263
 1
 47
 263
 1
 175
 260
NPUSHB
 50
 1
 208
 253
 1
 191
 253
 1
 16
 253
 1
 111
 251
 1
 64
 251
 1
 128
 245
 1
 0
 237
 1
 64
 235
 1
 230
 228
 32
 31
 229
 228
 61
 31
 226
 224
 21
 31
 225
 224
 61
 31
 223
 61
 221
 85
 222
 61
 3
 85
 221
PUSHW_1
 279
PUSHB_3
 60
 31
 47
NPUSHW
 11
 279
 1
 16
 279
 32
 279
 64
 279
 3
 -64
 279
NPUSHB
 31
 25
 28
 70
 220
 3
 255
 31
 200
 195
 255
 31
 48
 195
 1
 190
 71
 18
 31
 186
 79
 100
 31
 185
 96
 255
 31
 184
 180
 22
 31
 16
PUSHW_1
 283
NPUSHB
 27
 1
 32
 183
 1
 16
 181
 32
 181
 64
 181
 3
 96
 180

StartChar: .notdef
Encoding: 1114112 -1 0
Width: 748
Flags: W
LayerCount: 2
Fore
SplineSet
68 0 m 1,0,-1
 68 1365 l 1,1,-1
 612 1365 l 1,2,-1
 612 0 l 1,3,-1
 68 0 l 1,0,-1
136 68 m 1,4,-1
 544 68 l 1,5,-1
 544 1297 l 1,6,-1
 136 1297 l 1,7,-1
 136 68 l 1,4,-1
EndSplineSet
EndChar

StartChar: exclam
Encoding: 33 33 4
Width: 682
Flags: W
LayerCount: 2
Fore
SplineSet
423 426 m 1,0,-1
 193 426 l 1,1,-1
 353 1409 l 1,2,-1
 647 1409 l 1,3,-1
 423 426 l 1,0,-1
79 0 m 1,4,-1
 131 270 l 1,5,-1
 419 270 l 1,6,-1
 367 0 l 1,7,-1
 79 0 l 1,4,-1
EndSplineSet
EndChar

StartChar: quotedbl
Encoding: 34 34 5
Width: 971
Flags: W
LayerCount: 2
Fore
SplineSet
864 898 m 1,0,-1
 645 898 l 1,1,-1
 717 1409 l 1,2,-1
 992 1409 l 1,3,-1
 864 898 l 1,0,-1
438 898 m 1,4,-1
 219 898 l 1,5,-1
 291 1409 l 1,6,-1
 564 1409 l 1,7,-1
 438 898 l 1,4,-1
EndSplineSet
EndChar

StartChar: numbersign
Encoding: 35 35 6
Width: 1139
Flags: W
LayerCount: 2
Fore
SplineSet
939 862 m 1,0,-1
 870 530 l 1,1,-1
 1085 530 l 1,2,-1
 1085 381 l 1,3,-1
 839 381 l 1,4,-1
 757 0 l 1,5,-1
 601 0 l 1,6,-1
 681 381 l 1,7,-1
 374 381 l 1,8,-1
 294 0 l 1,9,-1
 141 0 l 1,10,-1
 220 381 l 1,11,-1
 65 381 l 1,12,-1
 65 530 l 1,13,-1
 253 530 l 1,14,-1
 323 862 l 1,15,-1
 116 862 l 1,16,-1
 116 1010 l 1,17,-1
 354 1010 l 1,18,-1
 438 1395 l 1,19,-1
 591 1395 l 1,20,-1
 509 1010 l 1,21,-1
 816 1010 l 1,22,-1
 900 1395 l 1,23,-1
 1056 1395 l 1,24,-1
 972 1010 l 1,25,-1
 1136 1010 l 1,26,-1
 1136 862 l 1,27,-1
 939 862 l 1,0,-1
479 862 m 1,28,-1
 407 530 l 1,29,-1
 716 530 l 1,30,-1
 786 862 l 1,31,-1
 479 862 l 1,28,-1
EndSplineSet
EndChar

StartChar: dollar
Encoding: 36 36 7
Width: 1139
Flags: W
LayerCount: 2
Fore
SplineSet
1080 474 m 0,0,1
 1080 363 1080 363 1042 280 c 128,-1,2
 1004 197 1004 197 932 141 c 128,-1,3
 860 85 860 85 755 55.5 c 128,-1,4
 650 26 650 26 516 21 c 1,5,-1
 483 -152 l 1,6,-1
 371 -152 l 1,7,-1
 403 23 l 1,8,9
 321 23 321 23 248 45.5 c 128,-1,10
 175 68 175 68 119.5 112 c 128,-1,11
 64 156 64 156 29.5 220 c 128,-1,12
 -5 284 -5 284 -11 366 c 1,13,-1
 251 408 l 1,14,15
 258 320 258 320 306 275.5 c 128,-1,16
 354 231 354 231 445 231 c 1,17,-1
 518 619 l 1,18,19
 441 638 441 638 373 669.5 c 128,-1,20
 305 701 305 701 254 746.5 c 128,-1,21
 203 792 203 792 173.5 852 c 128,-1,22
 144 912 144 912 144 988 c 256,23,24
 144 1064 144 1064 166.5 1124 c 128,-1,25
 189 1184 189 1184 228 1229 c 128,-1,26
 267 1274 267 1274 319 1305.5 c 128,-1,27
 371 1337 371 1337 429.5 1356.5 c 128,-1,28
 488 1376 488 1376 550.5 1385 c 128,-1,29
 613 1394 613 1394 672 1394 c 1,30,-1
 696 1520 l 1,31,-1
 806 1516 l 1,32,-1
 779 1386 l 1,33,34
 868 1386 868 1386 936 1363 c 128,-1,35
 1004 1340 1004 1340 1051.5 1300 c 128,-1,36
 1099 1260 1099 1260 1125 1205.5 c 128,-1,37
 1151 1151 1151 1151 1157 1089 c 1,38,-1
 896 1032 l 1,39,40
 888 1076 888 1076 872 1106.5 c 128,-1,41
 856 1137 856 1137 835 1155.5 c 128,-1,42
 814 1174 814 1174 789.5 1182 c 128,-1,43
 765 1190 765 1190 741 1190 c 1,44,-1
 674 837 l 1,45,46
 766 815 766 815 840.5 784 c 128,-1,47
 915 753 915 753 968.5 709.5 c 128,-1,48
 1022 666 1022 666 1051 608 c 128,-1,49
 1080 550 1080 550 1080 474 c 0,0,1
810 413 m 0,50,51
 810 490 810 490 766 530.5 c 128,-1,52
 722 571 722 571 627 593 c 1,53,-1
 554 231 l 1,54,55
 604 231 604 231 650.5 242 c 128,-1,56
 697 253 697 253 732.5 275.5 c 128,-1,57
 768 298 768 298 789 332.5 c 128,-1,58
 810 367 810 367 810 413 c 0,50,51
412 1006 m 0,59,60
 412 976 412 976 422.5 954.5 c 128,-1,61
 433 933 433 933 452.5 916.5 c 128,-1,62
 472 900 472 900 500.5 887.5 c 128,-1,63
 529 875 529 875 566 863 c 1,64,-1
 633 1194 l 1,65,66
 582 1194 582 1194 541 1179.5 c 128,-1,67
 500 1165 500 1165 471.5 1139.5 c 128,-1,68
 443 1114 443 1114 427.5 1079.5 c 128,-1,69
 412 1045 412 1045 412 1006 c 0,59,60
EndSplineSet
EndChar

StartChar: percent
Encoding: 37 37 8
Width: 1821
Flags: W
LayerCount: 2
Fore
SplineSet
546 1421 m 0,0,1
 609 1421 609 1421 665 1405 c 128,-1,2
 721 1389 721 1389 763.5 1352.5 c 128,-1,3
 806 1316 806 1316 830.5 1257 c 128,-1,4
 855 1198 855 1198 855 1113 c 0,5,6
 855 1076 855 1076 848.5 1029.5 c 128,-1,7
 842 983 842 983 829 935 c 1,8,9
 802 809 802 809 752.5 729 c 128,-1,10
 703 649 703 649 643.5 603.5 c 128,-1,11
 584 558 584 558 522 541 c 128,-1,12
 460 524 460 524 407 524 c 0,13,14
 345 524 345 524 291 542 c 128,-1,15
 237 560 237 560 197.5 598.5 c 128,-1,16
 158 637 158 637 135 697 c 128,-1,17
 112 757 112 757 112 841 c 0,18,19
 112 878 112 878 117.5 923.5 c 128,-1,20
 123 969 123 969 136 1015 c 1,21,22
 163 1146 163 1146 210.5 1226 c 128,-1,23
 258 1306 258 1306 315 1349.5 c 128,-1,24
 372 1393 372 1393 432.5 1407 c 128,-1,25
 493 1421 493 1421 546 1421 c 0,0,1
545 1270 m 0,26,27
 515 1270 515 1270 486 1260 c 128,-1,28
 457 1250 457 1250 431.5 1221.5 c 128,-1,29
 406 1193 406 1193 384.5 1141.5 c 128,-1,30
 363 1090 363 1090 347 1006 c 0,31,32
 336 953 336 953 330.5 908.5 c 128,-1,33
 325 864 325 864 325 827 c 0,34,35
 325 754 325 754 347 719.5 c 128,-1,36
 369 685 369 685 411 685 c 0,37,38
 441 685 441 685 470 695.5 c 128,-1,39
 499 706 499 706 525.5 734.5 c 128,-1,40
 552 763 552 763 574.5 814 c 128,-1,41
 597 865 597 865 613 945 c 1,42,43
 641 1054 641 1054 641 1131 c 0,44,45
 641 1205 641 1205 616 1237.5 c 128,-1,46
 591 1270 591 1270 545 1270 c 0,26,27
1455 882 m 0,47,48
 1518 882 1518 882 1574 866 c 128,-1,49
 1630 850 1630 850 1672.5 813.5 c 128,-1,50
 1715 777 1715 777 1739.5 718 c 128,-1,51
 1764 659 1764 659 1764 574 c 0,52,53
 1764 537 1764 537 1757.5 490.5 c 128,-1,54
 1751 444 1751 444 1738 396 c 1,55,56
 1711 270 1711 270 1661.5 190 c 128,-1,57
 1612 110 1612 110 1552.5 64.5 c 128,-1,58
 1493 19 1493 19 1431 2 c 128,-1,59
 1369 -15 1369 -15 1316 -15 c 0,60,61
 1254 -15 1254 -15 1200 3 c 128,-1,62
 1146 21 1146 21 1106.5 59.5 c 128,-1,63
 1067 98 1067 98 1044 158 c 128,-1,64
 1021 218 1021 218 1021 302 c 0,65,66
 1021 339 1021 339 1026.5 384.5 c 128,-1,67
 1032 430 1032 430 1045 476 c 1,68,69
 1072 607 1072 607 1119.5 687 c 128,-1,70
 1167 767 1167 767 1224 810.5 c 128,-1,71
 1281 854 1281 854 1341.5 868 c 128,-1,72
 1402 882 1402 882 1455 882 c 0,47,48
1454 731 m 0,73,74
 1424 731 1424 731 1395 721 c 128,-1,75
 1366 711 1366 711 1340.5 682.5 c 128,-1,76
 1315 654 1315 654 1293.5 602.5 c 128,-1,77
 1272 551 1272 551 1256 467 c 0,78,79
 1245 414 1245 414 1239.5 369.5 c 128,-1,80
 1234 325 1234 325 1234 288 c 0,81,82
 1234 215 1234 215 1256 180.5 c 128,-1,83
 1278 146 1278 146 1320 146 c 0,84,85
 1350 146 1350 146 1379 156.5 c 128,-1,86
 1408 167 1408 167 1434.5 195.5 c 128,-1,87
 1461 224 1461 224 1483.5 275 c 128,-1,88
 1506 326 1506 326 1522 406 c 1,89,90
 1550 515 1550 515 1550 592 c 0,91,92
 1550 666 1550 666 1525 698.5 c 128,-1,93
 1500 731 1500 731 1454 731 c 0,73,74
486 0 m 1,94,-1
 289 0 l 1,95,-1
 1375 1409 l 1,96,-1
 1574 1409 l 1,97,-1
 486 0 l 1,94,-1
EndSplineSet
EndChar

StartChar: ampersand
Encoding: 38 38 9
Width: 1479
Flags: W
LayerCount: 2
Fore
SplineSet
49 354 m 0,0,1
 49 441 49 441 81 511 c 128,-1,2
 113 581 113 581 170 637 c 128,-1,3
 227 693 227 693 305 736 c 128,-1,4
 383 779 383 779 475 811 c 1,5,6
 469 830 469 830 463 855 c 128,-1,7
 457 880 457 880 452 909.5 c 128,-1,8
 447 939 447 939 443.5 971.5 c 128,-1,9
 440 1004 440 1004 440 1037 c 0,10,11
 440 1119 440 1119 468 1188.5 c 128,-1,12
 496 1258 496 1258 550 1309 c 128,-1,13
 604 1360 604 1360 684 1388.5 c 128,-1,14
 764 1417 764 1417 868 1417 c 0,15,16
 943 1417 943 1417 1005 1401 c 128,-1,17
 1067 1385 1067 1385 1111.5 1352.5 c 128,-1,18
 1156 1320 1156 1320 1180 1272 c 128,-1,19
 1204 1224 1204 1224 1204 1160 c 0,20,21
 1204 1075 1204 1075 1166 1010.5 c 128,-1,22
 1128 946 1128 946 1063.5 895.5 c 128,-1,23
 999 845 999 845 914 805 c 128,-1,24
 829 765 829 765 736 727 c 1,25,26
 751 685 751 685 767 644 c 128,-1,27
 783 603 783 603 803.5 562.5 c 128,-1,28
 824 522 824 522 849.5 480.5 c 128,-1,29
 875 439 875 439 908 395 c 1,30,31
 981 473 981 473 1037.5 563.5 c 128,-1,32
 1094 654 1094 654 1142 760 c 1,33,-1
 1329 677 l 1,34,35
 1305 621 1305 621 1274 565.5 c 128,-1,36
 1243 510 1243 510 1207.5 456.5 c 128,-1,37
 1172 403 1172 403 1132.5 353.5 c 128,-1,38
 1093 304 1093 304 1051 261 c 1,39,40
 1091 227 1091 227 1137.5 212 c 128,-1,41
 1184 197 1184 197 1235 197 c 0,42,43
 1265 197 1265 197 1293.5 201 c 128,-1,44
 1322 205 1322 205 1346 213 c 1,45,-1
 1307 10 l 1,46,47
 1274 -1 1274 -1 1242.5 -6.5 c 128,-1,48
 1211 -12 1211 -12 1168 -12 c 0,49,50
 1077 -12 1077 -12 1002 18 c 128,-1,51
 927 48 927 48 863 105 c 1,52,53
 832 81 832 81 797 58 c 128,-1,54
 762 35 762 35 716.5 18 c 128,-1,55
 671 1 671 1 609.5 -9.5 c 128,-1,56
 548 -20 548 -20 464 -20 c 0,57,58
 263 -20 263 -20 156 76.5 c 128,-1,59
 49 173 49 173 49 354 c 0,0,1
493 170 m 0,60,61
 527 170 527 170 560 176.5 c 128,-1,62
 593 183 593 183 623 194.5 c 128,-1,63
 653 206 653 206 679 220 c 128,-1,64
 705 234 705 234 725 249 c 1,65,66
 691 294 691 294 661 343.5 c 128,-1,67
 631 393 631 393 605.5 442.5 c 128,-1,68
 580 492 580 492 560 540 c 128,-1,69
 540 588 540 588 525 631 c 1,70,71
 485 613 485 613 445 590 c 128,-1,72
 405 567 405 567 374 535 c 128,-1,73
 343 503 343 503 323.5 460 c 128,-1,74
 304 417 304 417 304 360 c 0,75,76
 304 317 304 317 318 281.5 c 128,-1,77
 332 246 332 246 356.5 221.5 c 128,-1,78
 381 197 381 197 416 183.5 c 128,-1,79
 451 170 451 170 493 170 c 0,60,61
667 1041 m 0,80,81
 667 997 667 997 672 962.5 c 128,-1,82
 677 928 677 928 687 896 c 1,83,84
 750 920 750 920 804 943 c 128,-1,85
 858 966 858 966 897 994 c 128,-1,86
 936 1022 936 1022 958 1058 c 128,-1,87
 980 1094 980 1094 980 1142 c 0,88,89
 980 1193 980 1193 946.5 1220 c 128,-1,90
 913 1247 913 1247 855 1247 c 0,91,92
 816 1247 816 1247 781.5 1234 c 128,-1,93
 747 1221 747 1221 721.5 1195.5 c 128,-1,94
 696 1170 696 1170 681.5 1131 c 128,-1,95
 667 1092 667 1092 667 1041 c 0,80,81
EndSplineSet
EndChar

StartChar: quotesingle
Encoding: 39 39 10
Width: 487
Flags: W
LayerCount: 2
Fore
SplineSet
417 898 m 1,0,-1
 198 898 l 1,1,-1
 271 1409 l 1,2,-1
 543 1409 l 1,3,-1
 417 898 l 1,0,-1
EndSplineSet
EndChar

StartChar: parenleft
Encoding: 40 40 11
Width: 682
Flags: W
LayerCount: 2
Fore
SplineSet
874 1484 m 1,0,1
 616 1238 616 1238 483 939.5 c 128,-1,2
 350 641 350 641 350 280 c 0,3,4
 350 85 350 85 386 -92 c 128,-1,5
 422 -269 422 -269 497 -425 c 1,6,-1
 222 -425 l 1,7,8
 149 -269 149 -269 111.5 -87 c 128,-1,9
 74 95 74 95 74 296 c 0,10,11
 74 475 74 475 106.5 641 c 128,-1,12
 139 807 139 807 204 957.5 c 128,-1,13
 269 1108 269 1108 366.5 1240.5 c 128,-1,14
 464 1373 464 1373 593 1484 c 1,15,-1
 874 1484 l 1,0,1
EndSplineSet
EndChar

StartChar: parenright
Encoding: 41 41 12
Width: 682
Flags: W
LayerCount: 2
Fore
SplineSet
-180 -425 m 1,0,1
 78 -173 78 -173 211.5 133 c 128,-1,2
 345 439 345 439 345 809 c 0,3,4
 345 888 345 888 335.5 975.5 c 128,-1,5
 326 1063 326 1063 307 1151.5 c 128,-1,6
 288 1240 288 1240 260 1325 c 128,-1,7
 232 1410 232 1410 196 1484 c 1,8,-1
 461 1484 l 1,9,10
 536 1335 536 1335 579 1160 c 128,-1,11
 622 985 622 985 622 793 c 0,12,13
 622 610 622 610 589.5 440 c 128,-1,14
 557 270 557 270 491.5 115.5 c 128,-1,15
 426 -39 426 -39 328.5 -175 c 128,-1,16
 231 -311 231 -311 101 -425 c 1,17,-1
 -180 -425 l 1,0,1
EndSplineSet
EndChar

StartChar: asterisk
Encoding: 42 42 13
Width: 797
Flags: W
LayerCount: 2
Fore
SplineSet
574 1135 m 1,0,-1
 809 1239 l 1,1,-1
 877 1042 l 1,2,-1
 627 981 l 1,3,-1
 813 768 l 1,4,-1
 629 647 l 1,5,-1
 483 899 l 1,6,-1
 334 647 l 1,7,-1
 148 770 l 1,8,-1
 338 981 l 1,9,-1
 88 1042 l 1,10,-1
 156 1239 l 1,11,-1
 395 1135 l 1,12,-1
 377 1409 l 1,13,-1
 592 1409 l 1,14,-1
 574 1135 l 1,0,-1
EndSplineSet
EndChar

StartChar: plus
Encoding: 43 43 14
Width: 1196
Flags: W
LayerCount: 2
Fore
SplineSet
750 569 m 1,0,-1
 750 161 l 1,1,-1
 524 161 l 1,2,-1
 524 569 l 1,3,-1
 125 569 l 1,4,-1
 125 793 l 1,5,-1
 524 793 l 1,6,-1
 524 1201 l 1,7,-1
 750 1201 l 1,8,-1
 750 793 l 1,9,-1
 1152 793 l 1,10,-1
 1152 569 l 1,11,-1
 750 569 l 1,0,-1
EndSplineSet
EndChar

StartChar: comma
Encoding: 44 44 15
Width: 569
Flags: W
LayerCount: 2
Fore
SplineSet
347 66 m 2,0,1
 334 -1 334 -1 316 -56 c 128,-1,2
 298 -111 298 -111 275 -157.5 c 128,-1,3
 252 -204 252 -204 224.5 -243 c 128,-1,4
 197 -282 197 -282 165 -317 c 1,5,-1
 -20 -317 l 1,6,7
 15 -282 15 -282 47 -243 c 128,-1,8
 79 -204 79 -204 105 -163 c 128,-1,9
 131 -122 131 -122 149 -81 c 128,-1,10
 167 -40 167 -40 175 0 c 1,11,-1
 46 0 l 1,12,-1
 105 305 l 1,13,-1
 394 305 l 1,14,-1
 347 66 l 2,0,1
EndSplineSet
EndChar

StartChar: uni00AD
Encoding: 173 173 16
AltUni2: 00002d.ffffffff.0 00002d.ffffffff.0 00002d.ffffffff.0 00002d.ffffffff.0 00002d.ffffffff.0
Width: 682
Flags: W
LayerCount: 2
Fore
SplineSet
56 409 m 1,0,-1
 103 653 l 1,1,-1
 623 653 l 1,2,-1
 576 409 l 1,3,-1
 56 409 l 1,0,-1
EndSplineSet
EndChar

StartChar: period
Encoding: 46 46 17
Width: 569
Flags: W
LayerCount: 2
Fore
SplineSet
46 0 m 1,0,-1
 105 305 l 1,1,-1
 394 305 l 1,2,-1
 335 0 l 1,3,-1
 46 0 l 1,0,-1
EndSplineSet
EndChar

StartChar: slash
Encoding: 47 47 18
Width: 569
Flags: W
LayerCount: 2
Fore
SplineSet
-76 -41 m 1,0,-1
 511 1484 l 1,1,-1
 749 1484 l 1,2,-1
 166 -41 l 1,3,-1
 -76 -41 l 1,0,-1
EndSplineSet
EndChar

StartChar: zero
Encoding: 48 48 19
Width: 1139
Flags: W
LayerCount: 2
Fore
SplineSet
724 1430 m 0,0,1
 807 1430 807 1430 879 1407.5 c 128,-1,2
 951 1385 951 1385 1004 1331 c 128,-1,3
 1057 1277 1057 1277 1088 1187.5 c 128,-1,4
 1119 1098 1119 1098 1119 964 c 0,5,6
 1119 901 1119 901 1109.5 829 c 128,-1,7
 1100 757 1100 757 1081 665 c 0,8,9
 1053 532 1053 532 1015 429 c 128,-1,10
 977 326 977 326 930.5 250 c 128,-1,11
 884 174 884 174 831 122.5 c 128,-1,12
 778 71 778 71 720 39 c 128,-1,13
 662 7 662 7 601 -6.5 c 128,-1,14
 540 -20 540 -20 478 -20 c 0,15,16
 384 -20 384 -20 311 6.5 c 128,-1,17
 238 33 238 33 187.5 90.5 c 128,-1,18
 137 148 137 148 111 238 c 128,-1,19
 85 328 85 328 85 454 c 0,20,21
 85 515 85 515 93.5 585 c 128,-1,22
 102 655 102 655 119 746 c 0,23,24
 146 887 146 887 185 993 c 128,-1,25
 224 1099 224 1099 271.5 1175 c 128,-1,26
 319 1251 319 1251 373.5 1300.5 c 128,-1,27
 428 1350 428 1350 486 1378.5 c 128,-1,28
 544 1407 544 1407 604.5 1418.5 c 128,-1,29
 665 1430 665 1430 724 1430 c 0,0,1
497 201 m 0,30,31
 552 201 552 201 597.5 224.5 c 128,-1,32
 643 248 643 248 681 304 c 128,-1,33
 719 360 719 360 750 453 c 128,-1,34
 781 546 781 546 806 685 c 0,35,36
 823 779 823 779 834.5 848.5 c 128,-1,37
 846 918 846 918 846 977 c 0,38,39
 846 1087 846 1087 809.5 1148.5 c 128,-1,40
 773 1210 773 1210 694 1210 c 0,41,42
 634 1210 634 1210 589 1186.5 c 128,-1,43
 544 1163 544 1163 509 1107.5 c 128,-1,44
 474 1052 474 1052 447 959 c 128,-1,45
 420 866 420 866 396 726 c 0,46,47
 381 639 381 639 369.5 556.5 c 128,-1,48
 358 474 358 474 358 415 c 0,49,50
 358 370 358 370 364.5 330.5 c 128,-1,51
 371 291 371 291 387 262.5 c 128,-1,52
 403 234 403 234 430 217.5 c 128,-1,53
 457 201 457 201 497 201 c 0,30,31
EndSplineSet
EndChar

StartChar: one
Encoding: 49 49 20
Width: 1139
Flags: W
LayerCount: 2
Fore
SplineSet
33 0 m 1,0,-1
 76 231 l 1,1,-1
 425 231 l 1,2,-1
 604 1152 l 1,3,-1
 223 938 l 1,4,-1
 270 1180 l 1,5,-1
 666 1409 l 1,6,-1
 936 1409 l 1,7,-1
 706 231 l 1,8,-1
 1029 231 l 1,9,-1
 985 0 l 1,10,-1
 33 0 l 1,0,-1
EndSplineSet
EndChar

StartChar: two
Encoding: 50 50 21
Width: 1139
Flags: W
LayerCount: 2
Fore
SplineSet
-32 0 m 1,0,-1
 5 195 l 1,1,2
 53 278 53 278 114 346.5 c 128,-1,3
 175 415 175 415 242 473 c 128,-1,4
 309 531 309 531 378.5 581 c 128,-1,5
 448 631 448 631 513.5 677 c 128,-1,6
 579 723 579 723 636.5 766.5 c 128,-1,7
 694 810 694 810 736.5 856.5 c 128,-1,8
 779 903 779 903 804 953.5 c 128,-1,9
 829 1004 829 1004 829 1063 c 0,10,11
 829 1103 829 1103 817 1130.5 c 128,-1,12
 805 1158 805 1158 783.5 1174.5 c 128,-1,13
 762 1191 762 1191 732 1198.5 c 128,-1,14
 702 1206 702 1206 667 1206 c 0,15,16
 628 1206 628 1206 594 1197 c 128,-1,17
 560 1188 560 1188 531.5 1167 c 128,-1,18
 503 1146 503 1146 481 1110.5 c 128,-1,19
 459 1075 459 1075 444 1022 c 1,20,-1
 178 1081 l 1,21,22
 202 1162 202 1162 243 1226.5 c 128,-1,23
 284 1291 284 1291 346 1336 c 128,-1,24
 408 1381 408 1381 492.5 1405.5 c 128,-1,25
 577 1430 577 1430 687 1430 c 0,26,27
 800 1430 800 1430 881 1405.5 c 128,-1,28
 962 1381 962 1381 1015 1336 c 128,-1,29
 1068 1291 1068 1291 1093 1227 c 128,-1,30
 1118 1163 1118 1163 1118 1083 c 0,31,32
 1118 1005 1118 1005 1093 939 c 128,-1,33
 1068 873 1068 873 1025 816 c 128,-1,34
 982 759 982 759 925.5 709 c 128,-1,35
 869 659 869 659 805.5 613 c 128,-1,36
 742 567 742 567 676 522.5 c 128,-1,37
 610 478 610 478 548.5 432 c 128,-1,38
 487 386 487 386 434 336.5 c 128,-1,39
 381 287 381 287 343 231 c 1,40,-1
 997 231 l 1,41,-1
 953 0 l 1,42,-1
 -32 0 l 1,0,-1
EndSplineSet
EndChar

StartChar: three
Encoding: 51 51 22
Width: 1139
Flags: W
LayerCount: 2
Fore
SplineSet
535 829 m 2,0,1
 582 829 582 829 634.5 837 c 128,-1,2
 687 845 687 845 730.5 869 c 128,-1,3
 774 893 774 893 802.5 936.5 c 128,-1,4
 831 980 831 980 831 1051 c 0,5,6
 831 1123 831 1123 792.5 1164.5 c 128,-1,7
 754 1206 754 1206 674 1206 c 0,8,9
 583 1206 583 1206 523 1161 c 128,-1,10
 463 1116 463 1116 437 1022 c 1,11,-1
 170 1074 l 1,12,13
 197 1168 197 1168 244 1235.5 c 128,-1,14
 291 1303 291 1303 356 1346 c 128,-1,15
 421 1389 421 1389 503.5 1409.5 c 128,-1,16
 586 1430 586 1430 685 1430 c 0,17,18
 787 1430 787 1430 867 1406.5 c 128,-1,19
 947 1383 947 1383 1002.5 1338.5 c 128,-1,20
 1058 1294 1058 1294 1087 1230.5 c 128,-1,21
 1116 1167 1116 1167 1116 1086 c 0,22,23
 1116 1010 1116 1010 1092 947 c 128,-1,24
 1068 884 1068 884 1021.5 837.5 c 128,-1,25
 975 791 975 791 908 762 c 128,-1,26
 841 733 841 733 755 725 c 1,27,-1
 754 721 l 1,28,29
 817 711 817 711 868 687.5 c 128,-1,30
 919 664 919 664 955 626 c 128,-1,31
 991 588 991 588 1010.5 536 c 128,-1,32
 1030 484 1030 484 1030 418 c 0,33,34
 1030 331 1030 331 996 251.5 c 128,-1,35
 962 172 962 172 896.5 111.5 c 128,-1,36
 831 51 831 51 734 15.5 c 128,-1,37
 637 -20 637 -20 511 -20 c 0,38,39
 387 -20 387 -20 296.5 7 c 128,-1,40
 206 34 206 34 146 82.5 c 128,-1,41
 86 131 86 131 54.5 197.5 c 128,-1,42
 23 264 23 264 16 343 c 1,43,-1
 298 381 l 1,44,45
 304 331 304 331 321.5 297.5 c 128,-1,46
 339 264 339 264 367.5 243.5 c 128,-1,47
 396 223 396 223 435.5 214.5 c 128,-1,48
 475 206 475 206 524 206 c 0,49,50
 580 206 580 206 621.5 222 c 128,-1,51
 663 238 663 238 690.5 266 c 128,-1,52
 718 294 718 294 731.5 332.5 c 128,-1,53
 745 371 745 371 745 416 c 0,54,55
 745 509 745 509 691 555.5 c 128,-1,56
 637 602 637 602 525 602 c 2,57,-1
 418 602 l 1,58,-1
 462 829 l 1,59,-1
 535 829 l 2,0,1
EndSplineSet
EndChar

StartChar: four
Encoding: 52 52 23
Width: 1139
Flags: W
LayerCount: 2
Fore
SplineSet
874 286 m 1,0,-1
 820 0 l 1,1,-1
 552 0 l 1,2,-1
 606 286 l 1,3,-1
 -34 286 l 1,4,-1
 7 493 l 1,5,-1
 724 1409 l 1,6,-1
 1094 1409 l 1,7,-1
 916 496 l 1,8,-1
 1104 496 l 1,9,-1
 1062 286 l 1,10,-1
 874 286 l 1,0,-1
750 1020 m 2,11,12
 753 1035 753 1035 759 1060 c 128,-1,13
 765 1085 765 1085 772.5 1112.5 c 128,-1,14
 780 1140 780 1140 787.5 1165.5 c 128,-1,15
 795 1191 795 1191 800 1206 c 1,16,17
 793 1194 793 1194 779 1172.5 c 128,-1,18
 765 1151 765 1151 748.5 1126.5 c 128,-1,19
 732 1102 732 1102 714.5 1078 c 128,-1,20
 697 1054 697 1054 683 1036 c 2,21,-1
 259 496 l 1,22,-1
 648 496 l 1,23,-1
 750 1020 l 2,11,12
EndSplineSet
EndChar

StartChar: five
Encoding: 53 53 24
Width: 1139
Flags: W
LayerCount: 2
Fore
SplineSet
316 1409 m 1,0,-1
 1163 1409 l 1,1,-1
 1120 1178 l 1,2,-1
 526 1178 l 1,3,-1
 439 844 l 1,4,5
 457 860 457 860 481.5 876 c 128,-1,6
 506 892 506 892 537 905 c 128,-1,7
 568 918 568 918 607 926 c 128,-1,8
 646 934 646 934 694 934 c 0,9,10
 772 934 772 934 839.5 907 c 128,-1,11
 907 880 907 880 957 827 c 128,-1,12
 1007 774 1007 774 1035.5 696.5 c 128,-1,13
 1064 619 1064 619 1064 518 c 0,14,15
 1064 399 1064 399 1025 300 c 128,-1,16
 986 201 986 201 912 130 c 128,-1,17
 838 59 838 59 730.5 19.5 c 128,-1,18
 623 -20 623 -20 486 -20 c 0,19,20
 374 -20 374 -20 292 6.5 c 128,-1,21
 210 33 210 33 153.5 79.5 c 128,-1,22
 97 126 97 126 64.5 190 c 128,-1,23
 32 254 32 254 20 329 c 1,24,-1
 303 374 l 1,25,26
 311 332 311 332 325 300.5 c 128,-1,27
 339 269 339 269 363 248 c 128,-1,28
 387 227 387 227 423 216.5 c 128,-1,29
 459 206 459 206 510 206 c 0,30,31
 577 206 577 206 627.5 228 c 128,-1,32
 678 250 678 250 711.5 288.5 c 128,-1,33
 745 327 745 327 761.5 378 c 128,-1,34
 778 429 778 429 778 486 c 0,35,36
 778 544 778 544 763.5 586 c 128,-1,37
 749 628 749 628 723.5 655 c 128,-1,38
 698 682 698 682 663.5 694.5 c 128,-1,39
 629 707 629 707 589 707 c 0,40,41
 524 707 524 707 475 684 c 128,-1,42
 426 661 426 661 387 616 c 1,43,-1
 113 616 l 1,44,-1
 316 1409 l 1,0,-1
EndSplineSet
EndChar

StartChar: six
Encoding: 54 54 25
Width: 1139
Flags: W
LayerCount: 2
Fore
SplineSet
533 -20 m 0,0,1
 426 -20 426 -20 344.5 14.5 c 128,-1,2
 263 49 263 49 207.5 114.5 c 128,-1,3
 152 180 152 180 123.5 274 c 128,-1,4
 95 368 95 368 95 487 c 0,5,6
 95 691 95 691 142.5 863.5 c 128,-1,7
 190 1036 190 1036 275.5 1162 c 128,-1,8
 361 1288 361 1288 481 1359 c 128,-1,9
 601 1430 601 1430 745 1430 c 0,10,11
 814 1430 814 1430 882 1415 c 128,-1,12
 950 1400 950 1400 1006 1363 c 128,-1,13
 1062 1326 1062 1326 1100.5 1263.5 c 128,-1,14
 1139 1201 1139 1201 1150 1106 c 1,15,-1
 884 1065 l 1,16,17
 870 1138 870 1138 833 1173 c 128,-1,18
 796 1208 796 1208 730 1208 c 0,19,20
 615 1208 615 1208 530 1093 c 128,-1,21
 445 978 445 978 406 746 c 1,22,23
 459 818 459 818 540.5 862.5 c 128,-1,24
 622 907 622 907 725 907 c 0,25,26
 804 907 804 907 869 882.5 c 128,-1,27
 934 858 934 858 980.5 810.5 c 128,-1,28
 1027 763 1027 763 1052.5 693.5 c 128,-1,29
 1078 624 1078 624 1078 533 c 0,30,31
 1078 422 1078 422 1039.5 322 c 128,-1,32
 1001 222 1001 222 930 146 c 128,-1,33
 859 70 859 70 758.5 25 c 128,-1,34
 658 -20 658 -20 533 -20 c 0,0,1
369 429 m 0,35,36
 369 324 369 324 418 262 c 128,-1,37
 467 200 467 200 558 200 c 0,38,39
 609 200 609 200 652 220 c 128,-1,40
 695 240 695 240 726 278.5 c 128,-1,41
 757 317 757 317 774.5 372.5 c 128,-1,42
 792 428 792 428 792 499 c 0,43,44
 792 551 792 551 778.5 589 c 128,-1,45
 765 627 765 627 741 651.5 c 128,-1,46
 717 676 717 676 684.5 688 c 128,-1,47
 652 700 652 700 614 700 c 0,48,49
 569 700 569 700 525 683 c 128,-1,50
 481 666 481 666 446.5 632.5 c 128,-1,51
 412 599 412 599 390.5 548 c 128,-1,52
 369 497 369 497 369 429 c 0,35,36
EndSplineSet
EndChar

StartChar: seven
Encoding: 55 55 26
Width: 1139
Flags: W
LayerCount: 2
Fore
SplineSet
188 1409 m 1,0,-1
 1219 1409 l 1,1,-1
 1175 1186 l 1,2,3
 1091 1084 1091 1084 1013 992 c 128,-1,4
 935 900 935 900 865.5 810.5 c 128,-1,5
 796 721 796 721 735.5 631 c 128,-1,6
 675 541 675 541 625 443 c 128,-1,7
 575 345 575 345 536.5 236 c 128,-1,8
 498 127 498 127 472 0 c 1,9,-1
 174 0 l 1,10,11
 209 182 209 182 277.5 335.5 c 128,-1,12
 346 489 346 489 439.5 629 c 128,-1,13
 533 769 533 769 648.5 902.5 c 128,-1,14
 764 1036 764 1036 893 1178 c 1,15,-1
 143 1178 l 1,16,-1
 188 1409 l 1,0,-1
EndSplineSet
EndChar

StartChar: eight
Encoding: 56 56 27
Width: 1139
Flags: W
LayerCount: 2
Fore
SplineSet
707 1429 m 0,0,1
 808 1429 808 1429 887.5 1405 c 128,-1,2
 967 1381 967 1381 1022 1337 c 128,-1,3
 1077 1293 1077 1293 1106.5 1230.5 c 128,-1,4
 1136 1168 1136 1168 1136 1091 c 0,5,6
 1136 1024 1136 1024 1114.5 964.5 c 128,-1,7
 1093 905 1093 905 1052.5 859.5 c 128,-1,8
 1012 814 1012 814 953 783.5 c 128,-1,9
 894 753 894 753 820 743 c 1,10,-1
 819 739 l 1,11,12
 870 724 870 724 912.5 697 c 128,-1,13
 955 670 955 670 985 631.5 c 128,-1,14
 1015 593 1015 593 1032 543 c 128,-1,15
 1049 493 1049 493 1049 432 c 0,16,17
 1049 335 1049 335 1014 252.5 c 128,-1,18
 979 170 979 170 909.5 109.5 c 128,-1,19
 840 49 840 49 736 14.5 c 128,-1,20
 632 -20 632 -20 493 -20 c 0,21,22
 374 -20 374 -20 286 8.5 c 128,-1,23
 198 37 198 37 140.5 88 c 128,-1,24
 83 139 83 139 55 208.5 c 128,-1,25
 27 278 27 278 27 360 c 0,26,27
 27 453 27 453 60.5 518.5 c 128,-1,28
 94 584 94 584 146.5 628.5 c 128,-1,29
 199 673 199 673 262.5 699 c 128,-1,30
 326 725 326 725 386 737 c 1,31,-1
 386 741 l 1,32,33
 294 782 294 782 246.5 862.5 c 128,-1,34
 199 943 199 943 199 1052 c 0,35,36
 199 1139 199 1139 233.5 1209 c 128,-1,37
 268 1279 268 1279 333.5 1327.5 c 128,-1,38
 399 1376 399 1376 493.5 1402.5 c 128,-1,39
 588 1429 588 1429 707 1429 c 0,0,1
648 840 m 0,40,41
 708 840 708 840 747 861.5 c 128,-1,42
 786 883 786 883 809.5 916 c 128,-1,43
 833 949 833 949 842 988.5 c 128,-1,44
 851 1028 851 1028 851 1064 c 0,45,46
 851 1144 851 1144 809 1188 c 128,-1,47
 767 1232 767 1232 679 1232 c 0,48,49
 636 1232 636 1232 599 1219.5 c 128,-1,50
 562 1207 562 1207 534.5 1181 c 128,-1,51
 507 1155 507 1155 491.5 1115 c 128,-1,52
 476 1075 476 1075 476 1020 c 0,53,54
 476 988 476 988 484 955.5 c 128,-1,55
 492 923 492 923 511.5 897.5 c 128,-1,56
 531 872 531 872 564 856 c 128,-1,57
 597 840 597 840 648 840 c 0,40,41
561 640 m 0,58,59
 501 640 501 640 455.5 621 c 128,-1,60
 410 602 410 602 379.5 567.5 c 128,-1,61
 349 533 349 533 333 484.5 c 128,-1,62
 317 436 317 436 317 377 c 0,63,64
 317 334 317 334 329 297.5 c 128,-1,65
 341 261 341 261 366 234.5 c 128,-1,66
 391 208 391 208 429.5 193 c 128,-1,67
 468 178 468 178 520 178 c 0,68,69
 570 178 570 178 613.5 195 c 128,-1,70
 657 212 657 212 689.5 245.5 c 128,-1,71
 722 279 722 279 741 328.5 c 128,-1,72
 760 378 760 378 760 444 c 0,73,74
 760 481 760 481 750.5 516 c 128,-1,75
 741 551 741 551 717.5 578.5 c 128,-1,76
 694 606 694 606 656 623 c 128,-1,77
 618 640 618 640 561 640 c 0,58,59
EndSplineSet
EndChar

StartChar: nine
Encoding: 57 57 28
Width: 1139
Flags: W
LayerCount: 2
Fore
SplineSet
817 653 m 1,0,1
 786 616 786 616 752.5 588 c 128,-1,2
 719 560 719 560 681 541 c 128,-1,3
 643 522 643 522 598.5 512.5 c 128,-1,4
 554 503 554 503 500 503 c 0,5,6
 418 503 418 503 352.5 531.5 c 128,-1,7
 287 560 287 560 241.5 611.5 c 128,-1,8
 196 663 196 663 171.5 735 c 128,-1,9
 147 807 147 807 147 893 c 0,10,11
 147 1006 147 1006 187.5 1104 c 128,-1,12
 228 1202 228 1202 300 1274.5 c 128,-1,13
 372 1347 372 1347 472 1388.5 c 128,-1,14
 572 1430 572 1430 692 1430 c 0,15,16
 787 1430 787 1430 867 1399 c 128,-1,17
 947 1368 947 1368 1005.5 1307.5 c 128,-1,18
 1064 1247 1064 1247 1097 1159 c 128,-1,19
 1130 1071 1130 1071 1130 957 c 0,20,21
 1130 930 1130 930 1128 896 c 128,-1,22
 1126 862 1126 862 1122.5 825.5 c 128,-1,23
 1119 789 1119 789 1113.5 751 c 128,-1,24
 1108 713 1108 713 1101 679 c 0,25,26
 1063 491 1063 491 999 358 c 128,-1,27
 935 225 935 225 853.5 141 c 128,-1,28
 772 57 772 57 676.5 18.5 c 128,-1,29
 581 -20 581 -20 479 -20 c 0,30,31
 394 -20 394 -20 321 0 c 128,-1,32
 248 20 248 20 192 61.5 c 128,-1,33
 136 103 136 103 99 165 c 128,-1,34
 62 227 62 227 48 311 c 1,35,-1
 322 359 l 1,36,37
 336 284 336 284 378 243 c 128,-1,38
 420 202 420 202 498 202 c 0,39,40
 542 202 542 202 587.5 221.5 c 128,-1,41
 633 241 633 241 675.5 291.5 c 128,-1,42
 718 342 718 342 754.5 429.5 c 128,-1,43
 791 517 791 517 817 653 c 1,0,1
855 1009 m 0,44,45
 855 1051 855 1051 842.5 1087.5 c 128,-1,46
 830 1124 830 1124 806.5 1151.5 c 128,-1,47
 783 1179 783 1179 750.5 1194.5 c 128,-1,48
 718 1210 718 1210 678 1210 c 0,49,50
 624 1210 624 1210 579 1190 c 128,-1,51
 534 1170 534 1170 501.5 1130.5 c 128,-1,52
 469 1091 469 1091 450.5 1033 c 128,-1,53
 432 975 432 975 432 900 c 0,54,55
 432 855 432 855 445.5 819.5 c 128,-1,56
 459 784 459 784 482.5 759.5 c 128,-1,57
 506 735 506 735 539 722.5 c 128,-1,58
 572 710 572 710 611 710 c 0,59,60
 649 710 649 710 686.5 720.5 c 128,-1,61
 724 731 724 731 756 756 c 128,-1,62
 788 781 788 781 812 821 c 128,-1,63
 836 861 836 861 847 920 c 0,64,65
 851 944 851 944 853 966 c 128,-1,66
 855 988 855 988 855 1009 c 0,44,45
EndSplineSet
EndChar

StartChar: colon
Encoding: 58 58 29
Width: 682
Flags: W
LayerCount: 2
Fore
SplineSet
235 752 m 1,0,-1
 290 1034 l 1,1,-1
 578 1034 l 1,2,-1
 523 752 l 1,3,-1
 235 752 l 1,0,-1
89 0 m 1,4,-1
 144 281 l 1,5,-1
 432 281 l 1,6,-1
 377 0 l 1,7,-1
 89 0 l 1,4,-1
EndSplineSet
EndChar

StartChar: uni037E
Encoding: 894 894 30
AltUni2: 00003b.ffffffff.0 00003b.ffffffff.0 00003b.ffffffff.0 00003b.ffffffff.0 00003b.ffffffff.0
Width: 682
Flags: W
LayerCount: 2
Fore
SplineSet
235 752 m 1,0,-1
 290 1034 l 1,1,-1
 578 1034 l 1,2,-1
 523 752 l 1,3,-1
 235 752 l 1,0,-1
390 66 m 2,4,5
 377 -1 377 -1 359 -56 c 128,-1,6
 341 -111 341 -111 318 -157.5 c 128,-1,7
 295 -204 295 -204 267 -243 c 128,-1,8
 239 -282 239 -282 207 -317 c 1,9,-1
 23 -317 l 1,10,11
 58 -282 58 -282 90 -243 c 128,-1,12
 122 -204 122 -204 148 -163 c 128,-1,13
 174 -122 174 -122 192 -81 c 128,-1,14
 210 -40 210 -40 218 0 c 1,15,-1
 89 0 l 1,16,-1
 144 281 l 1,17,-1
 432 281 l 1,18,-1
 390 66 l 2,4,5
EndSplineSet
EndChar

StartChar: less
Encoding: 60 60 31
Width: 1196
Flags: W
LayerCount: 2
Fore
SplineSet
124 516 m 1,0,-1
 124 838 l 1,1,-1
 1151 1229 l 1,2,-1
 1151 1001 l 1,3,-1
 318 676 l 1,4,-1
 1151 352 l 1,5,-1
 1151 125 l 1,6,-1
 124 516 l 1,0,-1
EndSplineSet
EndChar

StartChar: equal
Encoding: 61 61 32
Width: 1196
Flags: W
LayerCount: 2
Fore
SplineSet
123 842 m 1,0,-1
 123 1065 l 1,1,-1
 1150 1065 l 1,2,-1
 1150 842 l 1,3,-1
 123 842 l 1,0,-1
123 291 m 1,4,-1
 123 512 l 1,5,-1
 1150 512 l 1,6,-1
 1150 291 l 1,7,-1
 123 291 l 1,4,-1
EndSplineSet
EndChar

StartChar: greater
Encoding: 62 62 33
Width: 1196
Flags: W
LayerCount: 2
Fore
SplineSet
124 125 m 1,0,-1
 124 352 l 1,1,-1
 956 676 l 1,2,-1
 124 1001 l 1,3,-1
 124 1229 l 1,4,-1
 1151 838 l 1,5,-1
 1151 516 l 1,6,-1
 124 125 l 1,0,-1
EndSplineSet
EndChar

StartChar: question
Encoding: 63 63 34
Width: 1251
Flags: W
LayerCount: 2
Fore
SplineSet
745 1430 m 0,0,1
 849 1430 849 1430 934.5 1406.5 c 128,-1,2
 1020 1383 1020 1383 1081 1338 c 128,-1,3
 1142 1293 1142 1293 1175.5 1227 c 128,-1,4
 1209 1161 1209 1161 1209 1075 c 256,5,6
 1209 989 1209 989 1176.5 923.5 c 128,-1,7
 1144 858 1144 858 1091.5 806 c 128,-1,8
 1039 754 1039 754 973.5 713 c 128,-1,9
 908 672 908 672 841 635 c 1,10,11
 807 613 807 613 777 592 c 128,-1,12
 747 571 747 571 724 547 c 128,-1,13
 701 523 701 523 686 494 c 128,-1,14
 671 465 671 465 666 426 c 1,15,-1
 399 426 l 1,16,17
 412 496 412 496 437.5 547.5 c 128,-1,18
 463 599 463 599 499.5 639.5 c 128,-1,19
 536 680 536 680 584 714 c 128,-1,20
 632 748 632 748 690 784 c 0,21,22
 759 827 759 827 804.5 860 c 128,-1,23
 850 893 850 893 877 923.5 c 128,-1,24
 904 954 904 954 915 985 c 128,-1,25
 926 1016 926 1016 926 1055 c 0,26,27
 926 1118 926 1118 878 1159.5 c 128,-1,28
 830 1201 830 1201 729 1201 c 0,29,30
 619 1201 619 1201 548 1154.5 c 128,-1,31
 477 1108 477 1108 450 1008 c 1,32,-1
 184 1048 l 1,33,34
 211 1136 211 1136 257 1206.5 c 128,-1,35
 303 1277 303 1277 372 1326.5 c 128,-1,36
 441 1376 441 1376 533.5 1403 c 128,-1,37
 626 1430 626 1430 745 1430 c 0,0,1
309 0 m 1,38,-1
 361 270 l 1,39,-1
 650 270 l 1,40,-1
 598 0 l 1,41,-1
 309 0 l 1,38,-1
EndSplineSet
EndChar

StartChar: at
Encoding: 64 64 35
Width: 1997
Flags: W
LayerCount: 2
Fore
SplineSet
1911 755 m 0,0,1
 1911 611 1911 611 1873 491.5 c 128,-1,2
 1835 372 1835 372 1769.5 286 c 128,-1,3
 1704 200 1704 200 1616.5 152 c 128,-1,4
 1529 104 1529 104 1430 104 c 0,5,6
 1388 104 1388 104 1352.5 114.5 c 128,-1,7
 1317 125 1317 125 1292 146.5 c 128,-1,8
 1267 168 1267 168 1253 200.5 c 128,-1,9
 1239 233 1239 233 1239 276 c 0,10,11
 1239 290 1239 290 1240.5 309 c 128,-1,12
 1242 328 1242 328 1245 343 c 1,13,-1
 1239 343 l 1,14,15
 1218 299 1218 299 1183 256 c 128,-1,16
 1148 213 1148 213 1102.5 179.5 c 128,-1,17
 1057 146 1057 146 1002.5 125 c 128,-1,18
 948 104 948 104 889 104 c 0,19,20
 794 104 794 104 730.5 138 c 128,-1,21
 667 172 667 172 629 227 c 128,-1,22
 591 282 591 282 575 351 c 128,-1,23
 559 420 559 420 559 489 c 0,24,25
 559 604 559 604 593 714 c 128,-1,26
 627 824 627 824 691 910 c 128,-1,27
 755 996 755 996 848 1048.5 c 128,-1,28
 941 1101 941 1101 1059 1101 c 0,29,30
 1161 1101 1161 1101 1226 1054.5 c 128,-1,31
 1291 1008 1291 1008 1323 927 c 1,32,-1
 1329 927 l 1,33,-1
 1368 1079 l 1,34,-1
 1524 1079 l 1,35,-1
 1407 573 l 1,36,37
 1390 494 1390 494 1380 432 c 128,-1,38
 1370 370 1370 370 1370 333 c 0,39,40
 1370 283 1370 283 1393.5 262 c 128,-1,41
 1417 241 1417 241 1448 241 c 0,42,43
 1507 241 1507 241 1562.5 279 c 128,-1,44
 1618 317 1618 317 1662 385 c 128,-1,45
 1706 453 1706 453 1732.5 547 c 128,-1,46
 1759 641 1759 641 1759 753 c 0,47,48
 1759 879 1759 879 1718 987 c 128,-1,49
 1677 1095 1677 1095 1597 1174 c 128,-1,50
 1517 1253 1517 1253 1399 1298 c 128,-1,51
 1281 1343 1281 1343 1127 1343 c 0,52,53
 994 1343 994 1343 882 1311.5 c 128,-1,54
 770 1280 770 1280 679.5 1223 c 128,-1,55
 589 1166 589 1166 520.5 1087 c 128,-1,56
 452 1008 452 1008 405.5 913.5 c 128,-1,57
 359 819 359 819 335.5 712 c 128,-1,58
 312 605 312 605 312 491 c 0,59,60
 312 404 312 404 329 322.5 c 128,-1,61
 346 241 346 241 380.5 170 c 128,-1,62
 415 99 415 99 467.5 40 c 128,-1,63
 520 -19 520 -19 591 -61 c 128,-1,64
 662 -103 662 -103 752.5 -126.5 c 128,-1,65
 843 -150 843 -150 953 -150 c 0,66,67
 1039 -150 1039 -150 1119 -138 c 128,-1,68
 1199 -126 1199 -126 1272.5 -105 c 128,-1,69
 1346 -84 1346 -84 1413.5 -55.5 c 128,-1,70
 1481 -27 1481 -27 1542 5 c 1,71,-1
 1604 -117 l 1,72,73
 1544 -151 1544 -151 1475 -183 c 128,-1,74
 1406 -215 1406 -215 1325 -239.5 c 128,-1,75
 1244 -264 1244 -264 1150 -279 c 128,-1,76
 1056 -294 1056 -294 946 -294 c 0,77,78
 816 -294 816 -294 706 -265.5 c 128,-1,79
 596 -237 596 -237 507.5 -185.5 c 128,-1,80
 419 -134 419 -134 352 -62 c 128,-1,81
 285 10 285 10 240 97 c 128,-1,82
 195 184 195 184 172.5 284 c 128,-1,83
 150 384 150 384 150 491 c 0,84,85
 150 630 150 630 181.5 758 c 128,-1,86
 213 886 213 886 272.5 996 c 128,-1,87
 332 1106 332 1106 417.5 1196 c 128,-1,88
 503 1286 503 1286 611.5 1350 c 128,-1,89
 720 1414 720 1414 849.5 1449 c 128,-1,90
 979 1484 979 1484 1125 1484 c 0,91,92
 1328 1484 1328 1484 1476.5 1425 c 128,-1,93
 1625 1366 1625 1366 1721.5 1266 c 128,-1,94
 1818 1166 1818 1166 1864.5 1034 c 128,-1,95
 1911 902 1911 902 1911 755 c 0,0,1
1264 751 m 0,96,97
 1264 798 1264 798 1248.5 837.5 c 128,-1,98
 1233 877 1233 877 1205 905.5 c 128,-1,99
 1177 934 1177 934 1138 950 c 128,-1,100
 1099 966 1099 966 1051 966 c 0,101,102
 996 966 996 966 950 945.5 c 128,-1,103
 904 925 904 925 868 890 c 128,-1,104
 832 855 832 855 805 808.5 c 128,-1,105
 778 762 778 762 760.5 709 c 128,-1,106
 743 656 743 656 734 600 c 128,-1,107
 725 544 725 544 725 491 c 0,108,109
 725 377 725 377 773.5 311 c 128,-1,110
 822 245 822 245 922 245 c 0,111,112
 970 245 970 245 1017.5 268 c 128,-1,113
 1065 291 1065 291 1107 335.5 c 128,-1,114
 1149 380 1149 380 1183.5 445.5 c 128,-1,115
 1218 511 1218 511 1239 595 c 0,116,117
 1244 613 1244 613 1248.5 634.5 c 128,-1,118
 1253 656 1253 656 1256.5 677 c 128,-1,119
 1260 698 1260 698 1262 717 c 128,-1,120
 1264 736 1264 736 1264 751 c 0,96,97
EndSplineSet
EndChar

StartChar: A
Encoding: 65 65 36
Width: 1479
Flags: W
LayerCount: 2
Fore
SplineSet
1039 0 m 1,0,-1
 984 360 l 1,1,-1
 447 360 l 1,2,-1
 252 0 l 1,3,-1
 -42 0 l 1,4,-1
 745 1409 l 1,5,-1
 1093 1409 l 1,6,-1
 1331 0 l 1,7,-1
 1039 0 l 1,0,-1
894 1034 m 2,8,9
 892 1049 892 1049 889 1071.5 c 128,-1,10
 886 1094 886 1094 883 1117.5 c 128,-1,11
 880 1141 880 1141 878 1161.5 c 128,-1,12
 876 1182 876 1182 876 1192 c 1,13,14
 872 1180 872 1180 861.5 1155.5 c 128,-1,15
 851 1131 851 1131 837.5 1101 c 128,-1,16
 824 1071 824 1071 808 1039 c 128,-1,17
 792 1007 792 1007 778 980 c 2,18,-1
 566 582 l 1,19,-1
 961 582 l 1,20,-1
 894 1034 l 2,8,9
EndSplineSet
EndChar

StartChar: B
Encoding: 66 66 37
Width: 1479
Flags: W
LayerCount: 2
Fore
SplineSet
310 1409 m 1,0,-1
 894 1409 l 2,1,2
 1025 1409 1025 1409 1120.5 1387 c 128,-1,3
 1216 1365 1216 1365 1279 1323 c 128,-1,4
 1342 1281 1342 1281 1372.5 1220.5 c 128,-1,5
 1403 1160 1403 1160 1403 1083 c 0,6,7
 1403 1010 1403 1010 1380 952.5 c 128,-1,8
 1357 895 1357 895 1314.5 852.5 c 128,-1,9
 1272 810 1272 810 1212 781.5 c 128,-1,10
 1152 753 1152 753 1079 738 c 1,11,12
 1150 726 1150 726 1204 698 c 128,-1,13
 1258 670 1258 670 1294.5 629.5 c 128,-1,14
 1331 589 1331 589 1349.5 538.5 c 128,-1,15
 1368 488 1368 488 1368 431 c 0,16,17
 1368 306 1368 306 1317.5 223 c 128,-1,18
 1267 140 1267 140 1181.5 90.5 c 128,-1,19
 1096 41 1096 41 982 20.5 c 128,-1,20
 868 0 868 0 741 0 c 2,21,-1
 36 0 l 1,22,-1
 310 1409 l 1,0,-1
494 841 m 1,23,-1
 788 841 l 2,24,25
 875 841 875 841 936.5 852 c 128,-1,26
 998 863 998 863 1036.5 887 c 128,-1,27
 1075 911 1075 911 1092.5 948.5 c 128,-1,28
 1110 986 1110 986 1110 1038 c 0,29,30
 1110 1082 1110 1082 1093.5 1111.5 c 128,-1,31
 1077 1141 1077 1141 1045.5 1158.5 c 128,-1,32
 1014 1176 1014 1176 967.5 1183 c 128,-1,33
 921 1190 921 1190 862 1190 c 2,34,-1
 561 1190 l 1,35,-1
 494 841 l 1,23,-1
373 219 m 1,36,-1
 701 219 l 2,37,38
 796 219 796 219 866 229 c 128,-1,39
 936 239 936 239 981.5 264 c 128,-1,40
 1027 289 1027 289 1049.5 331 c 128,-1,41
 1072 373 1072 373 1072 437 c 0,42,43
 1072 527 1072 527 1004 575 c 128,-1,44
 936 623 936 623 782 623 c 2,45,-1
 452 623 l 1,46,-1
 373 219 l 1,36,-1
EndSplineSet
EndChar

StartChar: C
Encoding: 67 67 38
Width: 1479
Flags: W
LayerCount: 2
Fore
SplineSet
401 573 m 0,0,1
 401 489 401 489 422 422 c 128,-1,2
 443 355 443 355 484.5 308 c 128,-1,3
 526 261 526 261 587.5 236 c 128,-1,4
 649 211 649 211 731 211 c 0,5,6
 809 211 809 211 873 232 c 128,-1,7
 937 253 937 253 988.5 289 c 128,-1,8
 1040 325 1040 325 1079.5 371.5 c 128,-1,9
 1119 418 1119 418 1149 469 c 1,10,-1
 1376 352 l 1,11,12
 1333 276 1333 276 1273 208 c 128,-1,13
 1213 140 1213 140 1132 89.5 c 128,-1,14
 1051 39 1051 39 947 9.5 c 128,-1,15
 843 -20 843 -20 711 -20 c 0,16,17
 554 -20 554 -20 438.5 26 c 128,-1,18
 323 72 323 72 248 151.5 c 128,-1,19
 173 231 173 231 136.5 338.5 c 128,-1,20
 100 446 100 446 100 569 c 0,21,22
 100 693 100 693 126 805 c 128,-1,23
 152 917 152 917 201.5 1012.5 c 128,-1,24
 251 1108 251 1108 323 1185.5 c 128,-1,25
 395 1263 395 1263 487 1317 c 128,-1,26
 579 1371 579 1371 689.5 1400.5 c 128,-1,27
 800 1430 800 1430 927 1430 c 0,28,29
 1064 1430 1064 1430 1163.5 1398 c 128,-1,30
 1263 1366 1263 1366 1332 1312 c 128,-1,31
 1401 1258 1401 1258 1442 1187 c 128,-1,32
 1483 1116 1483 1116 1503 1038 c 1,33,-1
 1229 967 l 1,34,35
 1217 1011 1217 1011 1192.5 1052.5 c 128,-1,36
 1168 1094 1168 1094 1130 1126.5 c 128,-1,37
 1092 1159 1092 1159 1039 1178.5 c 128,-1,38
 986 1198 986 1198 918 1198 c 0,39,40
 792 1198 792 1198 695.5 1152.5 c 128,-1,41
 599 1107 599 1107 533.5 1024.5 c 128,-1,42
 468 942 468 942 434.5 827 c 128,-1,43
 401 712 401 712 401 573 c 0,0,1
EndSplineSet
EndChar

StartChar: D
Encoding: 68 68 39
Width: 1479
Flags: W
LayerCount: 2
Fore
SplineSet
734 1409 m 2,0,1
 897 1409 897 1409 1024.5 1371 c 128,-1,2
 1152 1333 1152 1333 1240 1257.5 c 128,-1,3
 1328 1182 1328 1182 1374.5 1069.5 c 128,-1,4
 1421 957 1421 957 1421 807 c 0,5,6
 1421 674 1421 674 1390.5 562.5 c 128,-1,7
 1360 451 1360 451 1305.5 361.5 c 128,-1,8
 1251 272 1251 272 1175.5 204.5 c 128,-1,9
 1100 137 1100 137 1010.5 91.5 c 128,-1,10
 921 46 921 46 820 23 c 128,-1,11
 719 0 719 0 614 0 c 2,12,-1
 36 0 l 1,13,-1
 310 1409 l 1,14,-1
 734 1409 l 2,0,1
375 228 m 1,15,-1
 605 228 l 2,16,17
 721 228 721 228 820 265 c 128,-1,18
 919 302 919 302 991 373.5 c 128,-1,19
 1063 445 1063 445 1104 550.5 c 128,-1,20
 1145 656 1145 656 1145 794 c 0,21,22
 1145 892 1145 892 1117 964.5 c 128,-1,23
 1089 1037 1089 1037 1036.5 1085 c 128,-1,24
 984 1133 984 1133 908 1157 c 128,-1,25
 832 1181 832 1181 736 1181 c 2,26,-1
 560 1181 l 1,27,-1
 375 228 l 1,15,-1
EndSplineSet
EndChar

StartChar: E
Encoding: 69 69 40
Width: 1366
Flags: W
LayerCount: 2
Fore
SplineSet
36 0 m 1,0,-1
 309 1409 l 1,1,-1
 1417 1409 l 1,2,-1
 1373 1181 l 1,3,-1
 560 1181 l 1,4,-1
 491 827 l 1,5,-1
 1243 827 l 1,6,-1
 1199 599 l 1,7,-1
 447 599 l 1,8,-1
 375 228 l 1,9,-1
 1229 228 l 1,10,-1
 1184 0 l 1,11,-1
 36 0 l 1,0,-1
EndSplineSet
EndChar

StartChar: F
Encoding: 70 70 41
Width: 1251
Flags: W
LayerCount: 2
Fore
SplineSet
560 1181 m 1,0,-1
 475 745 l 1,1,-1
 1143 745 l 1,2,-1
 1099 517 l 1,3,-1
 431 517 l 1,4,-1
 330 0 l 1,5,-1
 36 0 l 1,6,-1
 309 1409 l 1,7,-1
 1295 1409 l 1,8,-1
 1251 1181 l 1,9,-1
 560 1181 l 1,0,-1
EndSplineSet
EndChar

StartChar: G
Encoding: 71 71 42
Width: 1593
Flags: W
LayerCount: 2
Fore
SplineSet
1400 175 m 1,0,1
 1333 129 1333 129 1262.5 92.5 c 128,-1,2
 1192 56 1192 56 1112 31.5 c 128,-1,3
 1032 7 1032 7 940.5 -6 c 128,-1,4
 849 -19 849 -19 740 -19 c 0,5,6
 578 -19 578 -19 457.5 26.5 c 128,-1,7
 337 72 337 72 257.5 152 c 128,-1,8
 178 232 178 232 139 342.5 c 128,-1,9
 100 453 100 453 100 583 c 0,10,11
 100 771 100 771 159 927 c 128,-1,12
 218 1083 218 1083 327.5 1195 c 128,-1,13
 437 1307 437 1307 593 1368.5 c 128,-1,14
 749 1430 749 1430 942 1430 c 0,15,16
 1073 1430 1073 1430 1173 1398 c 128,-1,17
 1273 1366 1273 1366 1345 1312 c 128,-1,18
 1417 1258 1417 1258 1462.5 1187.5 c 128,-1,19
 1508 1117 1508 1117 1530 1039 c 1,20,-1
 1248 961 l 1,21,22
 1236 1007 1236 1007 1211.5 1050 c 128,-1,23
 1187 1093 1187 1093 1148 1126 c 128,-1,24
 1109 1159 1109 1159 1054 1178.5 c 128,-1,25
 999 1198 999 1198 926 1198 c 0,26,27
 799 1198 799 1198 700.5 1152 c 128,-1,28
 602 1106 602 1106 535 1025 c 128,-1,29
 468 944 468 944 433.5 833 c 128,-1,30
 399 722 399 722 399 592 c 0,31,32
 399 515 399 515 419.5 446 c 128,-1,33
 440 377 440 377 484 324.5 c 128,-1,34
 528 272 528 272 597.5 241.5 c 128,-1,35
 667 211 667 211 764 211 c 0,36,37
 826 211 826 211 882 219 c 128,-1,38
 938 227 938 227 987 240.5 c 128,-1,39
 1036 254 1036 254 1076.5 271 c 128,-1,40
 1117 288 1117 288 1148 307 c 1,41,-1
 1194 535 l 1,42,-1
 852 535 l 1,43,-1
 891 743 l 1,44,-1
 1505 743 l 1,45,-1
 1400 175 l 1,0,1
EndSplineSet
EndChar

StartChar: H
Encoding: 72 72 43
Width: 1479
Flags: W
LayerCount: 2
Fore
SplineSet
956 0 m 1,0,-1
 1074 604 l 1,1,-1
 448 604 l 1,2,-1
 330 0 l 1,3,-1
 36 0 l 1,4,-1
 309 1409 l 1,5,-1
 604 1409 l 1,6,-1
 495 848 l 1,7,-1
 1121 848 l 1,8,-1
 1230 1409 l 1,9,-1
 1514 1409 l 1,10,-1
 1240 0 l 1,11,-1
 956 0 l 1,0,-1
EndSplineSet
EndChar

StartChar: I
Encoding: 73 73 44
Width: 569
Flags: W
LayerCount: 2
Fore
SplineSet
36 0 m 1,0,-1
 309 1409 l 1,1,-1
 604 1409 l 1,2,-1
 330 0 l 1,3,-1
 36 0 l 1,0,-1
EndSplineSet
EndChar

StartChar: J
Encoding: 74 74 45
Width: 1139
Flags: W
LayerCount: 2
Fore
SplineSet
480 -20 m 0,0,1
 375 -20 375 -20 297 8 c 128,-1,2
 219 36 219 36 164 87.5 c 128,-1,3
 109 139 109 139 75.5 213 c 128,-1,4
 42 287 42 287 25 379 c 1,5,-1
 292 437 l 1,6,7
 302 388 302 388 318.5 346.5 c 128,-1,8
 335 305 335 305 359.5 275 c 128,-1,9
 384 245 384 245 418.5 228 c 128,-1,10
 453 211 453 211 499 211 c 0,11,12
 549 211 549 211 582 230 c 128,-1,13
 615 249 615 249 637 280.5 c 128,-1,14
 659 312 659 312 671.5 353.5 c 128,-1,15
 684 395 684 395 693 440 c 2,16,-1
 836 1178 l 1,17,-1
 555 1178 l 1,18,-1
 599 1409 l 1,19,-1
 1174 1409 l 1,20,-1
 981 423 l 2,21,22
 960 314 960 314 922 231.5 c 128,-1,23
 884 149 884 149 824 93 c 128,-1,24
 764 37 764 37 679.5 8.5 c 128,-1,25
 595 -20 595 -20 480 -20 c 0,0,1
EndSplineSet
EndChar

StartChar: K
Encoding: 75 75 46
Width: 1479
Flags: W
LayerCount: 2
Fore
SplineSet
995 0 m 1,0,-1
 640 640 l 1,1,-1
 429 517 l 1,2,-1
 328 0 l 1,3,-1
 36 0 l 1,4,-1
 309 1409 l 1,5,-1
 604 1409 l 1,6,-1
 474 770 l 1,7,-1
 1234 1409 l 1,8,-1
 1603 1409 l 1,9,-1
 856 793 l 1,10,-1
 1321 0 l 1,11,-1
 995 0 l 1,0,-1
EndSplineSet
EndChar

StartChar: L
Encoding: 76 76 47
Width: 1251
Flags: W
LayerCount: 2
Fore
SplineSet
36 0 m 1,0,-1
 309 1409 l 1,1,-1
 604 1409 l 1,2,-1
 375 228 l 1,3,-1
 1131 228 l 1,4,-1
 1086 0 l 1,5,-1
 36 0 l 1,0,-1
EndSplineSet
EndChar

StartChar: M
Encoding: 77 77 48
Width: 1706
Flags: W
LayerCount: 2
Fore
SplineSet
1206 0 m 1,0,-1
 1378 884 l 2,1,2
 1389 939 1389 939 1402 995.5 c 128,-1,3
 1415 1052 1415 1052 1426 1099 c 0,4,5
 1439 1154 1439 1154 1452 1206 c 1,6,7
 1416 1128 1416 1128 1383 1055 c 0,8,9
 1369 1024 1369 1024 1353.5 991 c 128,-1,10
 1338 958 1338 958 1323 926.5 c 128,-1,11
 1308 895 1308 895 1294.5 866.5 c 128,-1,12
 1281 838 1281 838 1269 816 c 2,13,-1
 857 0 l 1,14,-1
 647 0 l 1,15,-1
 553 819 l 2,16,17
 551 838 551 838 548 864.5 c 128,-1,18
 545 891 545 891 541.5 922 c 128,-1,19
 538 953 538 953 534.5 986 c 128,-1,20
 531 1019 531 1019 528 1050 c 0,21,22
 521 1124 521 1124 513 1206 c 1,23,24
 506 1145 506 1145 499 1086 c 0,25,26
 496 1061 496 1061 492.5 1034 c 128,-1,27
 489 1007 489 1007 485.5 981 c 128,-1,28
 482 955 482 955 478 931 c 128,-1,29
 474 907 474 907 470 887 c 2,30,-1
 298 0 l 1,31,-1
 36 0 l 1,32,-1
 310 1409 l 1,33,-1
 705 1409 l 1,34,-1
 793 621 l 2,35,36
 797 590 797 590 801 543.5 c 128,-1,37
 805 497 805 497 809 452 c 0,38,39
 813 400 813 400 818 345 c 1,40,41
 843 400 843 400 867 451 c 0,42,43
 887 495 887 495 909.5 540.5 c 128,-1,44
 932 586 932 586 947 616 c 2,45,-1
 1349 1409 l 1,46,-1
 1742 1409 l 1,47,-1
 1468 0 l 1,48,-1
 1206 0 l 1,0,-1
EndSplineSet
EndChar

StartChar: N
Encoding: 78 78 49
Width: 1479
Flags: W
LayerCount: 2
Fore
SplineSet
884 0 m 1,0,-1
 510 1131 l 1,1,2
 504 1088 504 1088 498 1046 c 0,3,4
 493 1010 493 1010 486 968.5 c 128,-1,5
 479 927 479 927 472 892 c 2,6,-1
 298 0 l 1,7,-1
 36 0 l 1,8,-1
 310 1409 l 1,9,-1
 660 1409 l 1,10,-1
 1037 268 l 1,11,12
 1043 307 1043 307 1049 350 c 0,13,14
 1054 387 1054 387 1061.5 432.5 c 128,-1,15
 1069 478 1069 478 1078 524 c 2,16,-1
 1252 1409 l 1,17,-1
 1514 1409 l 1,18,-1
 1240 0 l 1,19,-1
 884 0 l 1,0,-1
EndSplineSet
EndChar

StartChar: O
Encoding: 79 79 50
Width: 1593
Flags: W
LayerCount: 2
Fore
SplineSet
928 1430 m 0,0,1
 1076 1430 1076 1430 1193 1389.5 c 128,-1,2
 1310 1349 1310 1349 1391.5 1273.5 c 128,-1,3
 1473 1198 1473 1198 1516 1091 c 128,-1,4
 1559 984 1559 984 1559 851 c 0,5,6
 1559 802 1559 802 1554 749.5 c 128,-1,7
 1549 697 1549 697 1539 649 c 0,8,9
 1508 495 1508 495 1437.5 371.5 c 128,-1,10
 1367 248 1367 248 1263 161 c 128,-1,11
 1159 74 1159 74 1023.5 27 c 128,-1,12
 888 -20 888 -20 727 -20 c 0,13,14
 574 -20 574 -20 457 23.5 c 128,-1,15
 340 67 340 67 260.5 145.5 c 128,-1,16
 181 224 181 224 140.5 333 c 128,-1,17
 100 442 100 442 100 573 c 0,18,19
 100 619 100 619 104.5 667 c 128,-1,20
 109 715 109 715 119 764 c 0,21,22
 150 914 150 914 219 1037 c 128,-1,23
 288 1160 288 1160 391 1247.5 c 128,-1,24
 494 1335 494 1335 629.5 1382.5 c 128,-1,25
 765 1430 765 1430 928 1430 c 0,0,1
914 1197 m 0,26,27
 807 1197 807 1197 723 1165 c 128,-1,28
 639 1133 639 1133 577.5 1073 c 128,-1,29
 516 1013 516 1013 475 925.5 c 128,-1,30
 434 838 434 838 413 727 c 0,31,32
 406 690 406 690 403 652.5 c 128,-1,33
 400 615 400 615 400 581 c 0,34,35
 400 397 400 397 490 304.5 c 128,-1,36
 580 212 580 212 741 212 c 0,37,38
 849 212 849 212 933 244.5 c 128,-1,39
 1017 277 1017 277 1079 338 c 128,-1,40
 1141 399 1141 399 1181.5 485.5 c 128,-1,41
 1222 572 1222 572 1243 680 c 0,42,43
 1250 716 1250 716 1252.5 757 c 128,-1,44
 1255 798 1255 798 1255 827 c 0,45,46
 1255 920 1255 920 1231 989 c 128,-1,47
 1207 1058 1207 1058 1163 1104.5 c 128,-1,48
 1119 1151 1119 1151 1055.5 1174 c 128,-1,49
 992 1197 992 1197 914 1197 c 0,26,27
EndSplineSet
EndChar

StartChar: P
Encoding: 80 80 51
Width: 1366
Flags: W
LayerCount: 2
Fore
SplineSet
850 1409 m 2,0,1
 974 1409 974 1409 1070.5 1380 c 128,-1,2
 1167 1351 1167 1351 1233.5 1296 c 128,-1,3
 1300 1241 1300 1241 1334.5 1163 c 128,-1,4
 1369 1085 1369 1085 1369 987 c 0,5,6
 1369 873 1369 873 1328.5 782 c 128,-1,7
 1288 691 1288 691 1214 627.5 c 128,-1,8
 1140 564 1140 564 1036 530 c 128,-1,9
 932 496 932 496 805 496 c 2,10,-1
 428 496 l 1,11,-1
 330 0 l 1,12,-1
 36 0 l 1,13,-1
 309 1409 l 1,14,-1
 850 1409 l 2,0,1
471 723 m 1,15,-1
 760 723 l 2,16,17
 915 723 915 723 992.5 781 c 128,-1,18
 1070 839 1070 839 1070 971 c 0,19,20
 1070 1026 1070 1026 1052 1065.5 c 128,-1,21
 1034 1105 1034 1105 1001 1130.5 c 128,-1,22
 968 1156 968 1156 922.5 1168 c 128,-1,23
 877 1180 877 1180 822 1180 c 2,24,-1
 560 1180 l 1,25,-1
 471 723 l 1,15,-1
EndSplineSet
EndChar

StartChar: Q
Encoding: 81 81 52
Width: 1593
Flags: W
LayerCount: 2
Fore
SplineSet
928 1430 m 0,0,1
 1076 1430 1076 1430 1193 1389.5 c 128,-1,2
 1310 1349 1310 1349 1391.5 1273.5 c 128,-1,3
 1473 1198 1473 1198 1516 1091 c 128,-1,4
 1559 984 1559 984 1559 851 c 0,5,6
 1559 802 1559 802 1554 749.5 c 128,-1,7
 1549 697 1549 697 1539 649 c 0,8,9
 1512 514 1512 514 1454.5 402.5 c 128,-1,10
 1397 291 1397 291 1313 206.5 c 128,-1,11
 1229 122 1229 122 1120.5 67.5 c 128,-1,12
 1012 13 1012 13 882 -8 c 1,13,14
 901 -106 901 -106 946.5 -150 c 128,-1,15
 992 -194 992 -194 1081 -194 c 0,16,17
 1098 -194 1098 -194 1118 -193 c 128,-1,18
 1138 -192 1138 -192 1158 -190 c 128,-1,19
 1178 -188 1178 -188 1197 -185.5 c 128,-1,20
 1216 -183 1216 -183 1231 -180 c 1,21,-1
 1186 -375 l 1,22,23
 1157 -385 1157 -385 1111.5 -392.5 c 128,-1,24
 1066 -400 1066 -400 1017 -400 c 0,25,26
 906 -400 906 -400 828 -372 c 128,-1,27
 750 -344 750 -344 699 -292.5 c 128,-1,28
 648 -241 648 -241 621 -169 c 128,-1,29
 594 -97 594 -97 584 -9 c 1,30,31
 466 10 466 10 375.5 60.5 c 128,-1,32
 285 111 285 111 223.5 186.5 c 128,-1,33
 162 262 162 262 131 360 c 128,-1,34
 100 458 100 458 100 573 c 0,35,36
 100 619 100 619 104.5 667 c 128,-1,37
 109 715 109 715 119 764 c 0,38,39
 150 914 150 914 219 1037 c 128,-1,40
 288 1160 288 1160 391 1247.5 c 128,-1,41
 494 1335 494 1335 629.5 1382.5 c 128,-1,42
 765 1430 765 1430 928 1430 c 0,0,1
914 1197 m 0,43,44
 807 1197 807 1197 723 1165 c 128,-1,45
 639 1133 639 1133 577.5 1073 c 128,-1,46
 516 1013 516 1013 475 925.5 c 128,-1,47
 434 838 434 838 413 727 c 0,48,49
 406 690 406 690 403 652.5 c 128,-1,50
 400 615 400 615 400 581 c 0,51,52
 400 397 400 397 490 304.5 c 128,-1,53
 580 212 580 212 741 212 c 0,54,55
 849 212 849 212 933 244.5 c 128,-1,56
 1017 277 1017 277 1079 338 c 128,-1,57
 1141 399 1141 399 1181.5 485.5 c 128,-1,58
 1222 572 1222 572 1243 680 c 0,59,60
 1250 716 1250 716 1252.5 757 c 128,-1,61
 1255 798 1255 798 1255 827 c 0,62,63
 1255 920 1255 920 1231 989 c 128,-1,64
 1207 1058 1207 1058 1163 1104.5 c 128,-1,65
 1119 1151 1119 1151 1055.5 1174 c 128,-1,66
 992 1197 992 1197 914 1197 c 0,43,44
EndSplineSet
EndChar

StartChar: R
Encoding: 82 82 53
Width: 1479
Flags: W
LayerCount: 2
Fore
SplineSet
1010 0 m 1,0,-1
 780 534 l 1,1,-1
 434 534 l 1,2,-1
 331 0 l 1,3,-1
 36 0 l 1,4,-1
 310 1409 l 1,5,-1
 961 1409 l 2,6,7
 1096 1409 1096 1409 1192 1376 c 128,-1,8
 1288 1343 1288 1343 1348.5 1287.5 c 128,-1,9
 1409 1232 1409 1232 1437 1159 c 128,-1,10
 1465 1086 1465 1086 1465 1006 c 0,11,12
 1465 912 1465 912 1431.5 838.5 c 128,-1,13
 1398 765 1398 765 1342.5 712 c 128,-1,14
 1287 659 1287 659 1214 627 c 128,-1,15
 1141 595 1141 595 1062 583 c 1,16,-1
 1336 0 l 1,17,-1
 1010 0 l 1,0,-1
872 764 m 2,18,19
 939 764 939 764 993 777 c 128,-1,20
 1047 790 1047 790 1085.5 818 c 128,-1,21
 1124 846 1124 846 1145 888.5 c 128,-1,22
 1166 931 1166 931 1166 989 c 0,23,24
 1166 1041 1166 1041 1147 1077.5 c 128,-1,25
 1128 1114 1128 1114 1095 1136.5 c 128,-1,26
 1062 1159 1062 1159 1018 1169.5 c 128,-1,27
 974 1180 974 1180 924 1180 c 2,28,-1
 560 1180 l 1,29,-1
 479 764 l 1,30,-1
 872 764 l 2,18,19
EndSplineSet
EndChar

StartChar: S
Encoding: 83 83 54
Width: 1366
Flags: W
LayerCount: 2
Fore
SplineSet
600 -20 m 0,0,1
 465 -20 465 -20 363 4 c 128,-1,2
 261 28 261 28 190.5 76.5 c 128,-1,3
 120 125 120 125 79.5 197 c 128,-1,4
 39 269 39 269 25 365 c 1,5,-1
 314 414 l 1,6,7
 324 360 324 360 346 320 c 128,-1,8
 368 280 368 280 405 253.5 c 128,-1,9
 442 227 442 227 495 214 c 128,-1,10
 548 201 548 201 620 201 c 0,11,12
 696 201 696 201 759.5 211 c 128,-1,13
 823 221 823 221 868.5 244.5 c 128,-1,14
 914 268 914 268 939.5 306 c 128,-1,15
 965 344 965 344 965 400 c 0,16,17
 965 447 965 447 946 480 c 128,-1,18
 927 513 927 513 889.5 537 c 128,-1,19
 852 561 852 561 796.5 580 c 128,-1,20
 741 599 741 599 667 618 c 0,21,22
 573 643 573 643 490.5 674 c 128,-1,23
 408 705 408 705 346.5 752.5 c 128,-1,24
 285 800 285 800 249 868.5 c 128,-1,25
 213 937 213 937 213 1037 c 0,26,27
 213 1132 213 1132 258 1205.5 c 128,-1,28
 303 1279 303 1279 380.5 1329 c 128,-1,29
 458 1379 458 1379 562.5 1404.5 c 128,-1,30
 667 1430 667 1430 786 1430 c 0,31,32
 915 1430 915 1430 1012.5 1405.5 c 128,-1,33
 1110 1381 1110 1381 1179 1336.5 c 128,-1,34
 1248 1292 1248 1292 1289 1229.5 c 128,-1,35
 1330 1167 1330 1167 1345 1091 c 1,36,-1
 1057 1024 l 1,37,38
 1035 1114 1035 1114 961.5 1167.5 c 128,-1,39
 888 1221 888 1221 770 1221 c 0,40,41
 704 1221 704 1221 654.5 1208 c 128,-1,42
 605 1195 605 1195 571.5 1172 c 128,-1,43
 538 1149 538 1149 521 1117 c 128,-1,44
 504 1085 504 1085 504 1047 c 0,45,46
 504 1002 504 1002 526.5 971.5 c 128,-1,47
 549 941 549 941 588.5 919 c 128,-1,48
 628 897 628 897 683 880 c 128,-1,49
 738 863 738 863 804 845 c 0,50,51
 855 831 855 831 908.5 814.5 c 128,-1,52
 962 798 962 798 1012 775.5 c 128,-1,53
 1062 753 1062 753 1106 722.5 c 128,-1,54
 1150 692 1150 692 1183 649.5 c 128,-1,55
 1216 607 1216 607 1235 551.5 c 128,-1,56
 1254 496 1254 496 1254 423 c 0,57,58
 1254 318 1254 318 1214 236 c 128,-1,59
 1174 154 1174 154 1093 97 c 128,-1,60
 1012 40 1012 40 889 10 c 128,-1,61
 766 -20 766 -20 600 -20 c 0,0,1
EndSplineSet
EndChar

StartChar: T
Encoding: 84 84 55
Width: 1251
Flags: W
LayerCount: 2
Fore
SplineSet
895 1181 m 1,0,-1
 665 0 l 1,1,-1
 370 0 l 1,2,-1
 600 1181 l 1,3,-1
 145 1181 l 1,4,-1
 189 1409 l 1,5,-1
 1395 1409 l 1,6,-1
 1351 1181 l 1,7,-1
 895 1181 l 1,0,-1
EndSplineSet
EndChar

StartChar: U
Encoding: 85 85 56
Width: 1479
Flags: W
LayerCount: 2
Fore
SplineSet
688 211 m 0,0,1
 767 211 767 211 828 228 c 128,-1,2
 889 245 889 245 934.5 284 c 128,-1,3
 980 323 980 323 1010 386 c 128,-1,4
 1040 449 1040 449 1058 541 c 2,5,-1
 1226 1409 l 1,6,-1
 1521 1409 l 1,7,-1
 1350 530 l 2,8,9
 1322 388 1322 388 1267 284.5 c 128,-1,10
 1212 181 1212 181 1128.5 113.5 c 128,-1,11
 1045 46 1045 46 931.5 13 c 128,-1,12
 818 -20 818 -20 672 -20 c 0,13,14
 543 -20 543 -20 440 9.5 c 128,-1,15
 337 39 337 39 266 96 c 128,-1,16
 195 153 195 153 157 237.5 c 128,-1,17
 119 322 119 322 119 431 c 0,18,19
 119 452 119 452 121 479.5 c 128,-1,20
 123 507 123 507 126.5 535 c 128,-1,21
 130 563 130 563 134 589.5 c 128,-1,22
 138 616 138 616 142 635 c 2,23,-1
 290 1409 l 1,24,-1
 585 1409 l 1,25,-1
 432 599 l 2,26,27
 425 565 425 565 419.5 517.5 c 128,-1,28
 414 470 414 470 414 427 c 0,29,30
 414 373 414 373 434 332.5 c 128,-1,31
 454 292 454 292 490.5 265 c 128,-1,32
 527 238 527 238 577.5 224.5 c 128,-1,33
 628 211 628 211 688 211 c 0,0,1
EndSplineSet
EndChar

StartChar: V
Encoding: 86 86 57
Width: 1366
Flags: W
LayerCount: 2
Fore
SplineSet
737 0 m 1,0,-1
 398 0 l 1,1,-1
 171 1409 l 1,2,-1
 476 1409 l 1,3,-1
 590 504 l 2,4,5
 595 459 595 459 599 412 c 128,-1,6
 603 365 603 365 606 326 c 0,7,8
 610 280 610 280 612 238 c 1,9,10
 630 279 630 279 650 324 c 0,11,12
 667 362 667 362 689.5 409.5 c 128,-1,13
 712 457 712 457 736 504 c 2,14,-1
 1201 1409 l 1,15,-1
 1509 1409 l 1,16,-1
 737 0 l 1,0,-1
EndSplineSet
EndChar

StartChar: W
Encoding: 87 87 58
Width: 1933
Flags: W
LayerCount: 2
Fore
SplineSet
1441 0 m 1,0,-1
 1091 0 l 1,1,-1
 1064 812 l 2,2,3
 1064 823 1064 823 1063 858.5 c 128,-1,4
 1062 894 1062 894 1061 939 c 128,-1,5
 1060 984 1060 984 1059.5 1032 c 128,-1,6
 1059 1080 1059 1080 1059 1116 c 1,7,8
 1037 1057 1037 1057 1016 1001 c 0,9,10
 1007 977 1007 977 997 951.5 c 128,-1,11
 987 926 987 926 977.5 901.5 c 128,-1,12
 968 877 968 877 959 855 c 128,-1,13
 950 833 950 833 942 815 c 2,14,-1
 594 0 l 1,15,-1
 239 0 l 1,16,-1
 150 1409 l 1,17,-1
 430 1409 l 1,18,-1
 466 594 l 2,19,20
 468 546 468 546 469.5 486.5 c 128,-1,21
 471 427 471 427 472 373 c 0,22,23
 473 311 473 311 473 248 c 1,24,25
 502 322 502 322 530 392 c 0,26,27
 542 422 542 422 555 454 c 128,-1,28
 568 486 568 486 581 517 c 128,-1,29
 594 548 594 548 605.5 576.5 c 128,-1,30
 617 605 617 605 627 628 c 2,31,-1
 961 1409 l 1,32,-1
 1277 1409 l 1,33,-1
 1309 514 l 2,34,35
 1311 472 1311 472 1312.5 426 c 128,-1,36
 1314 380 1314 380 1316 340 c 0,37,38
 1318 293 1318 293 1319 248 c 1,39,40
 1340 305 1340 305 1363 365 c 0,41,42
 1383 416 1383 416 1407 477 c 128,-1,43
 1431 538 1431 538 1454 595 c 2,44,-1
 1788 1409 l 1,45,-1
 2079 1409 l 1,46,-1
 1441 0 l 1,0,-1
EndSplineSet
EndChar

StartChar: X
Encoding: 88 88 59
Width: 1366
Flags: W
LayerCount: 2
Fore
SplineSet
220 1409 m 1,0,-1
 529 1409 l 1,1,-1
 753 938 l 1,2,-1
 1155 1409 l 1,3,-1
 1468 1409 l 1,4,-1
 868 732 l 1,5,-1
 1235 0 l 1,6,-1
 928 0 l 1,7,-1
 675 532 l 1,8,-1
 220 0 l 1,9,-1
 -94 0 l 1,10,-1
 558 736 l 1,11,-1
 220 1409 l 1,0,-1
EndSplineSet
EndChar

StartChar: Y
Encoding: 89 89 60
Width: 1366
Flags: W
LayerCount: 2
Fore
SplineSet
836 578 m 1,0,-1
 724 0 l 1,1,-1
 430 0 l 1,2,-1
 542 578 l 1,3,-1
 172 1409 l 1,4,-1
 464 1409 l 1,5,-1
 723 804 l 1,6,-1
 1197 1409 l 1,7,-1
 1520 1409 l 1,8,-1
 836 578 l 1,0,-1
EndSplineSet
EndChar

StartChar: Z
Encoding: 90 90 61
Width: 1251
Flags: W
LayerCount: 2
Fore
SplineSet
1082 0 m 1,0,-1
 -48 0 l 1,1,-1
 -8 209 l 1,2,-1
 919 1178 l 1,3,-1
 256 1178 l 1,4,-1
 301 1409 l 1,5,-1
 1315 1409 l 1,6,-1
 1275 1204 l 1,7,-1
 345 231 l 1,8,-1
 1127 231 l 1,9,-1
 1082 0 l 1,0,-1
EndSplineSet
EndChar

StartChar: bracketleft
Encoding: 91 91 62
Width: 682
Flags: W
LayerCount: 2
Fore
SplineSet
-54 -425 m 1,0,-1
 316 1484 l 1,1,-1
 858 1484 l 1,2,-1
 821 1294 l 1,3,-1
 545 1294 l 1,4,-1
 248 -234 l 1,5,-1
 524 -234 l 1,6,-1
 487 -425 l 1,7,-1
 -54 -425 l 1,0,-1
EndSplineSet
EndChar

StartChar: backslash
Encoding: 92 92 63
Width: 569
Flags: W
LayerCount: 2
Fore
SplineSet
289 -41 m 1,0,-1
 111 1485 l 1,1,-1
 349 1485 l 1,2,-1
 532 -41 l 1,3,-1
 289 -41 l 1,0,-1
EndSplineSet
EndChar

StartChar: bracketright
Encoding: 93 93 64
Width: 682
Flags: W
LayerCount: 2
Fore
SplineSet
-174 -425 m 1,0,-1
 -137 -234 l 1,1,-1
 140 -234 l 1,2,-1
 437 1294 l 1,3,-1
 159 1294 l 1,4,-1
 196 1484 l 1,5,-1
 738 1484 l 1,6,-1
 367 -425 l 1,7,-1
 -174 -425 l 1,0,-1
EndSplineSet
EndChar

StartChar: asciicircum
Encoding: 94 94 65
Width: 1196
Flags: W
LayerCount: 2
Fore
SplineSet
962 514 m 1,0,-1
 636 1266 l 1,1,-1
 312 514 l 1,2,-1
 85 514 l 1,3,-1
 476 1409 l 1,4,-1
 798 1409 l 1,5,-1
 1191 514 l 1,6,-1
 962 514 l 1,0,-1
EndSplineSet
EndChar

StartChar: underscore
Encoding: 95 95 66
Width: 1139
Flags: W
LayerCount: 2
Fore
SplineSet
-120 -250 m 1,0,-1
 -120 -172 l 1,1,-1
 1057 -172 l 1,2,-1
 1057 -250 l 1,3,-1
 -120 -250 l 1,0,-1
EndSplineSet
EndChar

StartChar: grave
Encoding: 96 96 67
Width: 682
Flags: W
LayerCount: 2
Fore
SplineSet
596 1183 m 5,0,-1
 289 1459 l 5,1,-1
 297 1502 l 5,2,-1
 555 1502 l 5,3,-1
 750 1214 l 5,4,-1
 744 1183 l 5,5,-1
 596 1183 l 5,0,-1
EndSplineSet
EndChar

StartChar: a
Encoding: 97 97 68
Width: 1139
Flags: W
LayerCount: 2
Fore
SplineSet
1065 12 m 1,0,1
 1023 -4 1023 -4 980 -7 c 128,-1,2
 937 -10 937 -10 892 -10 c 0,3,4
 792 -10 792 -10 738 32 c 128,-1,5
 684 74 684 74 684 143 c 0,6,7
 684 158 684 158 685 174.5 c 128,-1,8
 686 191 686 191 689 207 c 1,9,-1
 683 207 l 1,10,11
 649 154 649 154 614 112 c 128,-1,12
 579 70 579 70 536.5 40.5 c 128,-1,13
 494 11 494 11 441 -4.5 c 128,-1,14
 388 -20 388 -20 317 -20 c 0,15,16
 239 -20 239 -20 181.5 5 c 128,-1,17
 124 30 124 30 86 71.5 c 128,-1,18
 48 113 48 113 29 167 c 128,-1,19
 10 221 10 221 10 278 c 0,20,21
 10 359 10 359 32.5 418 c 128,-1,22
 55 477 55 477 94 519 c 128,-1,23
 133 561 133 561 185.5 587.5 c 128,-1,24
 238 614 238 614 298 629 c 128,-1,25
 358 644 358 644 423 650 c 128,-1,26
 488 656 488 656 551 657 c 2,27,-1
 742 660 l 1,28,-1
 750 696 l 2,29,30
 757 726 757 726 760 748.5 c 128,-1,31
 763 771 763 771 763 791 c 0,32,33
 763 857 763 857 729 888 c 128,-1,34
 695 919 695 919 636 919 c 0,35,36
 607 919 607 919 576 915 c 128,-1,37
 545 911 545 911 517.5 896.5 c 128,-1,38
 490 882 490 882 467.5 853.5 c 128,-1,39
 445 825 445 825 433 777 c 1,40,-1
 170 808 l 1,41,42
 186 875 186 875 222 929 c 128,-1,43
 258 983 258 983 316 1021.5 c 128,-1,44
 374 1060 374 1060 454.5 1081 c 128,-1,45
 535 1102 535 1102 641 1102 c 0,46,47
 848 1102 848 1102 944.5 1029 c 128,-1,48
 1041 956 1041 956 1041 807 c 0,49,50
 1041 776 1041 776 1033 733 c 128,-1,51
 1025 690 1025 690 1017 650 c 2,52,-1
 946 297 l 2,53,54
 943 280 943 280 940.5 260.5 c 128,-1,55
 938 241 938 241 938 225 c 0,56,57
 938 201 938 201 948 188 c 128,-1,58
 958 175 958 175 971 169 c 128,-1,59
 984 163 984 163 997 161.5 c 128,-1,60
 1010 160 1010 160 1017 160 c 0,61,62
 1031 160 1031 160 1043.5 161 c 128,-1,63
 1056 162 1056 162 1079 167 c 1,64,-1
 1065 12 l 1,0,1
711 503 m 1,65,-1
 549 503 l 1,66,67
 432 501 432 501 364.5 455 c 128,-1,68
 297 409 297 409 297 325 c 0,69,70
 297 286 297 286 309 257.5 c 128,-1,71
 321 229 321 229 341 211 c 128,-1,72
 361 193 361 193 387.5 184.5 c 128,-1,73
 414 176 414 176 443 176 c 256,74,75
 472 176 472 176 507.5 187.5 c 128,-1,76
 543 199 543 199 577.5 226 c 128,-1,77
 612 253 612 253 642 298.5 c 128,-1,78
 672 344 672 344 689 411 c 2,79,-1
 711 503 l 1,65,-1
EndSplineSet
EndChar

StartChar: b
Encoding: 98 98 69
Width: 1251
Flags: W
LayerCount: 2
Fore
SplineSet
855 1102 m 0,0,1
 936 1102 936 1102 999 1077 c 128,-1,2
 1062 1052 1062 1052 1104.5 1006 c 128,-1,3
 1147 960 1147 960 1169.5 894.5 c 128,-1,4
 1192 829 1192 829 1192 748 c 2,5,-1
 1192 734 l 2,6,7
 1192 686 1192 686 1187 630 c 128,-1,8
 1182 574 1182 574 1171 516 c 0,9,10
 1143 374 1143 374 1099 272.5 c 128,-1,11
 1055 171 1055 171 992.5 106 c 128,-1,12
 930 41 930 41 849.5 10.5 c 128,-1,13
 769 -20 769 -20 669 -20 c 0,14,15
 544 -20 544 -20 466 32 c 128,-1,16
 388 84 388 84 356 178 c 1,17,-1
 354 178 l 1,18,19
 348 152 348 152 340.5 122.5 c 128,-1,20
 333 93 333 93 325.5 67 c 128,-1,21
 318 41 318 41 313 22.5 c 128,-1,22
 308 4 308 4 306 0 c 1,23,-1
 35 0 l 1,24,25
 38 9 38 9 43 30.5 c 128,-1,26
 48 52 48 52 54.5 82 c 128,-1,27
 61 112 61 112 69 148 c 128,-1,28
 77 184 77 184 84 223 c 2,29,-1
 330 1484 l 1,30,-1
 611 1484 l 1,31,-1
 527 1057 l 2,32,33
 514 991 514 991 505 952 c 128,-1,34
 496 913 496 913 495 913 c 2,35,-1
 499 913 l 1,36,37
 555 997 555 997 644.5 1049.5 c 128,-1,38
 734 1102 734 1102 855 1102 c 0,0,1
735 907 m 0,39,40
 683 907 683 907 635 890.5 c 128,-1,41
 587 874 587 874 547 834 c 128,-1,42
 507 794 507 794 475.5 726 c 128,-1,43
 444 658 444 658 424 554 c 0,44,45
 416 510 416 510 411.5 472 c 128,-1,46
 407 434 407 434 407 401 c 0,47,48
 407 345 407 345 421.5 302.5 c 128,-1,49
 436 260 436 260 462.5 231 c 128,-1,50
 489 202 489 202 526 187.5 c 128,-1,51
 563 173 563 173 608 173 c 0,52,53
 659 173 659 173 699.5 188.5 c 128,-1,54
 740 204 740 204 772.5 242.5 c 128,-1,55
 805 281 805 281 830.5 347.5 c 128,-1,56
 856 414 856 414 877 516 c 0,57,58
 888 567 888 567 893.5 611.5 c 128,-1,59
 899 656 899 656 899 694 c 0,60,61
 899 799 899 799 863.5 853 c 128,-1,62
 828 907 828 907 735 907 c 0,39,40
EndSplineSet
EndChar

StartChar: c
Encoding: 99 99 70
Width: 1139
Flags: W
LayerCount: 2
Fore
SplineSet
536 173 m 0,0,1
 619 173 619 173 673 225.5 c 128,-1,2
 727 278 727 278 759 381 c 1,3,-1
 1030 331 l 1,4,5
 1006 252 1006 252 964.5 187 c 128,-1,6
 923 122 923 122 861.5 76 c 128,-1,7
 800 30 800 30 715.5 5 c 128,-1,8
 631 -20 631 -20 520 -20 c 0,9,10
 404 -20 404 -20 318 11 c 128,-1,11
 232 42 232 42 175.5 98.5 c 128,-1,12
 119 155 119 155 91 233 c 128,-1,13
 63 311 63 311 63 405 c 0,14,15
 63 445 63 445 66.5 492 c 128,-1,16
 70 539 70 539 81 584 c 0,17,18
 106 695 106 695 144.5 776.5 c 128,-1,19
 183 858 183 858 230.5 915.5 c 128,-1,20
 278 973 278 973 333 1009.5 c 128,-1,21
 388 1046 388 1046 446 1066.5 c 128,-1,22
 504 1087 504 1087 563.5 1094.5 c 128,-1,23
 623 1102 623 1102 680 1102 c 0,24,25
 787 1102 787 1102 865 1073 c 128,-1,26
 943 1044 943 1044 995.5 994.5 c 128,-1,27
 1048 945 1048 945 1075.5 879.5 c 128,-1,28
 1103 814 1103 814 1109 741 c 1,29,-1
 825 718 l 1,30,31
 820 808 820 808 779.5 858.5 c 128,-1,32
 739 909 739 909 658 909 c 0,33,34
 602 909 602 909 560.5 890.5 c 128,-1,35
 519 872 519 872 487 831.5 c 128,-1,36
 455 791 455 791 429.5 727.5 c 128,-1,37
 404 664 404 664 381 575 c 1,38,39
 377 555 377 555 373 532.5 c 128,-1,40
 369 510 369 510 365.5 487.5 c 128,-1,41
 362 465 362 465 360 444.5 c 128,-1,42
 358 424 358 424 358 407 c 0,43,44
 358 286 358 286 403 229.5 c 128,-1,45
 448 173 448 173 536 173 c 0,0,1
EndSplineSet
EndChar

StartChar: d
Encoding: 100 100 71
Width: 1251
Flags: W
LayerCount: 2
Fore
SplineSet
749 160 m 1,0,1
 713 113 713 113 675 79 c 128,-1,2
 637 45 637 45 594.5 22.5 c 128,-1,3
 552 0 552 0 502 -10.5 c 128,-1,4
 452 -21 452 -21 392 -21 c 0,5,6
 312 -21 312 -21 249.5 7 c 128,-1,7
 187 35 187 35 144.5 85 c 128,-1,8
 102 135 102 135 80 204 c 128,-1,9
 58 273 58 273 58 354 c 0,10,11
 58 399 58 399 62.5 451 c 128,-1,12
 67 503 67 503 79 566 c 0,13,14
 107 708 107 708 155.5 809.5 c 128,-1,15
 204 911 204 911 268.5 976 c 128,-1,16
 333 1041 333 1041 412 1071.5 c 128,-1,17
 491 1102 491 1102 580 1102 c 0,18,19
 653 1102 653 1102 706.5 1086.5 c 128,-1,20
 760 1071 760 1071 797.5 1044 c 128,-1,21
 835 1017 835 1017 858.5 981 c 128,-1,22
 882 945 882 945 894 904 c 1,23,-1
 899 904 l 1,24,25
 901 924 901 924 907 964 c 128,-1,26
 913 1004 913 1004 925 1066 c 2,27,-1
 1009 1484 l 1,28,-1
 1286 1484 l 1,29,-1
 1048 231 l 2,30,31
 1037 170 1037 170 1030 112 c 128,-1,32
 1023 54 1023 54 1019 0 c 1,33,-1
 738 0 l 1,34,35
 738 8 738 8 738.5 24 c 128,-1,36
 739 40 739 40 741 62 c 128,-1,37
 743 84 743 84 746 109 c 128,-1,38
 749 134 749 134 753 160 c 1,39,-1
 749 160 l 1,0,1
515 172 m 0,40,41
 568 172 568 172 615.5 188.5 c 128,-1,42
 663 205 663 205 703 245.5 c 128,-1,43
 743 286 743 286 774 354.5 c 128,-1,44
 805 423 805 423 825 527 c 0,45,46
 833 571 833 571 837.5 609.5 c 128,-1,47
 842 648 842 648 842 681 c 0,48,49
 842 801 842 801 795 855.5 c 128,-1,50
 748 910 748 910 654 910 c 0,51,52
 607 910 607 910 564 894 c 128,-1,53
 521 878 521 878 485 838.5 c 128,-1,54
 449 799 449 799 420 732.5 c 128,-1,55
 391 666 391 666 373 565 c 0,56,57
 364 514 364 514 359.5 472.5 c 128,-1,58
 355 431 355 431 355 393 c 0,59,60
 355 287 355 287 393 229.5 c 128,-1,61
 431 172 431 172 515 172 c 0,40,41
EndSplineSet
EndChar

StartChar: e
Encoding: 101 101 72
Width: 1139
Flags: W
LayerCount: 2
Fore
SplineSet
358 476 m 1,0,1
 354 454 354 454 352.5 432 c 128,-1,2
 351 410 351 410 351 387 c 0,3,4
 351 281 351 281 397.5 224.5 c 128,-1,5
 444 168 444 168 535 168 c 0,6,7
 577 168 577 168 610 181 c 128,-1,8
 643 194 643 194 669 216.5 c 128,-1,9
 695 239 695 239 714.5 270 c 128,-1,10
 734 301 734 301 748 337 c 1,11,-1
 993 263 l 1,12,13
 963 199 963 199 925 146.5 c 128,-1,14
 887 94 887 94 832 57 c 128,-1,15
 777 20 777 20 700 0 c 128,-1,16
 623 -20 623 -20 516 -20 c 0,17,18
 406 -20 406 -20 321.5 11 c 128,-1,19
 237 42 237 42 179.5 99 c 128,-1,20
 122 156 122 156 92.5 237 c 128,-1,21
 63 318 63 318 63 418 c 0,22,23
 63 582 63 582 106.5 709 c 128,-1,24
 150 836 150 836 227.5 923.5 c 128,-1,25
 305 1011 305 1011 412 1056.5 c 128,-1,26
 519 1102 519 1102 646 1102 c 0,27,28
 758 1102 758 1102 840 1072 c 128,-1,29
 922 1042 922 1042 976 987.5 c 128,-1,30
 1030 933 1030 933 1056 857.5 c 128,-1,31
 1082 782 1082 782 1082 691 c 0,32,33
 1082 646 1082 646 1075.5 587.5 c 128,-1,34
 1069 529 1069 529 1058 476 c 1,35,-1
 358 476 l 1,0,1
822 663 m 1,36,37
 824 679 824 679 824.5 692 c 128,-1,38
 825 705 825 705 825 719 c 0,39,40
 825 826 825 826 775.5 875 c 128,-1,41
 726 924 726 924 646 924 c 0,42,43
 612 924 612 924 574 913 c 128,-1,44
 536 902 536 902 500.5 872.5 c 128,-1,45
 465 843 465 843 436.5 792.5 c 128,-1,46
 408 742 408 742 391 663 c 1,47,-1
 822 663 l 1,36,37
EndSplineSet
EndChar

StartChar: f
Encoding: 102 102 73
Width: 682
Flags: W
LayerCount: 2
Fore
SplineSet
528 892 m 1,0,-1
 354 0 l 1,1,-1
 74 0 l 1,2,-1
 248 892 l 1,3,-1
 90 892 l 1,4,-1
 127 1082 l 1,5,-1
 285 1082 l 1,6,-1
 307 1195 l 2,7,8
 320 1263 320 1263 346.5 1317 c 128,-1,9
 373 1371 373 1371 419.5 1408 c 128,-1,10
 466 1445 466 1445 534 1464.5 c 128,-1,11
 602 1484 602 1484 698 1484 c 0,12,13
 743 1484 743 1484 783.5 1478.5 c 128,-1,14
 824 1473 824 1473 853 1467 c 1,15,-1
 817 1286 l 1,16,17
 808 1288 808 1288 795.5 1289.5 c 128,-1,18
 783 1291 783 1291 769.5 1292.5 c 128,-1,19
 756 1294 756 1294 743 1295 c 128,-1,20
 730 1296 730 1296 721 1296 c 0,21,22
 654 1296 654 1296 624 1264 c 128,-1,23
 594 1232 594 1232 581 1167 c 2,24,-1
 565 1082 l 1,25,-1
 778 1082 l 1,26,-1
 741 892 l 1,27,-1
 528 892 l 1,0,-1
EndSplineSet
EndChar

StartChar: g
Encoding: 103 103 74
Width: 1251
Flags: W
LayerCount: 2
Fore
SplineSet
431 -425 m 0,0,1
 326 -425 326 -425 249 -406.5 c 128,-1,2
 172 -388 172 -388 119 -352 c 128,-1,3
 66 -316 66 -316 35.5 -263.5 c 128,-1,4
 5 -211 5 -211 -7 -142 c 1,5,-1
 276 -112 l 1,6,7
 290 -178 290 -178 337 -208.5 c 128,-1,8
 384 -239 384 -239 464 -239 c 0,9,10
 522 -239 522 -239 565 -223.5 c 128,-1,11
 608 -208 608 -208 639.5 -175.5 c 128,-1,12
 671 -143 671 -143 692.5 -92.5 c 128,-1,13
 714 -42 714 -42 730 27 c 0,14,15
 736 56 736 56 741.5 86.5 c 128,-1,16
 747 117 747 117 752 143 c 0,17,18
 757 173 757 173 761 201 c 1,19,-1
 759 201 l 1,20,21
 731 161 731 161 699.5 123 c 128,-1,22
 668 85 668 85 626.5 56 c 128,-1,23
 585 27 585 27 531 9.5 c 128,-1,24
 477 -8 477 -8 405 -8 c 0,25,26
 326 -8 326 -8 262.5 19 c 128,-1,27
 199 46 199 46 155.5 94 c 128,-1,28
 112 142 112 142 88.5 209 c 128,-1,29
 65 276 65 276 65 356 c 0,30,31
 65 405 65 405 69.5 461 c 128,-1,32
 74 517 74 517 86 580 c 0,33,34
 137 841 137 841 257.5 971 c 128,-1,35
 378 1101 378 1101 586 1101 c 0,36,37
 643 1101 643 1101 694.5 1087 c 128,-1,38
 746 1073 746 1073 787 1046.5 c 128,-1,39
 828 1020 828 1020 857.5 981.5 c 128,-1,40
 887 943 887 943 901 893 c 1,41,-1
 903 893 l 1,42,43
 908 919 908 919 915.5 950 c 128,-1,44
 923 981 923 981 930 1009.5 c 128,-1,45
 937 1038 937 1038 943 1058.5 c 128,-1,46
 949 1079 949 1079 951 1082 c 1,47,-1
 1216 1082 l 1,48,49
 1214 1073 1214 1073 1209 1051 c 128,-1,50
 1204 1029 1204 1029 1197 998.5 c 128,-1,51
 1190 968 1190 968 1182.5 930.5 c 128,-1,52
 1175 893 1175 893 1167 853 c 2,53,-1
 1002 10 l 2,54,55
 980 -98 980 -98 939 -179.5 c 128,-1,56
 898 -261 898 -261 830.5 -315.5 c 128,-1,57
 763 -370 763 -370 665 -397.5 c 128,-1,58
 567 -425 567 -425 431 -425 c 0,0,1
833 548 m 0,59,60
 840 583 840 583 843 621 c 128,-1,61
 846 659 846 659 846 686 c 0,62,63
 846 743 846 743 831 784.5 c 128,-1,64
 816 826 816 826 789.5 854 c 128,-1,65
 763 882 763 882 726.5 895.5 c 128,-1,66
 690 909 690 909 648 909 c 0,67,68
 597 909 597 909 555.5 893.5 c 128,-1,69
 514 878 514 878 481.5 840.5 c 128,-1,70
 449 803 449 803 424 739.5 c 128,-1,71
 399 676 399 676 381 581 c 0,72,73
 372 531 372 531 365.5 482 c 128,-1,74
 359 433 359 433 359 396 c 0,75,76
 359 293 359 293 403.5 245 c 128,-1,77
 448 197 448 197 532 197 c 0,78,79
 576 197 576 197 622 216.5 c 128,-1,80
 668 236 668 236 709 278.5 c 128,-1,81
 750 321 750 321 782.5 387.5 c 128,-1,82
 815 454 815 454 833 548 c 0,59,60
EndSplineSet
EndChar

StartChar: h
Encoding: 104 104 75
Width: 1251
Flags: W
LayerCount: 2
Fore
SplineSet
601 1484 m 1,0,-1
 522 1079 l 2,1,2
 518 1058 518 1058 513 1033.5 c 128,-1,3
 508 1009 508 1009 502.5 985 c 128,-1,4
 497 961 497 961 492 938 c 128,-1,5
 487 915 487 915 483 897 c 1,6,-1
 486 897 l 1,7,8
 516 939 516 939 552.5 976 c 128,-1,9
 589 1013 589 1013 634 1041 c 128,-1,10
 679 1069 679 1069 734.5 1085 c 128,-1,11
 790 1101 790 1101 859 1101 c 0,12,13
 1011 1101 1011 1101 1088 1028 c 128,-1,14
 1165 955 1165 955 1165 817 c 0,15,16
 1165 799 1165 799 1162.5 776 c 128,-1,17
 1160 753 1160 753 1157 730.5 c 128,-1,18
 1154 708 1154 708 1150.5 687.5 c 128,-1,19
 1147 667 1147 667 1144 653 c 2,20,-1
 1017 0 l 1,21,-1
 738 0 l 1,22,-1
 856 595 l 2,23,24
 860 614 860 614 864.5 637 c 128,-1,25
 869 660 869 660 873 683 c 128,-1,26
 877 706 877 706 879.5 726.5 c 128,-1,27
 882 747 882 747 882 760 c 0,28,29
 882 823 882 823 843.5 856 c 128,-1,30
 805 889 805 889 730 889 c 0,31,32
 683 889 683 889 636 869 c 128,-1,33
 589 849 589 849 548.5 812 c 128,-1,34
 508 775 508 775 477.5 722.5 c 128,-1,35
 447 670 447 670 435 606 c 2,36,-1
 317 0 l 1,37,-1
 35 0 l 1,38,-1
 321 1484 l 1,39,-1
 601 1484 l 1,0,-1
EndSplineSet
EndChar

StartChar: i
Encoding: 105 105 76
Width: 569
Flags: W
LayerCount: 2
Fore
SplineSet
282 1277 m 1,0,-1
 323 1484 l 1,1,-1
 604 1484 l 1,2,-1
 563 1277 l 1,3,-1
 282 1277 l 1,0,-1
35 0 m 1,4,-1
 245 1082 l 1,5,-1
 526 1082 l 1,6,-1
 315 0 l 1,7,-1
 35 0 l 1,4,-1
EndSplineSet
EndChar

StartChar: j
Encoding: 106 106 77
Width: 569
Flags: W
LayerCount: 2
Fore
SplineSet
283 1277 m 1,0,-1
 323 1484 l 1,1,-1
 604 1484 l 1,2,-1
 564 1277 l 1,3,-1
 283 1277 l 1,0,-1
-54 -425 m 0,4,5
 -104 -425 -104 -425 -147 -419.5 c 128,-1,6
 -190 -414 -190 -414 -220 -406 c 1,7,-1
 -184 -218 l 1,8,9
 -171 -220 -171 -220 -154.5 -221 c 128,-1,10
 -138 -222 -138 -222 -126 -222 c 0,11,12
 -92 -222 -92 -222 -68 -214 c 128,-1,13
 -44 -206 -44 -206 -27 -187 c 128,-1,14
 -10 -168 -10 -168 1.5 -137 c 128,-1,15
 13 -106 13 -106 22 -60 c 2,16,-1
 245 1082 l 1,17,-1
 526 1082 l 1,18,-1
 290 -128 l 2,19,20
 277 -193 277 -193 250.5 -247 c 128,-1,21
 224 -301 224 -301 182 -341 c 128,-1,22
 140 -381 140 -381 81.5 -403 c 128,-1,23
 23 -425 23 -425 -54 -425 c 0,4,5
EndSplineSet
EndChar

StartChar: k
Encoding: 107 107 78
Width: 1139
Flags: W
LayerCount: 2
Fore
SplineSet
728 0 m 1,0,-1
 540 497 l 1,1,-1
 400 422 l 1,2,-1
 315 0 l 1,3,-1
 35 0 l 1,4,-1
 323 1484 l 1,5,-1
 604 1484 l 1,6,-1
 437 634 l 1,7,-1
 902 1082 l 1,8,-1
 1224 1082 l 1,9,-1
 751 660 l 1,10,-1
 1026 0 l 1,11,-1
 728 0 l 1,0,-1
EndSplineSet
EndChar

StartChar: l
Encoding: 108 108 79
Width: 569
Flags: W
LayerCount: 2
Fore
SplineSet
35 0 m 1,0,-1
 323 1484 l 1,1,-1
 604 1484 l 1,2,-1
 315 0 l 1,3,-1
 35 0 l 1,0,-1
EndSplineSet
EndChar

StartChar: m
Encoding: 109 109 80
Width: 1821
Flags: W
LayerCount: 2
Fore
SplineSet
1322 892 m 0,0,1
 1277 892 1277 892 1236.5 872 c 128,-1,2
 1196 852 1196 852 1163.5 814.5 c 128,-1,3
 1131 777 1131 777 1107.5 724.5 c 128,-1,4
 1084 672 1084 672 1071 607 c 2,5,-1
 952 0 l 1,6,-1
 673 0 l 1,7,-1
 796 635 l 2,8,9
 799 651 799 651 802 669.5 c 128,-1,10
 805 688 805 688 807.5 707 c 128,-1,11
 810 726 810 726 811.5 742.5 c 128,-1,12
 813 759 813 759 813 771 c 0,13,14
 813 892 813 892 687 892 c 0,15,16
 641 892 641 892 601 871.5 c 128,-1,17
 561 851 561 851 528 813.5 c 128,-1,18
 495 776 495 776 471.5 722.5 c 128,-1,19
 448 669 448 669 435 604 c 2,20,-1
 317 0 l 1,21,-1
 35 0 l 1,22,-1
 201 851 l 2,23,24
 208 885 208 885 214.5 922.5 c 128,-1,25
 221 960 221 960 226.5 993.5 c 128,-1,26
 232 1027 232 1027 235.5 1051 c 128,-1,27
 239 1075 239 1075 240 1082 c 1,28,-1
 512 1082 l 1,29,30
 512 1077 512 1077 509 1055 c 128,-1,31
 506 1033 506 1033 501.5 1004.5 c 128,-1,32
 497 976 497 976 492.5 946.5 c 128,-1,33
 488 917 488 917 484 897 c 1,34,-1
 487 897 l 1,35,36
 518 944 518 944 550.5 982 c 128,-1,37
 583 1020 583 1020 621.5 1046.5 c 128,-1,38
 660 1073 660 1073 707.5 1087 c 128,-1,39
 755 1101 755 1101 815 1101 c 0,40,41
 939 1101 939 1101 1011 1041.5 c 128,-1,42
 1083 982 1083 982 1097 869 c 1,43,44
 1129 919 1129 919 1164 961 c 128,-1,45
 1199 1003 1199 1003 1241 1034.5 c 128,-1,46
 1283 1066 1283 1066 1334.5 1083.5 c 128,-1,47
 1386 1101 1386 1101 1451 1101 c 0,48,49
 1589 1101 1589 1101 1662.5 1028 c 128,-1,50
 1736 955 1736 955 1736 817 c 0,51,52
 1736 781 1736 781 1729.5 736 c 128,-1,53
 1723 691 1723 691 1715 653 c 2,54,-1
 1587 0 l 1,55,-1
 1308 0 l 1,56,-1
 1430 627 l 2,57,58
 1433 642 1433 642 1436 660.5 c 128,-1,59
 1439 679 1439 679 1442 697.5 c 128,-1,60
 1445 716 1445 716 1446.5 734 c 128,-1,61
 1448 752 1448 752 1448 766 c 2,62,-1
 1448 771 l 1,63,64
 1445 892 1445 892 1322 892 c 0,0,1
EndSplineSet
EndChar

StartChar: n
Encoding: 110 110 81
Width: 1251
Flags: W
LayerCount: 2
Fore
SplineSet
738 0 m 1,0,-1
 856 595 l 2,1,2
 860 614 860 614 864.5 637 c 128,-1,3
 869 660 869 660 873 683 c 128,-1,4
 877 706 877 706 879.5 726.5 c 128,-1,5
 882 747 882 747 882 760 c 0,6,7
 882 823 882 823 844 856 c 128,-1,8
 806 889 806 889 730 889 c 0,9,10
 683 889 683 889 636 869 c 128,-1,11
 589 849 589 849 548.5 812 c 128,-1,12
 508 775 508 775 477.5 722.5 c 128,-1,13
 447 670 447 670 435 606 c 2,14,-1
 317 0 l 1,15,-1
 35 0 l 1,16,-1
 201 851 l 2,17,18
 208 885 208 885 214.5 922.5 c 128,-1,19
 221 960 221 960 226 993.5 c 128,-1,20
 231 1027 231 1027 234.5 1051 c 128,-1,21
 238 1075 238 1075 239 1082 c 1,22,-1
 507 1082 l 1,23,24
 507 1077 507 1077 504.5 1055 c 128,-1,25
 502 1033 502 1033 498.5 1004.5 c 128,-1,26
 495 976 495 976 491 946.5 c 128,-1,27
 487 917 487 917 483 897 c 1,28,-1
 486 897 l 1,29,30
 516 939 516 939 552.5 976 c 128,-1,31
 589 1013 589 1013 634 1041 c 128,-1,32
 679 1069 679 1069 734.5 1085 c 128,-1,33
 790 1101 790 1101 859 1101 c 0,34,35
 1011 1101 1011 1101 1088 1028 c 128,-1,36
 1165 955 1165 955 1165 817 c 0,37,38
 1165 799 1165 799 1162.5 776 c 128,-1,39
 1160 753 1160 753 1157 730.5 c 128,-1,40
 1154 708 1154 708 1150.5 687.5 c 128,-1,41
 1147 667 1147 667 1144 653 c 2,42,-1
 1017 0 l 1,43,-1
 738 0 l 1,0,-1
EndSplineSet
EndChar

StartChar: o
Encoding: 111 111 82
Width: 1251
Flags: W
LayerCount: 2
Fore
SplineSet
1185 683 m 0,0,1
 1185 520 1185 520 1136 389.5 c 128,-1,2
 1087 259 1087 259 1000 168 c 128,-1,3
 913 77 913 77 794 28.5 c 128,-1,4
 675 -20 675 -20 535 -20 c 0,5,6
 428 -20 428 -20 341 9.5 c 128,-1,7
 254 39 254 39 192 95.5 c 128,-1,8
 130 152 130 152 96.5 233.5 c 128,-1,9
 63 315 63 315 63 419 c 0,10,11
 63 574 63 574 109.5 700 c 128,-1,12
 156 826 156 826 241 915 c 128,-1,13
 326 1004 326 1004 444 1052.5 c 128,-1,14
 562 1101 562 1101 704 1101 c 0,15,16
 822 1101 822 1101 912 1073 c 128,-1,17
 1002 1045 1002 1045 1062.5 991 c 128,-1,18
 1123 937 1123 937 1154 859.5 c 128,-1,19
 1185 782 1185 782 1185 683 c 0,0,1
891 662 m 1,20,21
 891 728 891 728 876.5 775 c 128,-1,22
 862 822 862 822 835 851.5 c 128,-1,23
 808 881 808 881 769.5 895 c 128,-1,24
 731 909 731 909 683 909 c 0,25,26
 639 909 639 909 594 898.5 c 128,-1,27
 549 888 549 888 508.5 855 c 128,-1,28
 468 822 468 822 434.5 761 c 128,-1,29
 401 700 401 700 378 600 c 0,30,31
 367 552 367 552 362.5 509.5 c 128,-1,32
 358 467 358 467 358 431 c 0,33,34
 358 359 358 359 373.5 310 c 128,-1,35
 389 261 389 261 417 230 c 128,-1,36
 445 199 445 199 483 185.5 c 128,-1,37
 521 172 521 172 566 172 c 256,38,39
 611 172 611 172 655 182 c 128,-1,40
 699 192 699 192 739 224.5 c 128,-1,41
 779 257 779 257 812 317.5 c 128,-1,42
 845 378 845 378 868 480 c 0,43,44
 879 532 879 532 884 575.5 c 128,-1,45
 889 619 889 619 891 662 c 1,20,21
EndSplineSet
EndChar

StartChar: p
Encoding: 112 112 83
Width: 1251
Flags: W
LayerCount: 2
Fore
SplineSet
728 907 m 0,0,1
 676 907 676 907 628 890.5 c 128,-1,2
 580 874 580 874 540 834 c 128,-1,3
 500 794 500 794 468.5 726 c 128,-1,4
 437 658 437 658 417 554 c 0,5,6
 409 510 409 510 404.5 472 c 128,-1,7
 400 434 400 434 400 401 c 0,8,9
 400 345 400 345 414.5 302.5 c 128,-1,10
 429 260 429 260 455.5 231 c 128,-1,11
 482 202 482 202 519 187.5 c 128,-1,12
 556 173 556 173 601 173 c 0,13,14
 652 173 652 173 693.5 189 c 128,-1,15
 735 205 735 205 768 244 c 128,-1,16
 801 283 801 283 826.5 349.5 c 128,-1,17
 852 416 852 416 870 516 c 0,18,19
 879 567 879 567 884 611.5 c 128,-1,20
 889 656 889 656 889 694 c 0,21,22
 889 800 889 800 850.5 853.5 c 128,-1,23
 812 907 812 907 728 907 c 0,0,1
493 913 m 1,24,25
 528 962 528 962 565 997.5 c 128,-1,26
 602 1033 602 1033 645 1056.5 c 128,-1,27
 688 1080 688 1080 738 1091 c 128,-1,28
 788 1102 788 1102 848 1102 c 0,29,30
 929 1102 929 1102 992 1077 c 128,-1,31
 1055 1052 1055 1052 1097.5 1006 c 128,-1,32
 1140 960 1140 960 1162.5 894.5 c 128,-1,33
 1185 829 1185 829 1185 748 c 0,34,35
 1185 689 1185 689 1180 631.5 c 128,-1,36
 1175 574 1175 574 1164 516 c 0,37,38
 1136 374 1136 374 1092 272.5 c 128,-1,39
 1048 171 1048 171 985.5 106 c 128,-1,40
 923 41 923 41 842.5 10.5 c 128,-1,41
 762 -20 762 -20 662 -20 c 0,42,43
 537 -20 537 -20 459 32 c 128,-1,44
 381 84 381 84 349 178 c 1,45,-1
 347 178 l 1,46,47
 342 136 342 136 333 86 c 128,-1,48
 324 36 324 36 315 -10 c 2,49,-1
 235 -425 l 1,50,-1
 -45 -425 l 1,51,-1
 198 833 l 2,52,53
 205 868 205 868 209.5 892.5 c 128,-1,54
 214 917 214 917 217.5 942.5 c 128,-1,55
 221 968 221 968 225.5 1000 c 128,-1,56
 230 1032 230 1032 237 1082 c 1,57,-1
 512 1082 l 1,58,59
 512 1076 512 1076 510 1056 c 128,-1,60
 508 1036 508 1036 505 1010.5 c 128,-1,61
 502 985 502 985 498 958.5 c 128,-1,62
 494 932 494 932 489 913 c 1,63,-1
 493 913 l 1,24,25
EndSplineSet
EndChar

StartChar: q
Encoding: 113 113 84
Width: 1251
Flags: W
LayerCount: 2
Fore
SplineSet
898 903 m 1,0,1
 903 928 903 928 909.5 955.5 c 128,-1,2
 916 983 916 983 922.5 1007.5 c 128,-1,3
 929 1032 929 1032 935 1052 c 128,-1,4
 941 1072 941 1072 945 1082 c 1,5,-1
 1215 1082 l 1,6,7
 1210 1065 1210 1065 1194.5 994 c 128,-1,8
 1179 923 1179 923 1154 795 c 2,9,-1
 918 -425 l 1,10,-1
 637 -425 l 1,11,-1
 722 7 l 2,12,13
 729 40 729 40 738 79 c 128,-1,14
 747 118 747 118 758 163 c 1,15,-1
 754 163 l 1,16,17
 718 116 718 116 680 81.5 c 128,-1,18
 642 47 642 47 598.5 24 c 128,-1,19
 555 1 555 1 504.5 -10 c 128,-1,20
 454 -21 454 -21 394 -21 c 0,21,22
 313 -21 313 -21 251 6.5 c 128,-1,23
 189 34 189 34 146 82.5 c 128,-1,24
 103 131 103 131 81 199 c 128,-1,25
 59 267 59 267 59 348 c 0,26,27
 59 393 59 393 63.5 447.5 c 128,-1,28
 68 502 68 502 80 565 c 0,29,30
 108 708 108 708 157 810 c 128,-1,31
 206 912 206 912 271 977 c 128,-1,32
 336 1042 336 1042 414.5 1072 c 128,-1,33
 493 1102 493 1102 580 1102 c 0,34,35
 646 1102 646 1102 695.5 1091 c 128,-1,36
 745 1080 745 1080 782 1056 c 128,-1,37
 819 1032 819 1032 846 994 c 128,-1,38
 873 956 873 956 893 903 c 1,39,-1
 898 903 l 1,0,1
518 172 m 0,40,41
 571 172 571 172 618.5 188.5 c 128,-1,42
 666 205 666 205 706 245.5 c 128,-1,43
 746 286 746 286 777 354.5 c 128,-1,44
 808 423 808 423 827 527 c 0,45,46
 835 571 835 571 839 609 c 128,-1,47
 843 647 843 647 843 680 c 0,48,49
 843 792 843 792 801.5 851 c 128,-1,50
 760 910 760 910 669 910 c 0,51,52
 616 910 616 910 570.5 894.5 c 128,-1,53
 525 879 525 879 487.5 840 c 128,-1,54
 450 801 450 801 421.5 734.5 c 128,-1,55
 393 668 393 668 374 565 c 0,56,57
 364 513 364 513 360 468.5 c 128,-1,58
 356 424 356 424 356 386 c 0,59,60
 356 337 356 337 365.5 297.5 c 128,-1,61
 375 258 375 258 394.5 230 c 128,-1,62
 414 202 414 202 444.5 187 c 128,-1,63
 475 172 475 172 518 172 c 0,40,41
EndSplineSet
EndChar

StartChar: r
Encoding: 114 114 85
Width: 797
Flags: W
LayerCount: 2
Fore
SplineSet
844 853 m 1,0,1
 821 858 821 858 795 863 c 128,-1,2
 769 868 769 868 730 868 c 0,3,4
 607 868 607 868 529.5 781 c 128,-1,5
 452 694 452 694 417 514 c 2,6,-1
 316 0 l 1,7,-1
 35 0 l 1,8,-1
 196 830 l 2,9,10
 203 865 203 865 209 900 c 128,-1,11
 215 935 215 935 220.5 968 c 128,-1,12
 226 1001 226 1001 230.5 1030.5 c 128,-1,13
 235 1060 235 1060 238 1082 c 1,14,-1
 506 1082 l 1,15,16
 503 1060 503 1060 499.5 1030 c 128,-1,17
 496 1000 496 1000 492 969 c 128,-1,18
 488 938 488 938 483.5 909.5 c 128,-1,19
 479 881 479 881 476 861 c 1,20,-1
 480 861 l 1,21,22
 514 923 514 923 547.5 968.5 c 128,-1,23
 581 1014 581 1014 617.5 1043.5 c 128,-1,24
 654 1073 654 1073 695.5 1087.5 c 128,-1,25
 737 1102 737 1102 787 1102 c 0,26,27
 799 1102 799 1102 813.5 1100.5 c 128,-1,28
 828 1099 828 1099 842.5 1097 c 128,-1,29
 857 1095 857 1095 869.5 1092.5 c 128,-1,30
 882 1090 882 1090 890 1088 c 1,31,-1
 844 853 l 1,0,1
EndSplineSet
EndChar

StartChar: s
Encoding: 115 115 86
Width: 1139
Flags: W
LayerCount: 2
Fore
SplineSet
1000 334 m 0,0,1
 1000 245 1000 245 966.5 178.5 c 128,-1,2
 933 112 933 112 868.5 68 c 128,-1,3
 804 24 804 24 710.5 2 c 128,-1,4
 617 -20 617 -20 497 -20 c 0,5,6
 296 -20 296 -20 180 51 c 128,-1,7
 64 122 64 122 23 271 c 1,8,-1
 274 307 l 1,9,10
 284 271 284 271 302 244.5 c 128,-1,11
 320 218 320 218 349 200.5 c 128,-1,12
 378 183 378 183 419.5 174.5 c 128,-1,13
 461 166 461 166 517 166 c 0,14,15
 566 166 566 166 606.5 173.5 c 128,-1,16
 647 181 647 181 676.5 197.5 c 128,-1,17
 706 214 706 214 722.5 240 c 128,-1,18
 739 266 739 266 739 302 c 0,19,20
 739 334 739 334 725.5 354.5 c 128,-1,21
 712 375 712 375 684.5 389.5 c 128,-1,22
 657 404 657 404 614.5 415.5 c 128,-1,23
 572 427 572 427 515 439 c 0,24,25
 436 457 436 457 369.5 482 c 128,-1,26
 303 507 303 507 255 545.5 c 128,-1,27
 207 584 207 584 180 638.5 c 128,-1,28
 153 693 153 693 153 769 c 0,29,30
 153 859 153 859 190.5 921.5 c 128,-1,31
 228 984 228 984 293.5 1023.5 c 128,-1,32
 359 1063 359 1063 447 1081 c 128,-1,33
 535 1099 535 1099 637 1099 c 0,34,35
 730 1099 730 1099 804.5 1084.5 c 128,-1,36
 879 1070 879 1070 933 1036 c 128,-1,37
 987 1002 987 1002 1021.5 947 c 128,-1,38
 1056 892 1056 892 1069 811 c 1,39,-1
 818 782 l 1,40,41
 801 851 801 851 752 882 c 128,-1,42
 703 913 703 913 618 913 c 0,43,44
 575 913 575 913 537.5 907.5 c 128,-1,45
 500 902 500 902 472.5 888 c 128,-1,46
 445 874 445 874 429 851 c 128,-1,47
 413 828 413 828 413 793 c 0,48,49
 413 761 413 761 432 739.5 c 128,-1,50
 451 718 451 718 485 702.5 c 128,-1,51
 519 687 519 687 566 675.5 c 128,-1,52
 613 664 613 664 668 651 c 0,53,54
 738 635 738 635 798.5 612 c 128,-1,55
 859 589 859 589 904 552.5 c 128,-1,56
 949 516 949 516 974.5 463 c 128,-1,57
 1000 410 1000 410 1000 334 c 0,0,1
EndSplineSet
EndChar

StartChar: t
Encoding: 116 116 87
Width: 682
Flags: W
LayerCount: 2
Fore
SplineSet
560 8 m 1,0,1
 523 -3 523 -3 476 -9.5 c 128,-1,2
 429 -16 429 -16 376 -16 c 0,3,4
 317 -16 317 -16 269 -2 c 128,-1,5
 221 12 221 12 187 40 c 128,-1,6
 153 68 153 68 134.5 110.5 c 128,-1,7
 116 153 116 153 116 209 c 0,8,9
 116 254 116 254 121.5 296.5 c 128,-1,10
 127 339 127 339 132 366 c 2,11,-1
 234 892 l 1,12,-1
 86 892 l 1,13,-1
 123 1082 l 1,14,-1
 285 1082 l 1,15,-1
 422 1336 l 1,16,-1
 598 1336 l 1,17,-1
 550 1082 l 1,18,-1
 752 1082 l 1,19,-1
 717 892 l 1,20,-1
 512 892 l 1,21,-1
 408 357 l 2,22,23
 404 337 404 337 400 308.5 c 128,-1,24
 396 280 396 280 397 260 c 0,25,26
 399 218 399 218 422.5 197.5 c 128,-1,27
 446 177 446 177 484 177 c 0,28,29
 508 177 508 177 532.5 180.5 c 128,-1,30
 557 184 557 184 592 190 c 1,31,-1
 560 8 l 1,0,1
EndSplineSet
EndChar

StartChar: u
Encoding: 117 117 88
Width: 1251
Flags: W
LayerCount: 2
Fore
SplineSet
512 1082 m 1,0,-1
 394 487 l 2,1,2
 390 468 390 468 385.5 445 c 128,-1,3
 381 422 381 422 377 399 c 128,-1,4
 373 376 373 376 370.5 356 c 128,-1,5
 368 336 368 336 368 322 c 0,6,7
 368 259 368 259 406 226 c 128,-1,8
 444 193 444 193 520 193 c 0,9,10
 567 193 567 193 614.5 213 c 128,-1,11
 662 233 662 233 702.5 270 c 128,-1,12
 743 307 743 307 773 359.5 c 128,-1,13
 803 412 803 412 815 476 c 2,14,-1
 933 1082 l 1,15,-1
 1215 1082 l 1,16,-1
 1049 231 l 2,17,18
 1042 197 1042 197 1035.5 159.5 c 128,-1,19
 1029 122 1029 122 1024 88.5 c 128,-1,20
 1019 55 1019 55 1015.5 31 c 128,-1,21
 1012 7 1012 7 1011 0 c 1,22,-1
 743 0 l 1,23,24
 743 5 743 5 745.5 27 c 128,-1,25
 748 49 748 49 751.5 77.5 c 128,-1,26
 755 106 755 106 759 135.5 c 128,-1,27
 763 165 763 165 767 185 c 1,28,-1
 764 185 l 1,29,30
 734 143 734 143 698 106 c 128,-1,31
 662 69 662 69 617 41 c 128,-1,32
 572 13 572 13 516 -3 c 128,-1,33
 460 -19 460 -19 391 -19 c 0,34,35
 239 -19 239 -19 162 54 c 128,-1,36
 85 127 85 127 85 265 c 0,37,38
 85 283 85 283 87.5 306 c 128,-1,39
 90 329 90 329 93 351.5 c 128,-1,40
 96 374 96 374 99.5 395 c 128,-1,41
 103 416 103 416 106 429 c 2,42,-1
 233 1082 l 1,43,-1
 512 1082 l 1,0,-1
EndSplineSet
EndChar

StartChar: v
Encoding: 118 118 89
Width: 1139
Flags: W
LayerCount: 2
Fore
SplineSet
622 0 m 1,0,-1
 286 0 l 1,1,-1
 110 1082 l 1,2,-1
 399 1082 l 1,3,-1
 470 477 l 2,4,5
 474 447 474 447 477 411 c 128,-1,6
 480 375 480 375 483 339 c 128,-1,7
 486 303 486 303 488.5 269 c 128,-1,8
 491 235 491 235 492 208 c 1,9,10
 503 234 503 234 517.5 268 c 128,-1,11
 532 302 532 302 548.5 338 c 128,-1,12
 565 374 565 374 582 409 c 128,-1,13
 599 444 599 444 614 474 c 2,14,-1
 930 1082 l 1,15,-1
 1232 1082 l 1,16,-1
 622 0 l 1,0,-1
EndSplineSet
EndChar

StartChar: w
Encoding: 119 119 90
Width: 1593
Flags: W
LayerCount: 2
Fore
SplineSet
1207 0 m 1,0,-1
 910 0 l 1,1,-1
 867 660 l 2,2,3
 865 691 865 691 864.5 731 c 128,-1,4
 864 771 864 771 863 806 c 0,5,6
 862 847 862 847 862 890 c 1,7,8
 846 847 846 847 829 806 c 0,9,10
 815 771 815 771 798.5 730.5 c 128,-1,11
 782 690 782 690 767 658 c 2,12,-1
 465 0 l 1,13,-1
 168 0 l 1,14,-1
 99 1082 l 1,15,-1
 357 1082 l 1,16,-1
 370 446 l 2,17,18
 371 419 371 419 371 385.5 c 128,-1,19
 371 352 371 352 371 323 c 2,20,-1
 371 255 l 1,21,22
 384 289 384 289 398 323 c 0,23,24
 410 352 410 352 423.5 385.5 c 128,-1,25
 437 419 437 419 450 446 c 2,26,-1
 744 1082 l 1,27,-1
 1045 1082 l 1,28,-1
 1087 446 l 2,29,30
 1089 420 1089 420 1089.5 387 c 128,-1,31
 1090 354 1090 354 1091 325 c 0,32,33
 1092 291 1092 291 1092 255 c 1,34,35
 1106 291 1106 291 1120 325 c 0,36,37
 1132 354 1132 354 1145 387 c 128,-1,38
 1158 420 1158 420 1169 446 c 2,39,-1
 1436 1082 l 1,40,-1
 1702 1082 l 1,41,-1
 1207 0 l 1,0,-1
EndSplineSet
EndChar

StartChar: x
Encoding: 120 120 91
Width: 1139
Flags: W
LayerCount: 2
Fore
SplineSet
724 0 m 1,0,-1
 538 383 l 1,1,-1
 211 0 l 1,2,-1
 -90 0 l 1,3,-1
 418 562 l 1,4,-1
 139 1082 l 1,5,-1
 431 1082 l 1,6,-1
 604 735 l 1,7,-1
 900 1082 l 1,8,-1
 1208 1082 l 1,9,-1
 725 557 l 1,10,-1
 1019 0 l 1,11,-1
 724 0 l 1,0,-1
EndSplineSet
EndChar

StartChar: y
Encoding: 121 121 92
Width: 1139
Flags: W
LayerCount: 2
Fore
SplineSet
570 -57 m 1,0,1
 514 -144 514 -144 463.5 -212 c 128,-1,2
 413 -280 413 -280 357.5 -327.5 c 128,-1,3
 302 -375 302 -375 237 -400 c 128,-1,4
 172 -425 172 -425 88 -425 c 0,5,6
 36 -425 36 -425 -5.5 -420.5 c 128,-1,7
 -47 -416 -47 -416 -85 -407 c 1,8,-1
 -47 -211 l 1,9,10
 -29 -215 -29 -215 -4.5 -217.5 c 128,-1,11
 20 -220 20 -220 40 -220 c 0,12,13
 78 -220 78 -220 110.5 -210 c 128,-1,14
 143 -200 143 -200 174 -177 c 128,-1,15
 205 -154 205 -154 235 -116.5 c 128,-1,16
 265 -79 265 -79 296 -24 c 2,17,-1
 324 24 l 1,18,-1
 112 1082 l 1,19,-1
 403 1082 l 1,20,-1
 474 585 l 2,21,22
 476 574 476 574 479.5 548 c 128,-1,23
 483 522 483 522 486.5 488.5 c 128,-1,24
 490 455 490 455 494 418 c 128,-1,25
 498 381 498 381 501 347.5 c 128,-1,26
 504 314 504 314 506.5 288 c 128,-1,27
 509 262 509 262 509 251 c 1,28,29
 514 262 514 262 525.5 287.5 c 128,-1,30
 537 313 537 313 552.5 345.5 c 128,-1,31
 568 378 568 378 585 414 c 128,-1,32
 602 450 602 450 617.5 483 c 128,-1,33
 633 516 633 516 646 542.5 c 128,-1,34
 659 569 659 569 665 581 c 2,35,-1
 924 1082 l 1,36,-1
 1224 1082 l 1,37,-1
 570 -57 l 1,0,1
EndSplineSet
EndChar

StartChar: z
Encoding: 122 122 93
Width: 1024
Flags: W
LayerCount: 2
Fore
SplineSet
-35 0 m 1,0,-1
 3 199 l 1,1,-1
 656 879 l 1,2,-1
 176 879 l 1,3,-1
 216 1082 l 1,4,-1
 1025 1082 l 1,5,-1
 986 881 l 1,6,-1
 336 205 l 1,7,-1
 903 205 l 1,8,-1
 863 0 l 1,9,-1
 -35 0 l 1,0,-1
EndSplineSet
EndChar

StartChar: braceleft
Encoding: 123 123 94
Width: 797
Flags: W
LayerCount: 2
Fore
SplineSet
388 -425 m 2,0,1
 329 -425 329 -425 281.5 -409.5 c 128,-1,2
 234 -394 234 -394 201 -365 c 128,-1,3
 168 -336 168 -336 150 -294.5 c 128,-1,4
 132 -253 132 -253 132 -202 c 0,5,6
 132 -185 132 -185 135 -156 c 128,-1,7
 138 -127 138 -127 143 -101 c 2,8,-1
 204 207 l 2,9,10
 211 242 211 242 211 275 c 0,11,12
 211 317 211 317 197.5 347 c 128,-1,13
 184 377 184 377 159 395.5 c 128,-1,14
 134 414 134 414 98.5 423 c 128,-1,15
 63 432 63 432 19 433 c 1,16,-1
 57 625 l 1,17,18
 110 626 110 626 155 638.5 c 128,-1,19
 200 651 200 651 235 678 c 128,-1,20
 270 705 270 705 294.5 747.5 c 128,-1,21
 319 790 319 790 331 852 c 2,22,-1
 398 1190 l 2,23,24
 427 1336 427 1336 510.5 1410 c 128,-1,25
 594 1484 594 1484 748 1484 c 2,26,-1
 942 1484 l 1,27,-1
 905 1294 l 1,28,-1
 829 1294 l 2,29,30
 784 1294 784 1294 752.5 1281 c 128,-1,31
 721 1268 721 1268 699.5 1242.5 c 128,-1,32
 678 1217 678 1217 663.5 1178.5 c 128,-1,33
 649 1140 649 1140 639 1089 c 2,34,-1
 579 779 l 2,35,36
 569 729 569 729 544.5 687.5 c 128,-1,37
 520 646 520 646 485.5 614.5 c 128,-1,38
 451 583 451 583 409 562 c 128,-1,39
 367 541 367 541 323 532 c 1,40,-1
 322 528 l 1,41,42
 358 519 358 519 387.5 502 c 128,-1,43
 417 485 417 485 439 460.5 c 128,-1,44
 461 436 461 436 473 404 c 128,-1,45
 485 372 485 372 485 333 c 0,46,47
 485 320 485 320 484 307.5 c 128,-1,48
 483 295 483 295 480 281 c 2,49,-1
 415 -53 l 2,50,51
 412 -67 412 -67 409 -89.5 c 128,-1,52
 406 -112 406 -112 406 -129 c 0,53,54
 406 -182 406 -182 439 -208 c 128,-1,55
 472 -234 472 -234 528 -234 c 2,56,-1
 608 -234 l 1,57,-1
 571 -425 l 1,58,-1
 388 -425 l 2,0,1
EndSplineSet
EndChar

StartChar: bar
Encoding: 124 124 95
Width: 573
Flags: W
LayerCount: 2
Fore
SplineSet
191 -425 m 1,0,-1
 191 1484 l 1,1,-1
 453 1484 l 1,2,-1
 453 -425 l 1,3,-1
 191 -425 l 1,0,-1
EndSplineSet
EndChar

StartChar: braceright
Encoding: 125 125 96
Width: 797
Flags: W
LayerCount: 2
Fore
SplineSet
399 1485 m 2,0,1
 458 1485 458 1485 505.5 1469.5 c 128,-1,2
 553 1454 553 1454 586 1425 c 128,-1,3
 619 1396 619 1396 637 1354.5 c 128,-1,4
 655 1313 655 1313 655 1262 c 0,5,6
 655 1245 655 1245 652 1215.5 c 128,-1,7
 649 1186 649 1186 644 1161 c 2,8,-1
 583 853 l 2,9,10
 579 834 579 834 577.5 817 c 128,-1,11
 576 800 576 800 576 785 c 0,12,13
 576 742 576 742 589.5 712.5 c 128,-1,14
 603 683 603 683 628 664 c 128,-1,15
 653 645 653 645 688.5 636.5 c 128,-1,16
 724 628 724 628 768 627 c 1,17,-1
 730 435 l 1,18,19
 677 434 677 434 632 421.5 c 128,-1,20
 587 409 587 409 552 382 c 128,-1,21
 517 355 517 355 492.5 312 c 128,-1,22
 468 269 468 269 456 207 c 2,23,-1
 389 -130 l 2,24,25
 374 -204 374 -204 346.5 -259 c 128,-1,26
 319 -314 319 -314 276.5 -351 c 128,-1,27
 234 -388 234 -388 175 -406.5 c 128,-1,28
 116 -425 116 -425 39 -425 c 2,29,-1
 -155 -425 l 1,30,-1
 -118 -235 l 1,31,-1
 -42 -235 l 2,32,33
 3 -235 3 -235 34.5 -222 c 128,-1,34
 66 -209 66 -209 87.5 -183.5 c 128,-1,35
 109 -158 109 -158 123.5 -119.5 c 128,-1,36
 138 -81 138 -81 148 -30 c 2,37,-1
 208 280 l 2,38,39
 218 330 218 330 242.5 372 c 128,-1,40
 267 414 267 414 301.5 445.5 c 128,-1,41
 336 477 336 477 378 498 c 128,-1,42
 420 519 420 519 464 528 c 1,43,-1
 465 531 l 1,44,45
 429 540 429 540 399.5 557 c 128,-1,46
 370 574 370 574 348 599 c 128,-1,47
 326 624 326 624 314 656 c 128,-1,48
 302 688 302 688 302 727 c 0,49,50
 302 739 302 739 303 752 c 128,-1,51
 304 765 304 765 307 779 c 2,52,-1
 372 1112 l 2,53,54
 375 1127 375 1127 378 1149.5 c 128,-1,55
 381 1172 381 1172 381 1189 c 0,56,57
 381 1242 381 1242 348 1268 c 128,-1,58
 315 1294 315 1294 259 1294 c 2,59,-1
 179 1294 l 1,60,-1
 216 1485 l 1,61,-1
 399 1485 l 2,0,1
EndSplineSet
EndChar

StartChar: asciitilde
Encoding: 126 126 97
Width: 1196
Flags: W
LayerCount: 2
Fore
SplineSet
889 516 m 0,0,1
 814 516 814 516 741.5 537 c 128,-1,2
 669 558 669 558 594 584 c 0,3,4
 528 607 528 607 473.5 619 c 128,-1,5
 419 631 419 631 373 631 c 0,6,7
 334 631 334 631 300.5 625 c 128,-1,8
 267 619 267 619 236.5 607.5 c 128,-1,9
 206 596 206 596 177 580 c 128,-1,10
 148 564 148 564 118 543 c 1,11,-1
 118 756 l 1,12,13
 169 794 169 794 237 817 c 128,-1,14
 305 840 305 840 389 840 c 0,15,16
 469 840 469 840 545.5 818 c 128,-1,17
 622 796 622 796 696 770 c 0,18,19
 750 751 750 751 805 737 c 128,-1,20
 860 723 860 723 908 723 c 0,21,22
 976 723 976 723 1040 748 c 128,-1,23
 1104 773 1104 773 1156 815 c 1,24,-1
 1156 596 l 1,25,26
 1124 574 1124 574 1093.5 558.5 c 128,-1,27
 1063 543 1063 543 1031.5 533.5 c 128,-1,28
 1000 524 1000 524 965 520 c 128,-1,29
 930 516 930 516 889 516 c 0,0,1
EndSplineSet
EndChar

StartChar: exclamdown
Encoding: 161 161 98
Width: 682
Flags: W
LayerCount: 2
Fore
SplineSet
247 812 m 1,0,-1
 300 1082 l 1,1,-1
 588 1082 l 1,2,-1
 535 812 l 1,3,-1
 247 812 l 1,0,-1
20 -327 m 1,4,-1
 242 654 l 1,5,-1
 472 654 l 1,6,-1
 314 -327 l 1,7,-1
 20 -327 l 1,4,-1
EndSplineSet
EndChar

StartChar: cent
Encoding: 162 162 99
Width: 1139
Flags: W
HStem: 1389 20G<664.974 831>
VStem: 76 295<386.161 805.57>
LayerCount: 2
Fore
SplineSet
463.072 346.144 m 1,0,-1
 600.44 1055.14 l 1,1,2
 541.199 1038.64 541.199 1038.64 504.599 992.321 c 0,3,4
 440.984 911.808 440.984 911.808 394 730 c 1,5,6
 371 615 371 615 371 562 c 0,7,8
 371 392.472 371 392.472 463.072 346.144 c 1,0,-1
624.047 340.857 m 1,9,10
 723.009 378.311 723.009 378.311 772 536 c 1,11,-1
 1043 486 l 1,12,13
 942.444 158.1 942.444 158.1 584.361 136.022 c 1,14,-1
 552 -31 l 1,15,-1
 390 -31 l 1,16,-1
 422 143 l 1,17,18
 251.704 170.093 251.704 170.093 161 284 c 0,19,20
 76 390.744 76 390.744 76 560 c 0,21,22
 76 665.364 76 665.364 94 739 c 1,23,24
 157.889 1018.29 157.889 1018.29 320.5 1145.5 c 0,25,26
 448.348 1245.52 448.348 1245.52 638 1255 c 1,27,-1
 669 1409 l 1,28,-1
 831 1409 l 1,29,-1
 799.781 1247.87 l 1,30,31
 949.622 1222.99 949.622 1222.99 1034.5 1122 c 0,32,33
 1111.32 1030.6 1111.32 1030.6 1122 896 c 1,34,-1
 838 873 l 1,35,36
 831.007 998.874 831.007 998.874 759.935 1042.21 c 1,37,-1
 624.047 340.857 l 1,9,10
EndSplineSet
EndChar

StartChar: sterling
Encoding: 163 163 100
Width: 1139
Flags: W
LayerCount: 2
Fore
SplineSet
1104 363 m 1,0,1
 1062 184 1062 184 948 92 c 128,-1,2
 834 0 834 0 663 0 c 2,3,-1
 -51 0 l 1,4,-1
 -12 205 l 1,5,6
 82 243 82 243 139 309.5 c 128,-1,7
 196 376 196 376 217 481 c 2,8,-1
 242 604 l 1,9,-1
 55 604 l 1,10,-1
 87 774 l 1,11,-1
 265 774 l 1,12,-1
 316 1034 l 2,13,14
 334 1129 334 1129 367.5 1202.5 c 128,-1,15
 401 1276 401 1276 455 1326.5 c 128,-1,16
 509 1377 509 1377 587 1403.5 c 128,-1,17
 665 1430 665 1430 772 1430 c 0,18,19
 871 1430 871 1430 943.5 1406 c 128,-1,20
 1016 1382 1016 1382 1065 1340.5 c 128,-1,21
 1114 1299 1114 1299 1140.5 1244.5 c 128,-1,22
 1167 1190 1167 1190 1174 1130 c 1,23,-1
 929 1082 l 1,24,25
 914 1166 914 1166 872.5 1202.5 c 128,-1,26
 831 1239 831 1239 760 1239 c 0,27,28
 723 1239 723 1239 694 1229 c 128,-1,29
 665 1219 665 1219 643 1196 c 128,-1,30
 621 1173 621 1173 605 1135.5 c 128,-1,31
 589 1098 589 1098 578 1042 c 2,32,-1
 525 774 l 1,33,-1
 811 774 l 1,34,-1
 778 604 l 1,35,-1
 492 604 l 1,36,-1
 465 478 l 2,37,38
 442 371 442 371 382 307.5 c 128,-1,39
 322 244 322 244 233 210 c 1,40,-1
 641 210 l 2,41,42
 736 210 736 210 795.5 255 c 128,-1,43
 855 300 855 300 879 402 c 1,44,-1
 1104 363 l 1,0,1
EndSplineSet
EndChar

StartChar: currency
Encoding: 164 164 101
Width: 1139
Flags: W
LayerCount: 2
Fore
SplineSet
149 684 m 256,0,1
 149 744 149 744 164.5 800 c 128,-1,2
 180 856 180 856 209 905 c 1,3,-1
 76 1038 l 1,4,-1
 233 1194 l 1,5,-1
 364 1061 l 1,6,7
 412 1089 412 1089 468 1104.5 c 128,-1,8
 524 1120 524 1120 584 1120 c 256,9,10
 644 1120 644 1120 699.5 1105 c 128,-1,11
 755 1090 755 1090 803 1061 c 1,12,-1
 938 1196 l 1,13,-1
 1096 1038 l 1,14,-1
 960 903 l 1,15,16
 989 855 989 855 1004.5 799.5 c 128,-1,17
 1020 744 1020 744 1020 684 c 256,18,19
 1020 624 1020 624 1005 569.5 c 128,-1,20
 990 515 990 515 962 467 c 1,21,-1
 1096 334 l 1,22,-1
 938 174 l 1,23,-1
 805 309 l 1,24,25
 705 250 705 250 584 250 c 0,26,27
 524 250 524 250 468 264.5 c 128,-1,28
 412 279 412 279 364 307 c 1,29,-1
 229 170 l 1,30,-1
 72 328 l 1,31,-1
 207 465 l 1,32,33
 179 513 179 513 164 568.5 c 128,-1,34
 149 624 149 624 149 684 c 256,0,1
375 686 m 256,35,36
 375 643 375 643 391.5 605 c 128,-1,37
 408 567 408 567 436.5 538.5 c 128,-1,38
 465 510 465 510 503 493.5 c 128,-1,39
 541 477 541 477 584 477 c 256,40,41
 627 477 627 477 664.5 493.5 c 128,-1,42
 702 510 702 510 730.5 538.5 c 128,-1,43
 759 567 759 567 775.5 605 c 128,-1,44
 792 643 792 643 792 686 c 256,45,46
 792 729 792 729 775.5 767 c 128,-1,47
 759 805 759 805 730.5 833.5 c 128,-1,48
 702 862 702 862 664.5 878.5 c 128,-1,49
 627 895 627 895 584 895 c 256,50,51
 541 895 541 895 503 878.5 c 128,-1,52
 465 862 465 862 436.5 833.5 c 128,-1,53
 408 805 408 805 391.5 767 c 128,-1,54
 375 729 375 729 375 686 c 256,35,36
EndSplineSet
EndChar

StartChar: yen
Encoding: 165 165 102
Width: 1139
Flags: W
LayerCount: 2
Fore
SplineSet
797 691 m 1,0,-1
 1073 691 l 1,1,-1
 1045 545 l 1,2,-1
 707 545 l 1,3,-1
 675 383 l 1,4,-1
 1013 383 l 1,5,-1
 985 236 l 1,6,-1
 647 236 l 1,7,-1
 601 0 l 1,8,-1
 329 0 l 1,9,-1
 375 236 l 1,10,-1
 39 236 l 1,11,-1
 67 383 l 1,12,-1
 404 383 l 1,13,-1
 436 545 l 1,14,-1
 99 545 l 1,15,-1
 127 691 l 1,16,-1
 403 691 l 1,17,-1
 179 1409 l 1,18,-1
 463 1409 l 1,19,-1
 617 813 l 1,20,-1
 1007 1409 l 1,21,-1
 1301 1409 l 1,22,-1
 797 691 l 1,0,-1
EndSplineSet
EndChar

StartChar: brokenbar
Encoding: 166 166 103
Width: 573
Flags: W
LayerCount: 2
Fore
SplineSet
192 736 m 1,0,-1
 192 1484 l 1,1,-1
 454 1484 l 1,2,-1
 454 736 l 1,3,-1
 192 736 l 1,0,-1
192 -425 m 1,4,-1
 192 324 l 1,5,-1
 454 324 l 1,6,-1
 454 -425 l 1,7,-1
 192 -425 l 1,4,-1
EndSplineSet
EndChar

StartChar: section
Encoding: 167 167 104
Width: 1139
Flags: W
LayerCount: 2
Fore
SplineSet
718 1427 m 0,0,1
 805 1427 805 1427 882 1412.5 c 128,-1,2
 959 1398 959 1398 1016.5 1366 c 128,-1,3
 1074 1334 1074 1334 1109 1281.5 c 128,-1,4
 1144 1229 1144 1229 1148 1153 c 1,5,-1
 904 1128 l 1,6,7
 892 1196 892 1196 836 1226.5 c 128,-1,8
 780 1257 780 1257 697 1257 c 0,9,10
 584 1257 584 1257 526.5 1223 c 128,-1,11
 469 1189 469 1189 469 1124 c 0,12,13
 469 1087 469 1087 492.5 1060.5 c 128,-1,14
 516 1034 516 1034 552.5 1016 c 128,-1,15
 589 998 589 998 634 985.5 c 128,-1,16
 679 973 679 973 722 963 c 0,17,18
 787 948 787 948 850.5 925 c 128,-1,19
 914 902 914 902 965 867.5 c 128,-1,20
 1016 833 1016 833 1047.5 784.5 c 128,-1,21
 1079 736 1079 736 1079 668 c 0,22,23
 1079 604 1079 604 1061.5 556 c 128,-1,24
 1044 508 1044 508 1011.5 472 c 128,-1,25
 979 436 979 436 933 411 c 128,-1,26
 887 386 887 386 830 368 c 1,27,28
 893 333 893 333 927.5 275 c 128,-1,29
 962 217 962 217 962 142 c 0,30,31
 962 48 962 48 925.5 -21.5 c 128,-1,32
 889 -91 889 -91 820 -137 c 128,-1,33
 751 -183 751 -183 651.5 -206 c 128,-1,34
 552 -229 552 -229 425 -229 c 0,35,36
 322 -229 322 -229 240 -213.5 c 128,-1,37
 158 -198 158 -198 98.5 -164 c 128,-1,38
 39 -130 39 -130 3.5 -75 c 128,-1,39
 -32 -20 -32 -20 -42 59 c 1,40,-1
 202 96 l 1,41,42
 216 13 216 13 274 -23 c 128,-1,43
 332 -59 332 -59 438 -59 c 0,44,45
 489 -59 489 -59 538.5 -52 c 128,-1,46
 588 -45 588 -45 627.5 -27.5 c 128,-1,47
 667 -10 667 -10 691.5 20 c 128,-1,48
 716 50 716 50 716 95 c 0,49,50
 716 142 716 142 692 172 c 128,-1,51
 668 202 668 202 626.5 222 c 128,-1,52
 585 242 585 242 530.5 255.5 c 128,-1,53
 476 269 476 269 416 283 c 0,54,55
 353 297 353 297 295 320 c 128,-1,56
 237 343 237 343 192.5 378.5 c 128,-1,57
 148 414 148 414 121.5 464.5 c 128,-1,58
 95 515 95 515 95 585 c 0,59,60
 95 642 95 642 114.5 686.5 c 128,-1,61
 134 731 134 731 169.5 765 c 128,-1,62
 205 799 205 799 255 822.5 c 128,-1,63
 305 846 305 846 366 861 c 1,64,65
 337 877 337 877 311 899 c 128,-1,66
 285 921 285 921 265 950.5 c 128,-1,67
 245 980 245 980 233 1017.5 c 128,-1,68
 221 1055 221 1055 221 1100 c 0,69,70
 221 1189 221 1189 255 1251 c 128,-1,71
 289 1313 289 1313 353 1352 c 128,-1,72
 417 1391 417 1391 509.5 1409 c 128,-1,73
 602 1427 602 1427 718 1427 c 0,0,1
571 780 m 1,74,75
 468 774 468 774 407 735 c 128,-1,76
 346 696 346 696 346 626 c 0,77,78
 346 586 346 586 367 558.5 c 128,-1,79
 388 531 388 531 423 511.5 c 128,-1,80
 458 492 458 492 504 479 c 128,-1,81
 550 466 550 466 600 454 c 1,82,83
 639 457 639 457 680 465.5 c 128,-1,84
 721 474 721 474 754.5 490.5 c 128,-1,85
 788 507 788 507 809 533 c 128,-1,86
 830 559 830 559 830 598 c 0,87,88
 830 633 830 633 817.5 659 c 128,-1,89
 805 685 805 685 775 706.5 c 128,-1,90
 745 728 745 728 695 745.5 c 128,-1,91
 645 763 645 763 571 780 c 1,74,75
EndSplineSet
EndChar

StartChar: dieresis
Encoding: 168 168 105
Width: 682
Flags: W
LayerCount: 2
Fore
SplineSet
568 1199 m 1,0,-1
 611 1418 l 1,1,-1
 828 1418 l 1,2,-1
 785 1199 l 1,3,-1
 568 1199 l 1,0,-1
135 1199 m 1,4,-1
 177 1418 l 1,5,-1
 391 1418 l 1,6,-1
 348 1199 l 1,7,-1
 135 1199 l 1,4,-1
EndSplineSet
EndChar

StartChar: copyright
Encoding: 169 169 106
Width: 1509
Flags: W
LayerCount: 2
Fore
SplineSet
1508 707 m 0,0,1
 1508 607 1508 607 1482 514.5 c 128,-1,2
 1456 422 1456 422 1409 341.5 c 128,-1,3
 1362 261 1362 261 1296.5 195.5 c 128,-1,4
 1231 130 1231 130 1150.5 83 c 128,-1,5
 1070 36 1070 36 977.5 10 c 128,-1,6
 885 -16 885 -16 785 -16 c 0,7,8
 686 -16 686 -16 593.5 10 c 128,-1,9
 501 36 501 36 421 83 c 128,-1,10
 341 130 341 130 274.5 195.5 c 128,-1,11
 208 261 208 261 161 341.5 c 128,-1,12
 114 422 114 422 88 514.5 c 128,-1,13
 62 607 62 607 62 707 c 256,14,15
 62 807 62 807 88 899 c 128,-1,16
 114 991 114 991 161 1071.5 c 128,-1,17
 208 1152 208 1152 274 1218 c 128,-1,18
 340 1284 340 1284 420.5 1331 c 128,-1,19
 501 1378 501 1378 593 1404 c 128,-1,20
 685 1430 685 1430 785 1430 c 0,21,22
 935 1430 935 1430 1066.5 1373 c 128,-1,23
 1198 1316 1198 1316 1296.5 1218 c 128,-1,24
 1395 1120 1395 1120 1451.5 988.5 c 128,-1,25
 1508 857 1508 857 1508 707 c 0,0,1
1396 707 m 0,26,27
 1396 833 1396 833 1348 943.5 c 128,-1,28
 1300 1054 1300 1054 1217 1136.5 c 128,-1,29
 1134 1219 1134 1219 1023 1267 c 128,-1,30
 912 1315 912 1315 785 1315 c 0,31,32
 701 1315 701 1315 623.5 1293 c 128,-1,33
 546 1271 546 1271 478 1231.5 c 128,-1,34
 410 1192 410 1192 355 1136.5 c 128,-1,35
 300 1081 300 1081 260 1013.5 c 128,-1,36
 220 946 220 946 198.5 868.5 c 128,-1,37
 177 791 177 791 177 707 c 0,38,39
 177 580 177 580 225 469 c 128,-1,40
 273 358 273 358 355.5 275 c 128,-1,41
 438 192 438 192 548.5 144 c 128,-1,42
 659 96 659 96 785 96 c 0,43,44
 912 96 912 96 1023 144 c 128,-1,45
 1134 192 1134 192 1217 275 c 128,-1,46
 1300 358 1300 358 1348 469 c 128,-1,47
 1396 580 1396 580 1396 707 c 0,26,27
798 285 m 0,48,49
 694 285 694 285 618 316.5 c 128,-1,50
 542 348 542 348 492 404.5 c 128,-1,51
 442 461 442 461 418 539 c 128,-1,52
 394 617 394 617 394 709 c 0,53,54
 394 805 394 805 418 882 c 128,-1,55
 442 959 442 959 491 1012.5 c 128,-1,56
 540 1066 540 1066 614.5 1095 c 128,-1,57
 689 1124 689 1124 789 1124 c 0,58,59
 867 1124 867 1124 925 1105.5 c 128,-1,60
 983 1087 983 1087 1024.5 1055.5 c 128,-1,61
 1066 1024 1066 1024 1094.5 982.5 c 128,-1,62
 1123 941 1123 941 1142 895 c 1,63,-1
 986 854 l 1,64,65
 976 878 976 878 960 901 c 128,-1,66
 944 924 944 924 920.5 942.5 c 128,-1,67
 897 961 897 961 866 972 c 128,-1,68
 835 983 835 983 794 983 c 0,69,70
 736 983 736 983 694 963.5 c 128,-1,71
 652 944 652 944 625.5 908 c 128,-1,72
 599 872 599 872 586.5 821.5 c 128,-1,73
 574 771 574 771 574 709 c 256,74,75
 574 647 574 647 587.5 595 c 128,-1,76
 601 543 601 543 629 505.5 c 128,-1,77
 657 468 657 468 699 447 c 128,-1,78
 741 426 741 426 798 426 c 0,79,80
 839 426 839 426 871 439 c 128,-1,81
 903 452 903 452 927 473 c 128,-1,82
 951 494 951 494 967.5 519.5 c 128,-1,83
 984 545 984 545 994 569 c 1,84,-1
 1154 522 l 1,85,86
 1134 479 1134 479 1105.5 436.5 c 128,-1,87
 1077 394 1077 394 1035 360 c 128,-1,88
 993 326 993 326 935 305.5 c 128,-1,89
 877 285 877 285 798 285 c 0,48,49
EndSplineSet
EndChar

StartChar: ordfeminine
Encoding: 170 170 107
Width: 758
Flags: W
LayerCount: 2
Fore
SplineSet
790 709 m 1,0,1
 764 700 764 700 735 698.5 c 128,-1,2
 706 697 706 697 679 697 c 0,3,4
 613 697 613 697 577.5 723 c 128,-1,5
 542 749 542 749 542 795 c 0,6,7
 542 804 542 804 542.5 815 c 128,-1,8
 543 826 543 826 545 836 c 1,9,-1
 542 836 l 1,10,11
 520 802 520 802 497.5 774.5 c 128,-1,12
 475 747 475 747 447.5 728 c 128,-1,13
 420 709 420 709 385 699 c 128,-1,14
 350 689 350 689 304 689 c 0,15,16
 254 689 254 689 216.5 705.5 c 128,-1,17
 179 722 179 722 154 749 c 128,-1,18
 129 776 129 776 116.5 811 c 128,-1,19
 104 846 104 846 104 884 c 0,20,21
 104 962 104 962 136 1009.5 c 128,-1,22
 168 1057 168 1057 218.5 1083 c 128,-1,23
 269 1109 269 1109 332 1118 c 128,-1,24
 395 1127 395 1127 457 1128 c 2,25,-1
 580 1130 l 1,26,-1
 585 1156 l 1,27,28
 594 1192 594 1192 594 1217 c 0,29,30
 594 1259 594 1259 572 1279 c 128,-1,31
 550 1299 550 1299 512 1299 c 0,32,33
 493 1299 493 1299 473 1296.5 c 128,-1,34
 453 1294 453 1294 435 1284.5 c 128,-1,35
 417 1275 417 1275 402.5 1257 c 128,-1,36
 388 1239 388 1239 380 1208 c 1,37,-1
 209 1227 l 1,38,39
 229 1315 229 1315 303 1366.5 c 128,-1,40
 377 1418 377 1418 515 1418 c 0,41,42
 650 1418 650 1418 712.5 1371.5 c 128,-1,43
 775 1325 775 1325 775 1227 c 0,44,45
 775 1207 775 1207 769.5 1179 c 128,-1,46
 764 1151 764 1151 759 1124 c 2,47,-1
 712 895 l 1,48,49
 711 884 711 884 709 871.5 c 128,-1,50
 707 859 707 859 707 848 c 0,51,52
 707 832 707 832 713.5 823.5 c 128,-1,53
 720 815 720 815 728.5 811 c 128,-1,54
 737 807 737 807 746 806 c 128,-1,55
 755 805 755 805 759 805 c 0,56,57
 769 805 769 805 776.5 806 c 128,-1,58
 784 807 784 807 800 811 c 1,59,-1
 790 709 l 1,0,1
561 1029 m 1,60,-1
 463 1027 l 2,61,62
 386 1025 386 1025 342 996.5 c 128,-1,63
 298 968 298 968 298 914 c 0,64,65
 298 863 298 863 323.5 839.5 c 128,-1,66
 349 816 349 816 387 816 c 0,67,68
 405 816 405 816 428 823.5 c 128,-1,69
 451 831 451 831 473.5 848.5 c 128,-1,70
 496 866 496 866 515 895.5 c 128,-1,71
 534 925 534 925 545 969 c 2,72,-1
 561 1029 l 1,60,-1
EndSplineSet
EndChar

StartChar: guillemotleft
Encoding: 171 171 108
Width: 1139
Flags: W
LayerCount: 2
Fore
SplineSet
722 139 m 1,0,-1
 530 500 l 1,1,-1
 544 571 l 1,2,-1
 867 938 l 1,3,-1
 1106 938 l 1,4,-1
 1100 897 l 1,5,-1
 771 531 l 1,6,-1
 959 178 l 1,7,-1
 954 139 l 1,8,-1
 722 139 l 1,0,-1
264 139 m 1,9,-1
 72 500 l 1,10,-1
 86 571 l 1,11,-1
 409 938 l 1,12,-1
 648 938 l 1,13,-1
 642 897 l 1,14,-1
 313 531 l 1,15,-1
 501 178 l 1,16,-1
 496 139 l 1,17,-1
 264 139 l 1,9,-1
EndSplineSet
EndChar

StartChar: logicalnot
Encoding: 172 172 109
Width: 1196
Flags: W
LayerCount: 2
Fore
SplineSet
878 141 m 1,0,-1
 878 569 l 1,1,-1
 75 569 l 1,2,-1
 75 793 l 1,3,-1
 1102 793 l 1,4,-1
 1102 141 l 1,5,-1
 878 141 l 1,0,-1
EndSplineSet
EndChar

StartChar: registered
Encoding: 174 174 110
Width: 1509
Flags: W
LayerCount: 2
Fore
SplineSet
1508 707 m 0,0,1
 1508 607 1508 607 1482 514.5 c 128,-1,2
 1456 422 1456 422 1409 341.5 c 128,-1,3
 1362 261 1362 261 1296.5 195.5 c 128,-1,4
 1231 130 1231 130 1150.5 83 c 128,-1,5
 1070 36 1070 36 977.5 10 c 128,-1,6
 885 -16 885 -16 785 -16 c 0,7,8
 686 -16 686 -16 593.5 10 c 128,-1,9
 501 36 501 36 421 83 c 128,-1,10
 341 130 341 130 274.5 195.5 c 128,-1,11
 208 261 208 261 161 341.5 c 128,-1,12
 114 422 114 422 88 514.5 c 128,-1,13
 62 607 62 607 62 707 c 256,14,15
 62 807 62 807 88 899 c 128,-1,16
 114 991 114 991 161 1071.5 c 128,-1,17
 208 1152 208 1152 274 1218 c 128,-1,18
 340 1284 340 1284 420.5 1331 c 128,-1,19
 501 1378 501 1378 593 1404 c 128,-1,20
 685 1430 685 1430 785 1430 c 0,21,22
 935 1430 935 1430 1066.5 1373 c 128,-1,23
 1198 1316 1198 1316 1296.5 1218 c 128,-1,24
 1395 1120 1395 1120 1451.5 988.5 c 128,-1,25
 1508 857 1508 857 1508 707 c 0,0,1
1396 707 m 0,26,27
 1396 833 1396 833 1348 943.5 c 128,-1,28
 1300 1054 1300 1054 1217 1136.5 c 128,-1,29
 1134 1219 1134 1219 1023 1267 c 128,-1,30
 912 1315 912 1315 785 1315 c 0,31,32
 701 1315 701 1315 623.5 1293 c 128,-1,33
 546 1271 546 1271 478 1231.5 c 128,-1,34
 410 1192 410 1192 355 1136.5 c 128,-1,35
 300 1081 300 1081 260 1013.5 c 128,-1,36
 220 946 220 946 198.5 868.5 c 128,-1,37
 177 791 177 791 177 707 c 0,38,39
 177 580 177 580 225 469 c 128,-1,40
 273 358 273 358 355.5 275 c 128,-1,41
 438 192 438 192 548.5 144 c 128,-1,42
 659 96 659 96 785 96 c 0,43,44
 912 96 912 96 1023 144 c 128,-1,45
 1134 192 1134 192 1217 275 c 128,-1,46
 1300 358 1300 358 1348 469 c 128,-1,47
 1396 580 1396 580 1396 707 c 0,26,27
953 297 m 1,48,-1
 775 610 l 1,49,-1
 658 610 l 1,50,-1
 658 297 l 1,51,-1
 480 297 l 1,52,-1
 480 1112 l 1,53,-1
 810 1112 l 2,54,55
 963 1112 963 1112 1039 1047.5 c 128,-1,56
 1115 983 1115 983 1115 870 c 0,57,58
 1115 776 1115 776 1067 717 c 128,-1,59
 1019 658 1019 658 941 633 c 1,60,-1
 1154 297 l 1,61,-1
 953 297 l 1,48,-1
935 868 m 0,62,63
 935 925 935 925 897.5 955 c 128,-1,64
 860 985 860 985 791 985 c 2,65,-1
 658 985 l 1,66,-1
 658 739 l 1,67,-1
 802 739 l 2,68,69
 868 739 868 739 901.5 774.5 c 128,-1,70
 935 810 935 810 935 868 c 0,62,63
EndSplineSet
EndChar

StartChar: macron
Encoding: 175 175 111
Width: 1131
Flags: W
LayerCount: 2
Fore
SplineSet
1148 1452 m 1,0,-1
 -17 1452 l 1,1,-1
 -17 1546 l 1,2,-1
 1148 1546 l 1,3,-1
 1148 1452 l 1,0,-1
EndSplineSet
EndChar

StartChar: degree
Encoding: 176 176 112
Width: 819
Flags: W
LayerCount: 2
Fore
SplineSet
830 1110 m 0,0,1
 830 1044 830 1044 804.5 986.5 c 128,-1,2
 779 929 779 929 735.5 886.5 c 128,-1,3
 692 844 692 844 633.5 819.5 c 128,-1,4
 575 795 575 795 509 795 c 256,5,6
 443 795 443 795 384.5 819.5 c 128,-1,7
 326 844 326 844 282.5 886.5 c 128,-1,8
 239 929 239 929 214 986.5 c 128,-1,9
 189 1044 189 1044 189 1110 c 0,10,11
 189 1177 189 1177 214 1234.5 c 128,-1,12
 239 1292 239 1292 282.5 1334.5 c 128,-1,13
 326 1377 326 1377 384.5 1401 c 128,-1,14
 443 1425 443 1425 509 1425 c 256,15,16
 575 1425 575 1425 633.5 1401 c 128,-1,17
 692 1377 692 1377 735.5 1334.5 c 128,-1,18
 779 1292 779 1292 804.5 1234.5 c 128,-1,19
 830 1177 830 1177 830 1110 c 0,0,1
672 1110 m 0,20,21
 672 1145 672 1145 659.5 1175.5 c 128,-1,22
 647 1206 647 1206 625 1228.5 c 128,-1,23
 603 1251 603 1251 573.5 1263.5 c 128,-1,24
 544 1276 544 1276 509 1276 c 256,25,26
 474 1276 474 1276 444 1263.5 c 128,-1,27
 414 1251 414 1251 391.5 1228.5 c 128,-1,28
 369 1206 369 1206 356 1175.5 c 128,-1,29
 343 1145 343 1145 343 1110 c 0,30,31
 343 1076 343 1076 356 1045.5 c 128,-1,32
 369 1015 369 1015 391.5 992 c 128,-1,33
 414 969 414 969 444 955.5 c 128,-1,34
 474 942 474 942 509 942 c 256,35,36
 544 942 544 942 573.5 955.5 c 128,-1,37
 603 969 603 969 625 992 c 128,-1,38
 647 1015 647 1015 659.5 1045.5 c 128,-1,39
 672 1076 672 1076 672 1110 c 0,20,21
EndSplineSet
EndChar

StartChar: plusminus
Encoding: 177 177 113
Width: 1124
Flags: W
LayerCount: 2
Fore
SplineSet
712 707 m 1,0,-1
 712 366 l 1,1,-1
 488 366 l 1,2,-1
 488 707 l 1,3,-1
 87 707 l 1,4,-1
 87 930 l 1,5,-1
 488 930 l 1,6,-1
 488 1270 l 1,7,-1
 712 1270 l 1,8,-1
 712 930 l 1,9,-1
 1114 930 l 1,10,-1
 1114 707 l 1,11,-1
 712 707 l 1,0,-1
87 0 m 1,12,-1
 87 223 l 1,13,-1
 1114 223 l 1,14,-1
 1114 0 l 1,15,-1
 87 0 l 1,12,-1
EndSplineSet
EndChar

StartChar: uni00B2
Encoding: 178 178 114
Width: 682
Flags: W
LayerCount: 2
Fore
SplineSet
71 696 m 1,0,-1
 95 816 l 1,1,2
 131 873 131 873 178.5 914 c 128,-1,3
 226 955 226 955 275.5 986.5 c 128,-1,4
 325 1018 325 1018 373 1044.5 c 128,-1,5
 421 1071 421 1071 458.5 1098 c 128,-1,6
 496 1125 496 1125 519 1156.5 c 128,-1,7
 542 1188 542 1188 542 1231 c 0,8,9
 542 1260 542 1260 520 1279.5 c 128,-1,10
 498 1299 498 1299 463 1299 c 0,11,12
 427 1299 427 1299 395.5 1279 c 128,-1,13
 364 1259 364 1259 349 1202 c 1,14,-1
 187 1236 l 1,15,16
 218 1335 218 1335 287 1380.5 c 128,-1,17
 356 1426 356 1426 479 1426 c 0,18,19
 542 1426 542 1426 588 1411.5 c 128,-1,20
 634 1397 634 1397 665 1371.5 c 128,-1,21
 696 1346 696 1346 711 1312 c 128,-1,22
 726 1278 726 1278 726 1239 c 0,23,24
 726 1179 726 1179 701 1134.5 c 128,-1,25
 676 1090 676 1090 637.5 1055.5 c 128,-1,26
 599 1021 599 1021 551 994 c 128,-1,27
 503 967 503 967 457 942.5 c 128,-1,28
 411 918 411 918 372 893.5 c 128,-1,29
 333 869 333 869 311 839 c 1,30,-1
 660 839 l 1,31,-1
 635 696 l 1,32,-1
 71 696 l 1,0,-1
EndSplineSet
EndChar

StartChar: uni00B3
Encoding: 179 179 115
Width: 682
Flags: W
LayerCount: 2
Fore
SplineSet
496 915 m 0,0,1
 496 942 496 942 486 958.5 c 128,-1,2
 476 975 476 975 460.5 984 c 128,-1,3
 445 993 445 993 425 996.5 c 128,-1,4
 405 1000 405 1000 385 1000 c 2,5,-1
 317 1000 l 1,6,-1
 341 1126 l 1,7,-1
 401 1126 l 2,8,9
 463 1126 463 1126 501 1151 c 128,-1,10
 539 1176 539 1176 539 1221 c 0,11,12
 539 1260 539 1260 518.5 1282 c 128,-1,13
 498 1304 498 1304 456 1304 c 256,14,15
 414 1304 414 1304 384.5 1283 c 128,-1,16
 355 1262 355 1262 341 1210 c 1,17,-1
 178 1234 l 1,18,19
 193 1290 193 1290 220 1326.5 c 128,-1,20
 247 1363 247 1363 285 1385.5 c 128,-1,21
 323 1408 323 1408 371 1417 c 128,-1,22
 419 1426 419 1426 476 1426 c 0,23,24
 594 1426 594 1426 660 1381.5 c 128,-1,25
 726 1337 726 1337 726 1247 c 0,26,27
 726 1215 726 1215 714 1184 c 128,-1,28
 702 1153 702 1153 679 1128.5 c 128,-1,29
 656 1104 656 1104 621.5 1087.5 c 128,-1,30
 587 1071 587 1071 543 1067 c 1,31,-1
 542 1065 l 1,32,33
 606 1053 606 1053 645 1014.5 c 128,-1,34
 684 976 684 976 684 913 c 0,35,36
 684 862 684 862 661.5 820.5 c 128,-1,37
 639 779 639 779 598 749.5 c 128,-1,38
 557 720 557 720 498.5 704 c 128,-1,39
 440 688 440 688 369 688 c 0,40,41
 295 688 295 688 244.5 705 c 128,-1,42
 194 722 194 722 162.5 750 c 128,-1,43
 131 778 131 778 116 813.5 c 128,-1,44
 101 849 101 849 96 885 c 1,45,-1
 277 910 l 1,46,47
 285 862 285 862 310 836.5 c 128,-1,48
 335 811 335 811 385 811 c 0,49,50
 431 811 431 811 463.5 837.5 c 128,-1,51
 496 864 496 864 496 915 c 0,0,1
EndSplineSet
EndChar

StartChar: acute
Encoding: 180 180 116
Width: 682
Flags: W
LayerCount: 2
Fore
SplineSet
255 1183 m 1,0,-1
 261 1214 l 1,1,-1
 508 1502 l 1,2,-1
 785 1502 l 1,3,-1
 777 1459 l 1,4,-1
 401 1183 l 1,5,-1
 255 1183 l 1,0,-1
EndSplineSet
EndChar

StartChar: uni00B5
Encoding: 181 181 117
Width: 1180
Flags: W
LayerCount: 2
Fore
SplineSet
875 -20 m 0,0,1
 826 -20 826 -20 794 -10.5 c 128,-1,2
 762 -1 762 -1 743.5 17 c 128,-1,3
 725 35 725 35 717.5 61.5 c 128,-1,4
 710 88 710 88 710 122 c 0,5,6
 710 133 710 133 710 143 c 128,-1,7
 710 153 710 153 712 164 c 1,8,-1
 708 164 l 1,9,10
 666 77 666 77 613 28.5 c 128,-1,11
 560 -20 560 -20 479 -20 c 0,12,13
 420 -20 420 -20 381.5 4.5 c 128,-1,14
 343 29 343 29 328 70 c 1,15,-1
 322 70 l 1,16,17
 318 42 318 42 316 26.5 c 128,-1,18
 314 11 314 11 313 0.5 c 128,-1,19
 312 -10 312 -10 310.5 -19.5 c 128,-1,20
 309 -29 309 -29 306 -45 c 2,21,-1
 233 -425 l 1,22,-1
 -47 -425 l 1,23,-1
 244 1082 l 1,24,-1
 525 1082 l 1,25,-1
 407 477 l 2,26,27
 401 444 401 444 398 414 c 128,-1,28
 395 384 395 384 394 358 c 1,29,30
 394 281 394 281 423 237 c 128,-1,31
 452 193 452 193 519 193 c 0,32,33
 562 193 562 193 598.5 215.5 c 128,-1,34
 635 238 635 238 664 278.5 c 128,-1,35
 693 319 693 319 713.5 376.5 c 128,-1,36
 734 434 734 434 746 504 c 1,37,-1
 858 1082 l 1,38,-1
 1139 1082 l 1,39,-1
 992 325 l 2,40,41
 988 305 988 305 985.5 289.5 c 128,-1,42
 983 274 983 274 983 260 c 0,43,44
 983 219 983 219 999 205 c 128,-1,45
 1015 191 1015 191 1033 191 c 0,46,47
 1043 191 1043 191 1056 193 c 128,-1,48
 1069 195 1069 195 1079 198 c 1,49,-1
 1063 5 l 1,50,51
 1025 -4 1025 -4 975.5 -12 c 128,-1,52
 926 -20 926 -20 875 -20 c 0,0,1
EndSplineSet
EndChar

StartChar: paragraph
Encoding: 182 182 118
Width: 1139
Flags: W
LayerCount: 2
Fore
SplineSet
975 1266 m 1,0,-1
 975 -264 l 1,1,-1
 819 -264 l 1,2,-1
 819 1266 l 1,3,-1
 624 1266 l 1,4,-1
 624 -264 l 1,5,-1
 469 -264 l 1,6,-1
 469 694 l 1,7,8
 388 694 388 694 321.5 716.5 c 128,-1,9
 255 739 255 739 207 783 c 128,-1,10
 159 827 159 827 132.5 894 c 128,-1,11
 106 961 106 961 106 1049 c 0,12,13
 106 1133 106 1133 131 1199.5 c 128,-1,14
 156 1266 156 1266 203.5 1312.5 c 128,-1,15
 251 1359 251 1359 320 1384 c 128,-1,16
 389 1409 389 1409 477 1409 c 2,17,-1
 1106 1409 l 1,18,-1
 1106 1266 l 1,19,-1
 975 1266 l 1,0,-1
EndSplineSet
EndChar

StartChar: uni2219
Encoding: 8729 8729 119
AltUni2: 0000b7.ffffffff.0 0000b7.ffffffff.0 0000b7.ffffffff.0 0000b7.ffffffff.0 0000b7.ffffffff.0
Width: 569
Flags: W
LayerCount: 2
Fore
SplineSet
126 531 m 1,0,-1
 185 836 l 1,1,-1
 473 836 l 1,2,-1
 414 531 l 1,3,-1
 126 531 l 1,0,-1
EndSplineSet
EndChar

StartChar: cedilla
Encoding: 184 184 120
Width: 682
Flags: W
LayerCount: 2
Fore
SplineSet
194 -425 m 0,0,1
 171 -425 171 -425 143.5 -423.5 c 128,-1,2
 116 -422 116 -422 88 -419 c 1,3,-1
 117 -302 l 1,4,5
 141 -306 141 -306 161.5 -307.5 c 128,-1,6
 182 -309 182 -309 199 -309 c 0,7,8
 280 -309 280 -309 317 -291.5 c 128,-1,9
 354 -274 354 -274 354 -232 c 0,10,11
 354 -201 354 -201 328 -185 c 128,-1,12
 302 -169 302 -169 244 -169 c 0,13,14
 231 -169 231 -169 218.5 -169 c 128,-1,15
 206 -169 206 -169 191 -171 c 1,16,-1
 289 0 l 1,17,-1
 430 0 l 1,18,-1
 382 -83 l 1,19,20
 452 -84 452 -84 495.5 -116.5 c 128,-1,21
 539 -149 539 -149 539 -215 c 0,22,23
 539 -312 539 -312 455 -368.5 c 128,-1,24
 371 -425 371 -425 194 -425 c 0,0,1
EndSplineSet
EndChar

StartChar: uni00B9
Encoding: 185 185 121
Width: 682
Flags: W
LayerCount: 2
Fore
SplineSet
98 693 m 1,0,-1
 121 814 l 1,1,-1
 305 814 l 1,2,-1
 396 1282 l 1,3,-1
 202 1174 l 1,4,-1
 226 1296 l 1,5,-1
 428 1413 l 1,6,-1
 603 1413 l 1,7,-1
 487 814 l 1,8,-1
 657 814 l 1,9,-1
 634 693 l 1,10,-1
 98 693 l 1,0,-1
EndSplineSet
EndChar

StartChar: ordmasculine
Encoding: 186 186 122
Width: 748
Flags: W
LayerCount: 2
Fore
SplineSet
828 1142 m 0,0,1
 828 1037 828 1037 796 953 c 128,-1,2
 764 869 764 869 708 810.5 c 128,-1,3
 652 752 652 752 575.5 720.5 c 128,-1,4
 499 689 499 689 409 689 c 0,5,6
 339 689 339 689 282.5 709 c 128,-1,7
 226 729 226 729 186 766.5 c 128,-1,8
 146 804 146 804 124 858 c 128,-1,9
 102 912 102 912 102 980 c 0,10,11
 102 1080 102 1080 132.5 1161 c 128,-1,12
 163 1242 163 1242 217.5 1299 c 128,-1,13
 272 1356 272 1356 348 1387 c 128,-1,14
 424 1418 424 1418 515 1418 c 0,15,16
 668 1418 668 1418 748 1344.5 c 128,-1,17
 828 1271 828 1271 828 1142 c 0,0,1
625 1128 m 1,18,19
 625 1171 625 1171 615 1200 c 128,-1,20
 605 1229 605 1229 588 1247 c 128,-1,21
 571 1265 571 1265 548.5 1272.5 c 128,-1,22
 526 1280 526 1280 501 1280 c 256,23,24
 476 1280 476 1280 448.5 1274 c 128,-1,25
 421 1268 421 1268 396 1248.5 c 128,-1,26
 371 1229 371 1229 350.5 1192.5 c 128,-1,27
 330 1156 330 1156 318 1095 c 0,28,29
 313 1065 313 1065 309.5 1038 c 128,-1,30
 306 1011 306 1011 306 987 c 0,31,32
 306 941 306 941 316 910 c 128,-1,33
 326 879 326 879 343 860.5 c 128,-1,34
 360 842 360 842 382 834 c 128,-1,35
 404 826 404 826 429 826 c 0,36,37
 453 826 453 826 478.5 830 c 128,-1,38
 504 834 504 834 528 852 c 128,-1,39
 552 870 552 870 573.5 907.5 c 128,-1,40
 595 945 595 945 610 1012 c 0,41,42
 618 1044 618 1044 620.5 1071.5 c 128,-1,43
 623 1099 623 1099 625 1128 c 1,18,19
EndSplineSet
EndChar

StartChar: guillemotright
Encoding: 187 187 123
Width: 1139
Flags: W
LayerCount: 2
Fore
SplineSet
422 938 m 1,0,-1
 614 577 l 1,1,-1
 600 506 l 1,2,-1
 277 139 l 1,3,-1
 38 139 l 1,4,-1
 44 180 l 1,5,-1
 373 546 l 1,6,-1
 185 899 l 1,7,-1
 190 938 l 1,8,-1
 422 938 l 1,0,-1
880 938 m 1,9,-1
 1072 577 l 1,10,-1
 1058 506 l 1,11,-1
 735 139 l 1,12,-1
 496 139 l 1,13,-1
 502 180 l 1,14,-1
 831 546 l 1,15,-1
 643 899 l 1,16,-1
 648 938 l 1,17,-1
 880 938 l 1,9,-1
EndSplineSet
EndChar

StartChar: questiondown
Encoding: 191 191 127
Width: 1251
Flags: W
LayerCount: 2
Fore
SplineSet
490 -348 m 0,0,1
 386 -348 386 -348 300.5 -324.5 c 128,-1,2
 215 -301 215 -301 154 -256 c 128,-1,3
 93 -211 93 -211 59.5 -145 c 128,-1,4
 26 -79 26 -79 26 7 c 256,5,6
 26 93 26 93 58.5 158.5 c 128,-1,7
 91 224 91 224 143.5 276 c 128,-1,8
 196 328 196 328 261.5 369 c 128,-1,9
 327 410 327 410 394 447 c 1,10,11
 429 470 429 470 458.5 490.5 c 128,-1,12
 488 511 488 511 511 535 c 128,-1,13
 534 559 534 559 549 588 c 128,-1,14
 564 617 564 617 569 656 c 1,15,-1
 836 656 l 1,16,17
 823 586 823 586 797.5 534.5 c 128,-1,18
 772 483 772 483 735.5 442.5 c 128,-1,19
 699 402 699 402 651 368 c 128,-1,20
 603 334 603 334 545 298 c 0,21,22
 476 255 476 255 430.5 222 c 128,-1,23
 385 189 385 189 358 158.5 c 128,-1,24
 331 128 331 128 320 97 c 128,-1,25
 309 66 309 66 309 27 c 0,26,27
 309 -36 309 -36 357 -77.5 c 128,-1,28
 405 -119 405 -119 506 -119 c 0,29,30
 616 -119 616 -119 687 -72.5 c 128,-1,31
 758 -26 758 -26 785 74 c 1,32,-1
 1051 34 l 1,33,34
 1024 -54 1024 -54 978 -124.5 c 128,-1,35
 932 -195 932 -195 863 -244.5 c 128,-1,36
 794 -294 794 -294 701.5 -321 c 128,-1,37
 609 -348 609 -348 490 -348 c 0,0,1
926 1082 m 1,38,-1
 874 812 l 1,39,-1
 585 812 l 1,40,-1
 637 1082 l 1,41,-1
 926 1082 l 1,38,-1
EndSplineSet
EndChar

StartChar: AE
Encoding: 198 198 134
Width: 2048
Flags: W
LayerCount: 2
Fore
SplineSet
837 0 m 1,0,-1
 907 360 l 1,1,-1
 457 360 l 1,2,-1
 215 0 l 1,3,-1
 -97 0 l 1,4,-1
 868 1409 l 1,5,-1
 2099 1409 l 1,6,-1
 2054 1182 l 1,7,-1
 1353 1182 l 1,8,-1
 1284 827 l 1,9,-1
 1923 827 l 1,10,-1
 1880 606 l 1,11,-1
 1241 606 l 1,12,-1
 1168 227 l 1,13,-1
 1910 227 l 1,14,-1
 1866 0 l 1,15,-1
 837 0 l 1,0,-1
1068 1192 m 1,16,-1
 1007 1192 l 1,17,18
 1002 1183 1002 1183 983.5 1155 c 128,-1,19
 965 1127 965 1127 943.5 1093.5 c 128,-1,20
 922 1060 922 1060 901.5 1028.5 c 128,-1,21
 881 997 881 997 871 983 c 2,22,-1
 602 582 l 1,23,-1
 950 582 l 1,24,-1
 1068 1192 l 1,16,-1
EndSplineSet
EndChar

StartChar: Eth
Encoding: 208 208 144
Width: 1479
Flags: W
LayerCount: 2
Fore
SplineSet
734 1409 m 2,0,1
 897 1409 897 1409 1024.5 1371 c 128,-1,2
 1152 1333 1152 1333 1240 1257.5 c 128,-1,3
 1328 1182 1328 1182 1374.5 1069.5 c 128,-1,4
 1421 957 1421 957 1421 807 c 0,5,6
 1421 674 1421 674 1390.5 562.5 c 128,-1,7
 1360 451 1360 451 1305.5 361.5 c 128,-1,8
 1251 272 1251 272 1175.5 204.5 c 128,-1,9
 1100 137 1100 137 1010.5 91.5 c 128,-1,10
 921 46 921 46 820 23 c 128,-1,11
 719 0 719 0 614 0 c 2,12,-1
 36 0 l 1,13,-1
 151 594 l 1,14,-1
 23 594 l 1,15,-1
 65 813 l 1,16,-1
 194 813 l 1,17,-1
 310 1409 l 1,18,-1
 734 1409 l 2,0,1
488 813 m 1,19,-1
 845 813 l 1,20,-1
 801 594 l 1,21,-1
 446 594 l 1,22,-1
 375 228 l 1,23,-1
 605 228 l 2,24,25
 721 228 721 228 820 265 c 128,-1,26
 919 302 919 302 991 373.5 c 128,-1,27
 1063 445 1063 445 1104 550.5 c 128,-1,28
 1145 656 1145 656 1145 794 c 0,29,30
 1145 892 1145 892 1117 964.5 c 128,-1,31
 1089 1037 1089 1037 1036.5 1085 c 128,-1,32
 984 1133 984 1133 908 1157 c 128,-1,33
 832 1181 832 1181 736 1181 c 2,34,-1
 560 1181 l 1,35,-1
 488 813 l 1,19,-1
EndSplineSet
EndChar

StartChar: multiply
Encoding: 215 215 151
Width: 1196
Flags: W
LayerCount: 2
Fore
SplineSet
126 326 m 1,0,-1
 482 684 l 1,1,-1
 130 1036 l 1,2,-1
 288 1192 l 1,3,-1
 640 842 l 1,4,-1
 992 1194 l 1,5,-1
 1150 1036 l 1,6,-1
 798 682 l 1,7,-1
 1150 332 l 1,8,-1
 992 172 l 1,9,-1
 640 526 l 1,10,-1
 284 168 l 1,11,-1
 126 326 l 1,0,-1
EndSplineSet
EndChar

StartChar: Oslash
Encoding: 216 216 152
Width: 1593
Flags: W
LayerCount: 2
Fore
SplineSet
928 1430 m 0,0,1
 1048 1430 1048 1430 1147 1403.5 c 128,-1,2
 1246 1377 1246 1377 1324 1326 c 1,3,-1
 1455 1466 l 1,4,-1
 1658 1466 l 1,5,-1
 1435 1227 l 1,6,7
 1496 1154 1496 1154 1527.5 1059.5 c 128,-1,8
 1559 965 1559 965 1559 851 c 0,9,10
 1559 802 1559 802 1554 749.5 c 128,-1,11
 1549 697 1549 697 1539 649 c 0,12,13
 1508 495 1508 495 1437.5 371.5 c 128,-1,14
 1367 248 1367 248 1263 161 c 128,-1,15
 1159 74 1159 74 1023.5 27 c 128,-1,16
 888 -20 888 -20 727 -20 c 0,17,18
 615 -20 615 -20 522.5 3 c 128,-1,19
 430 26 430 26 357 71 c 1,20,-1
 242 -53 l 1,21,-1
 35 -53 l 1,22,-1
 240 167 l 1,23,24
 171 245 171 245 135.5 347.5 c 128,-1,25
 100 450 100 450 100 573 c 0,26,27
 100 619 100 619 104.5 667 c 128,-1,28
 109 715 109 715 119 764 c 0,29,30
 150 914 150 914 219 1037 c 128,-1,31
 288 1160 288 1160 391 1247.5 c 128,-1,32
 494 1335 494 1335 629.5 1382.5 c 128,-1,33
 765 1430 765 1430 928 1430 c 0,0,1
914 1197 m 0,34,35
 807 1197 807 1197 723 1165 c 128,-1,36
 639 1133 639 1133 577.5 1073 c 128,-1,37
 516 1013 516 1013 475 925.5 c 128,-1,38
 434 838 434 838 413 727 c 0,39,40
 406 690 406 690 403 652.5 c 128,-1,41
 400 615 400 615 400 581 c 0,42,43
 400 460 400 460 439 379 c 1,44,-1
 1138 1127 l 1,45,46
 1051 1197 1051 1197 914 1197 c 0,34,35
1255 827 m 0,47,48
 1255 927 1255 927 1226 1002 c 1,49,-1
 538 264 l 1,50,51
 617 212 617 212 741 212 c 0,52,53
 849 212 849 212 933 244.5 c 128,-1,54
 1017 277 1017 277 1079 338 c 128,-1,55
 1141 399 1141 399 1181.5 485.5 c 128,-1,56
 1222 572 1222 572 1243 680 c 0,57,58
 1250 716 1250 716 1252.5 757 c 128,-1,59
 1255 798 1255 798 1255 827 c 0,47,48
EndSplineSet
EndChar

StartChar: Thorn
Encoding: 222 222 158
Width: 1366
Flags: W
LayerCount: 2
Fore
SplineSet
331 0 m 1,0,-1
 36 0 l 1,1,-1
 310 1409 l 1,2,-1
 605 1409 l 1,3,-1
 561 1184 l 1,4,-1
 807 1184 l 2,5,6
 931 1184 931 1184 1027.5 1155 c 128,-1,7
 1124 1126 1124 1126 1190.5 1071 c 128,-1,8
 1257 1016 1257 1016 1291.5 938 c 128,-1,9
 1326 860 1326 860 1326 762 c 0,10,11
 1326 648 1326 648 1285.5 557 c 128,-1,12
 1245 466 1245 466 1171 402.5 c 128,-1,13
 1097 339 1097 339 993 305 c 128,-1,14
 889 271 889 271 762 271 c 2,15,-1
 384 271 l 1,16,-1
 331 0 l 1,0,-1
428 498 m 1,17,-1
 717 498 l 2,18,19
 872 498 872 498 949.5 556 c 128,-1,20
 1027 614 1027 614 1027 746 c 0,21,22
 1027 801 1027 801 1009 840.5 c 128,-1,23
 991 880 991 880 958 905.5 c 128,-1,24
 925 931 925 931 879.5 943 c 128,-1,25
 834 955 834 955 779 955 c 2,26,-1
 517 955 l 1,27,-1
 428 498 l 1,17,-1
EndSplineSet
EndChar

StartChar: germandbls
Encoding: 223 223 159
Width: 1251
Flags: W
LayerCount: 2
Fore
SplineSet
35 0 m 1,0,-1
 235 1027 l 1,1,2
 285 1264 285 1264 423.5 1374 c 128,-1,3
 562 1484 562 1484 797 1484 c 0,4,5
 886 1484 886 1484 958 1464.5 c 128,-1,6
 1030 1445 1030 1445 1081 1408 c 128,-1,7
 1132 1371 1132 1371 1159.5 1317.5 c 128,-1,8
 1187 1264 1187 1264 1187 1196 c 0,9,10
 1187 1127 1187 1127 1165.5 1076.5 c 128,-1,11
 1144 1026 1144 1026 1112.5 989 c 128,-1,12
 1081 952 1081 952 1043.5 924 c 128,-1,13
 1006 896 1006 896 974.5 870.5 c 128,-1,14
 943 845 943 845 921.5 819 c 128,-1,15
 900 793 900 793 900 759 c 0,16,17
 900 723 900 723 918.5 697.5 c 128,-1,18
 937 672 937 672 965 648.5 c 128,-1,19
 993 625 993 625 1026 600.5 c 128,-1,20
 1059 576 1059 576 1087 542 c 128,-1,21
 1115 508 1115 508 1133.5 461 c 128,-1,22
 1152 414 1152 414 1152 345 c 0,23,24
 1152 261 1152 261 1123 193.5 c 128,-1,25
 1094 126 1094 126 1040.5 78.5 c 128,-1,26
 987 31 987 31 913 5.5 c 128,-1,27
 839 -20 839 -20 749 -20 c 0,28,29
 636 -20 636 -20 559 -4.5 c 128,-1,30
 482 11 482 11 428 37 c 1,31,-1
 496 223 l 1,32,33
 520 212 520 212 545 201.5 c 128,-1,34
 570 191 570 191 597 183 c 128,-1,35
 624 175 624 175 654.5 170.5 c 128,-1,36
 685 166 685 166 720 166 c 0,37,38
 800 166 800 166 841.5 208 c 128,-1,39
 883 250 883 250 883 322 c 0,40,41
 883 367 883 367 865 397.5 c 128,-1,42
 847 428 847 428 819.5 453 c 128,-1,43
 792 478 792 478 760.5 501 c 128,-1,44
 729 524 729 524 701.5 553 c 128,-1,45
 674 582 674 582 656 621.5 c 128,-1,46
 638 661 638 661 638 718 c 0,47,48
 638 776 638 776 659.5 817.5 c 128,-1,49
 681 859 681 859 714 892 c 128,-1,50
 747 925 747 925 784.5 953 c 128,-1,51
 822 981 822 981 855 1012 c 128,-1,52
 888 1043 888 1043 909.5 1080 c 128,-1,53
 931 1117 931 1117 931 1168 c 0,54,55
 931 1221 931 1221 894.5 1251 c 128,-1,56
 858 1281 858 1281 788 1281 c 0,57,58
 734 1281 734 1281 689.5 1267 c 128,-1,59
 645 1253 645 1253 610.5 1222 c 128,-1,60
 576 1191 576 1191 551.5 1141.5 c 128,-1,61
 527 1092 527 1092 513 1021 c 2,62,-1
 316 0 l 1,63,-1
 35 0 l 1,0,-1
EndSplineSet
EndChar

StartChar: ae
Encoding: 230 230 166
Width: 1821
Flags: W
LayerCount: 2
Fore
SplineSet
1027 476 m 1,0,1
 1023 454 1023 454 1021.5 432 c 128,-1,2
 1020 410 1020 410 1020 387 c 0,3,4
 1020 281 1020 281 1066.5 224.5 c 128,-1,5
 1113 168 1113 168 1204 168 c 0,6,7
 1246 168 1246 168 1279 181 c 128,-1,8
 1312 194 1312 194 1338 216.5 c 128,-1,9
 1364 239 1364 239 1383.5 270 c 128,-1,10
 1403 301 1403 301 1417 337 c 1,11,-1
 1662 263 l 1,12,13
 1632 199 1632 199 1594 146.5 c 128,-1,14
 1556 94 1556 94 1501 57 c 128,-1,15
 1446 20 1446 20 1369 0 c 128,-1,16
 1292 -20 1292 -20 1185 -20 c 0,17,18
 1032 -20 1032 -20 934.5 37.5 c 128,-1,19
 837 95 837 95 791 199 c 1,20,21
 745 127 745 127 693 84 c 128,-1,22
 641 41 641 41 585 17.5 c 128,-1,23
 529 -6 529 -6 469.5 -13 c 128,-1,24
 410 -20 410 -20 349 -20 c 0,25,26
 271 -20 271 -20 213.5 5 c 128,-1,27
 156 30 156 30 118 71.5 c 128,-1,28
 80 113 80 113 61 167 c 128,-1,29
 42 221 42 221 42 278 c 0,30,31
 42 359 42 359 64.5 418.5 c 128,-1,32
 87 478 87 478 126 520.5 c 128,-1,33
 165 563 165 563 217.5 590 c 128,-1,34
 270 617 270 617 330 632.5 c 128,-1,35
 390 648 390 648 455 654 c 128,-1,36
 520 660 520 660 583 660 c 2,37,-1
 774 660 l 1,38,-1
 782 696 l 2,39,40
 789 726 789 726 792 748.5 c 128,-1,41
 795 771 795 771 795 791 c 0,42,43
 795 857 795 857 761 888 c 128,-1,44
 727 919 727 919 668 919 c 0,45,46
 639 919 639 919 608 915 c 128,-1,47
 577 911 577 911 549.5 896.5 c 128,-1,48
 522 882 522 882 499.5 853.5 c 128,-1,49
 477 825 477 825 465 777 c 1,50,-1
 202 808 l 1,51,52
 218 875 218 875 254 929 c 128,-1,53
 290 983 290 983 348 1021.5 c 128,-1,54
 406 1060 406 1060 486.5 1081 c 128,-1,55
 567 1102 567 1102 673 1102 c 0,56,57
 787 1102 787 1102 859.5 1070.5 c 128,-1,58
 932 1039 932 1039 973 989 c 1,59,60
 1113 1102 1113 1102 1315 1102 c 0,61,62
 1427 1102 1427 1102 1509 1072 c 128,-1,63
 1591 1042 1591 1042 1645 987.5 c 128,-1,64
 1699 933 1699 933 1725 857.5 c 128,-1,65
 1751 782 1751 782 1751 691 c 0,66,67
 1751 646 1751 646 1744.5 587.5 c 128,-1,68
 1738 529 1738 529 1727 476 c 1,69,-1
 1027 476 l 1,0,1
743 500 m 1,70,-1
 582 500 l 2,71,72
 469 500 469 500 405 454 c 128,-1,73
 341 408 341 408 341 325 c 0,74,75
 341 286 341 286 351 257.5 c 128,-1,76
 361 229 361 229 379 211 c 128,-1,77
 397 193 397 193 421.5 184.5 c 128,-1,78
 446 176 446 176 475 176 c 256,79,80
 504 176 504 176 539.5 187.5 c 128,-1,81
 575 199 575 199 609.5 226 c 128,-1,82
 644 253 644 253 674 298.5 c 128,-1,83
 704 344 704 344 721 411 c 2,84,-1
 743 500 l 1,70,-1
1491 663 m 1,85,86
 1493 679 1493 679 1493.5 692 c 128,-1,87
 1494 705 1494 705 1494 719 c 0,88,89
 1494 826 1494 826 1444.5 875 c 128,-1,90
 1395 924 1395 924 1315 924 c 0,91,92
 1281 924 1281 924 1243 913 c 128,-1,93
 1205 902 1205 902 1169.5 872.5 c 128,-1,94
 1134 843 1134 843 1105.5 792.5 c 128,-1,95
 1077 742 1077 742 1060 663 c 1,96,-1
 1491 663 l 1,85,86
EndSplineSet
EndChar

StartChar: eth
Encoding: 240 240 176
Width: 1251
Flags: W
LayerCount: 2
Fore
SplineSet
661 1305 m 1,0,1
 614 1351 614 1351 560.5 1397.5 c 128,-1,2
 507 1444 507 1444 439 1484 c 1,3,-1
 732 1484 l 1,4,5
 768 1465 768 1465 804.5 1440.5 c 128,-1,6
 841 1416 841 1416 873 1390 c 1,7,-1
 1168 1499 l 1,8,-1
 1136 1323 l 1,9,-1
 991 1269 l 1,10,11
 1035 1212 1035 1212 1069 1152 c 128,-1,12
 1103 1092 1103 1092 1126 1026 c 128,-1,13
 1149 960 1149 960 1160.5 886 c 128,-1,14
 1172 812 1172 812 1172 728 c 0,15,16
 1172 560 1172 560 1131 422 c 128,-1,17
 1090 284 1090 284 1008.5 186 c 128,-1,18
 927 88 927 88 806.5 34 c 128,-1,19
 686 -20 686 -20 527 -20 c 0,20,21
 409 -20 409 -20 321 13 c 128,-1,22
 233 46 233 46 174.5 104 c 128,-1,23
 116 162 116 162 87 240.5 c 128,-1,24
 58 319 58 319 58 410 c 0,25,26
 58 535 58 535 97.5 639 c 128,-1,27
 137 743 137 743 213 819 c 128,-1,28
 289 895 289 895 398.5 937 c 128,-1,29
 508 979 508 979 649 979 c 0,30,31
 680 979 680 979 713.5 974 c 128,-1,32
 747 969 747 969 778 960.5 c 128,-1,33
 809 952 809 952 836 940.5 c 128,-1,34
 863 929 863 929 881 916 c 1,35,36
 865 987 865 987 832 1055 c 128,-1,37
 799 1123 799 1123 756 1180 c 1,38,-1
 479 1069 l 1,39,-1
 512 1248 l 1,40,-1
 661 1305 l 1,0,1
658 787 m 0,41,42
 587 787 587 787 530.5 758 c 128,-1,43
 474 729 474 729 434 676.5 c 128,-1,44
 394 624 394 624 373 552.5 c 128,-1,45
 352 481 352 481 352 395 c 0,46,47
 352 354 352 354 363 314 c 128,-1,48
 374 274 374 274 398.5 242.5 c 128,-1,49
 423 211 423 211 461.5 191.5 c 128,-1,50
 500 172 500 172 555 172 c 0,51,52
 622 172 622 172 679.5 205.5 c 128,-1,53
 737 239 737 239 779 297.5 c 128,-1,54
 821 356 821 356 844.5 435.5 c 128,-1,55
 868 515 868 515 868 606 c 0,56,57
 868 691 868 691 815 739 c 128,-1,58
 762 787 762 787 658 787 c 0,41,42
EndSplineSet
EndChar

StartChar: divide
Encoding: 247 247 183
Width: 1124
Flags: W
LayerCount: 2
Fore
SplineSet
462 961 m 1,0,-1
 462 1194 l 1,1,-1
 700 1194 l 1,2,-1
 700 961 l 1,3,-1
 462 961 l 1,0,-1
69 569 m 1,4,-1
 69 793 l 1,5,-1
 1096 793 l 1,6,-1
 1096 569 l 1,7,-1
 69 569 l 1,4,-1
462 170 m 1,8,-1
 462 403 l 1,9,-1
 700 403 l 1,10,-1
 700 170 l 1,11,-1
 462 170 l 1,8,-1
EndSplineSet
EndChar

StartChar: oslash
Encoding: 248 248 184
Width: 1251
Flags: W
LayerCount: 2
Fore
SplineSet
42 -38 m 1,0,-1
 173 114 l 1,1,2
 119 170 119 170 91 246 c 128,-1,3
 63 322 63 322 63 419 c 0,4,5
 63 574 63 574 109.5 700 c 128,-1,6
 156 826 156 826 241 915 c 128,-1,7
 326 1004 326 1004 444 1052.5 c 128,-1,8
 562 1101 562 1101 704 1101 c 0,9,10
 786 1101 786 1101 854 1087 c 128,-1,11
 922 1073 922 1073 977 1047 c 1,12,-1
 1037 1116 l 1,13,-1
 1226 1116 l 1,14,-1
 1092 960 l 1,15,16
 1185 855 1185 855 1185 683 c 0,17,18
 1185 520 1185 520 1136 389.5 c 128,-1,19
 1087 259 1087 259 1000 168 c 128,-1,20
 913 77 913 77 794 28.5 c 128,-1,21
 675 -20 675 -20 535 -20 c 0,22,23
 397 -20 397 -20 291 29 c 1,24,-1
 233 -38 l 1,25,-1
 42 -38 l 1,0,-1
358 431 m 0,26,27
 358 381 358 381 366 338 c 1,28,-1
 821 865 l 1,29,30
 795 888 795 888 760 898.5 c 128,-1,31
 725 909 725 909 683 909 c 0,32,33
 639 909 639 909 594 898.5 c 128,-1,34
 549 888 549 888 508.5 855 c 128,-1,35
 468 822 468 822 434.5 761 c 128,-1,36
 401 700 401 700 378 600 c 0,37,38
 367 552 367 552 362.5 509.5 c 128,-1,39
 358 467 358 467 358 431 c 0,26,27
891 662 m 0,40,41
 891 679 891 679 890 693.5 c 128,-1,42
 889 708 889 708 887 722 c 1,43,-1
 443 206 l 1,44,45
 469 188 469 188 500 180 c 128,-1,46
 531 172 531 172 566 172 c 0,47,48
 611 172 611 172 655 182 c 128,-1,49
 699 192 699 192 739 224.5 c 128,-1,50
 779 257 779 257 812 317.5 c 128,-1,51
 845 378 845 378 868 480 c 0,52,53
 879 532 879 532 884 575.5 c 128,-1,54
 889 619 889 619 891 662 c 0,40,41
EndSplineSet
EndChar

StartChar: thorn
Encoding: 254 254 190
Width: 1251
Flags: W
LayerCount: 2
Fore
SplineSet
728 907 m 0,0,1
 676 907 676 907 628 890.5 c 128,-1,2
 580 874 580 874 540 834 c 128,-1,3
 500 794 500 794 468.5 726 c 128,-1,4
 437 658 437 658 417 554 c 0,5,6
 409 510 409 510 404.5 472 c 128,-1,7
 400 434 400 434 400 401 c 0,8,9
 400 345 400 345 414.5 302.5 c 128,-1,10
 429 260 429 260 455.5 231 c 128,-1,11
 482 202 482 202 519 187.5 c 128,-1,12
 556 173 556 173 601 173 c 0,13,14
 652 173 652 173 693.5 189 c 128,-1,15
 735 205 735 205 768 244 c 128,-1,16
 801 283 801 283 826.5 349.5 c 128,-1,17
 852 416 852 416 870 516 c 0,18,19
 879 567 879 567 884 611.5 c 128,-1,20
 889 656 889 656 889 694 c 0,21,22
 889 800 889 800 850.5 853.5 c 128,-1,23
 812 907 812 907 728 907 c 0,0,1
521 1057 m 2,24,25
 516 1031 516 1031 507 989.5 c 128,-1,26
 498 948 498 948 487 913 c 1,27,-1
 493 913 l 1,28,29
 528 962 528 962 565 997.5 c 128,-1,30
 602 1033 602 1033 645 1056.5 c 128,-1,31
 688 1080 688 1080 738 1091 c 128,-1,32
 788 1102 788 1102 848 1102 c 0,33,34
 929 1102 929 1102 992 1077 c 128,-1,35
 1055 1052 1055 1052 1097.5 1006 c 128,-1,36
 1140 960 1140 960 1162.5 894.5 c 128,-1,37
 1185 829 1185 829 1185 748 c 0,38,39
 1185 689 1185 689 1180 631.5 c 128,-1,40
 1175 574 1175 574 1164 516 c 0,41,42
 1136 374 1136 374 1092 272.5 c 128,-1,43
 1048 171 1048 171 985.5 106 c 128,-1,44
 923 41 923 41 842.5 10.5 c 128,-1,45
 762 -20 762 -20 662 -20 c 0,46,47
 537 -20 537 -20 459 32 c 128,-1,48
 381 84 381 84 349 178 c 1,49,-1
 347 178 l 1,50,51
 344 159 344 159 340.5 136 c 128,-1,52
 337 113 337 113 333 88 c 128,-1,53
 329 63 329 63 324.5 38 c 128,-1,54
 320 13 320 13 315 -10 c 2,55,-1
 234 -425 l 1,56,-1
 -46 -425 l 1,57,-1
 323 1484 l 1,58,-1
 604 1484 l 1,59,-1
 521 1057 l 2,24,25
EndSplineSet
EndChar

StartChar: dcroat
Encoding: 273 273 209
Width: 1251
Flags: W
LayerCount: 2
Fore
SplineSet
749 160 m 1,0,1
 713 113 713 113 675 79 c 128,-1,2
 637 45 637 45 594.5 22.5 c 128,-1,3
 552 0 552 0 502 -10.5 c 128,-1,4
 452 -21 452 -21 392 -21 c 0,5,6
 312 -21 312 -21 249.5 6 c 128,-1,7
 187 33 187 33 144.5 81 c 128,-1,8
 102 129 102 129 80 195.5 c 128,-1,9
 58 262 58 262 58 340 c 0,10,11
 58 384 58 384 62.5 434 c 128,-1,12
 67 484 67 484 79 545 c 0,13,14
 107 682 107 682 155 779.5 c 128,-1,15
 203 877 203 877 267 939.5 c 128,-1,16
 331 1002 331 1002 408.5 1031.5 c 128,-1,17
 486 1061 486 1061 571 1061 c 0,18,19
 645 1061 645 1061 698.5 1046 c 128,-1,20
 752 1031 752 1031 790 1005 c 128,-1,21
 828 979 828 979 851.5 944.5 c 128,-1,22
 875 910 875 910 887 871 c 1,23,-1
 893 871 l 1,24,25
 895 893 895 893 901.5 938.5 c 128,-1,26
 908 984 908 984 922 1053 c 2,27,-1
 947 1175 l 1,28,-1
 658 1175 l 1,29,-1
 691 1345 l 1,30,-1
 981 1345 l 1,31,-1
 1009 1484 l 1,32,-1
 1286 1484 l 1,33,-1
 1259 1345 l 1,34,-1
 1391 1345 l 1,35,-1
 1358 1175 l 1,36,-1
 1227 1175 l 1,37,-1
 1048 231 l 2,38,39
 1037 170 1037 170 1030 112 c 128,-1,40
 1023 54 1023 54 1019 0 c 1,41,-1
 738 0 l 1,42,43
 738 8 738 8 738.5 24 c 128,-1,44
 739 40 739 40 741 62 c 128,-1,45
 743 84 743 84 746 109 c 128,-1,46
 749 134 749 134 753 160 c 1,47,-1
 749 160 l 1,0,1
515 172 m 0,48,49
 565 172 565 172 611.5 187.5 c 128,-1,50
 658 203 658 203 697.5 241.5 c 128,-1,51
 737 280 737 280 768 345.5 c 128,-1,52
 799 411 799 411 819 510 c 0,53,54
 836 595 836 595 836 656 c 0,55,56
 836 771 836 771 789 822.5 c 128,-1,57
 742 874 742 874 648 874 c 0,58,59
 603 874 603 874 561.5 859 c 128,-1,60
 520 844 520 844 484 806.5 c 128,-1,61
 448 769 448 769 419.5 705.5 c 128,-1,62
 391 642 391 642 373 546 c 0,63,64
 364 497 364 497 359.5 458 c 128,-1,65
 355 419 355 419 355 382 c 0,66,67
 355 281 355 281 393 226.5 c 128,-1,68
 431 172 431 172 515 172 c 0,48,49
EndSplineSet
EndChar

StartChar: Hbar
Encoding: 294 294 230
Width: 1479
Flags: W
LayerCount: 2
Fore
SplineSet
956 0 m 1,0,-1
 1074 604 l 1,1,-1
 448 604 l 1,2,-1
 330 0 l 1,3,-1
 36 0 l 1,4,-1
 238 1045 l 1,5,-1
 115 1045 l 1,6,-1
 148 1215 l 1,7,-1
 271 1215 l 1,8,-1
 309 1409 l 1,9,-1
 604 1409 l 1,10,-1
 566 1215 l 1,11,-1
 1192 1215 l 1,12,-1
 1230 1409 l 1,13,-1
 1514 1409 l 1,14,-1
 1476 1215 l 1,15,-1
 1599 1215 l 1,16,-1
 1566 1045 l 1,17,-1
 1443 1045 l 1,18,-1
 1240 0 l 1,19,-1
 956 0 l 1,0,-1
1121 848 m 1,20,-1
 1159 1045 l 1,21,-1
 533 1045 l 1,22,-1
 495 848 l 1,23,-1
 1121 848 l 1,20,-1
EndSplineSet
EndChar

StartChar: hbar
Encoding: 295 295 231
Width: 1251
Flags: W
LayerCount: 2
Fore
SplineSet
601 1484 m 1,0,-1
 574 1345 l 1,1,-1
 887 1345 l 1,2,-1
 854 1175 l 1,3,-1
 540 1175 l 1,4,-1
 514 1039 l 2,5,6
 510 1018 510 1018 505 993.5 c 128,-1,7
 500 969 500 969 494.5 945 c 128,-1,8
 489 921 489 921 484 898 c 128,-1,9
 479 875 479 875 475 857 c 1,10,-1
 478 857 l 1,11,12
 508 899 508 899 544.5 936 c 128,-1,13
 581 973 581 973 626 1001 c 128,-1,14
 671 1029 671 1029 726.5 1045 c 128,-1,15
 782 1061 782 1061 851 1061 c 0,16,17
 1003 1061 1003 1061 1080 988 c 128,-1,18
 1157 915 1157 915 1157 777 c 0,19,20
 1157 759 1157 759 1154.5 736 c 128,-1,21
 1152 713 1152 713 1149 690.5 c 128,-1,22
 1146 668 1146 668 1142.5 647.5 c 128,-1,23
 1139 627 1139 627 1136 613 c 2,24,-1
 1017 0 l 1,25,-1
 738 0 l 1,26,-1
 848 555 l 2,27,28
 852 574 852 574 856.5 597 c 128,-1,29
 861 620 861 620 865 643 c 128,-1,30
 869 666 869 666 871.5 686.5 c 128,-1,31
 874 707 874 707 874 720 c 0,32,33
 874 783 874 783 835.5 816 c 128,-1,34
 797 849 797 849 722 849 c 0,35,36
 675 849 675 849 628 829 c 128,-1,37
 581 809 581 809 540.5 772 c 128,-1,38
 500 735 500 735 469.5 682.5 c 128,-1,39
 439 630 439 630 427 566 c 2,40,-1
 317 0 l 1,41,-1
 35 0 l 1,42,-1
 261 1175 l 1,43,-1
 124 1175 l 1,44,-1
 157 1345 l 1,45,-1
 294 1345 l 1,46,-1
 321 1484 l 1,47,-1
 601 1484 l 1,0,-1
EndSplineSet
EndChar

StartChar: dotlessi
Encoding: 305 305 241
Width: 569
Flags: W
LayerCount: 2
Fore
SplineSet
35 0 m 1,0,-1
 245 1082 l 1,1,-1
 526 1082 l 1,2,-1
 315 0 l 1,3,-1
 35 0 l 1,0,-1
EndSplineSet
EndChar

StartChar: jcircumflex
Encoding: 309 309 245
Width: 569
Flags: W
LayerCount: 2
Fore
SplineSet
-54 -425 m 0,0,1
 -104 -425 -104 -425 -147 -419.5 c 128,-1,2
 -190 -414 -190 -414 -220 -406 c 1,3,-1
 -184 -218 l 1,4,5
 -171 -220 -171 -220 -154.5 -221 c 128,-1,6
 -138 -222 -138 -222 -126 -222 c 0,7,8
 -92 -222 -92 -222 -68 -214 c 128,-1,9
 -44 -206 -44 -206 -27 -187 c 128,-1,10
 -10 -168 -10 -168 1.5 -137 c 128,-1,11
 13 -106 13 -106 22 -60 c 2,12,-1
 245 1082 l 1,13,-1
 526 1082 l 1,14,-1
 290 -128 l 2,15,16
 277 -193 277 -193 250.5 -247 c 128,-1,17
 224 -301 224 -301 182 -341 c 128,-1,18
 140 -381 140 -381 81.5 -403 c 128,-1,19
 23 -425 23 -425 -54 -425 c 0,0,1
755 1211 m 1,20,-1
 750 1183 l 1,21,-1
 600 1183 l 1,22,-1
 434 1375 l 1,23,-1
 430 1375 l 1,24,-1
 182 1183 l 1,25,-1
 13 1183 l 1,26,-1
 18 1211 l 1,27,-1
 338 1529 l 1,28,-1
 567 1529 l 1,29,-1
 755 1211 l 1,20,-1
EndSplineSet
EndChar

StartChar: kgreenlandic
Encoding: 312 312 248
Width: 1139
Flags: W
LayerCount: 2
Fore
SplineSet
728 0 m 1,0,-1
 540 497 l 1,1,-1
 400 422 l 1,2,-1
 315 0 l 1,3,-1
 35 0 l 1,4,-1
 245 1082 l 1,5,-1
 526 1082 l 1,6,-1
 438 634 l 1,7,-1
 902 1082 l 1,8,-1
 1224 1082 l 1,9,-1
 751 660 l 1,10,-1
 1026 0 l 1,11,-1
 728 0 l 1,0,-1
EndSplineSet
EndChar

StartChar: Lslash
Encoding: 321 321 257
Width: 1251
Flags: W
LayerCount: 2
Fore
SplineSet
36 0 m 1,0,-1
 129 482 l 1,1,-1
 -19 418 l 1,2,-1
 25 643 l 1,3,-1
 173 708 l 1,4,-1
 309 1409 l 1,5,-1
 604 1409 l 1,6,-1
 495 848 l 1,7,-1
 831 997 l 1,8,-1
 788 774 l 1,9,-1
 452 625 l 1,10,-1
 375 228 l 1,11,-1
 1131 228 l 1,12,-1
 1086 0 l 1,13,-1
 36 0 l 1,0,-1
EndSplineSet
EndChar

StartChar: lslash
Encoding: 322 322 258
Width: 569
Flags: W
LayerCount: 2
Fore
SplineSet
455 717 m 1,0,-1
 315 0 l 1,1,-1
 35 0 l 1,2,-1
 143 561 l 1,3,-1
 6 492 l 1,4,-1
 47 707 l 1,5,-1
 185 776 l 1,6,-1
 323 1484 l 1,7,-1
 604 1484 l 1,8,-1
 496 932 l 1,9,-1
 640 1006 l 1,10,-1
 598 793 l 1,11,-1
 455 717 l 1,0,-1
EndSplineSet
EndChar

StartChar: Eng
Encoding: 330 330 266
Width: 1481
Flags: W
LayerCount: 2
Fore
SplineSet
844 -20 m 0,0,1
 770 -20 770 -20 710 -2.5 c 128,-1,2
 650 15 650 15 603 46.5 c 128,-1,3
 556 78 556 78 521 120.5 c 128,-1,4
 486 163 486 163 461 214 c 1,5,-1
 708 331 l 1,6,7
 722 307 722 307 738.5 285.5 c 128,-1,8
 755 264 755 264 774.5 247.5 c 128,-1,9
 794 231 794 231 818.5 221.5 c 128,-1,10
 843 212 843 212 874 212 c 0,11,12
 921 212 921 212 953 230.5 c 128,-1,13
 985 249 985 249 1009 289.5 c 128,-1,14
 1033 330 1033 330 1051 395 c 128,-1,15
 1069 460 1069 460 1087 553 c 2,16,-1
 1143 841 l 2,17,18
 1147 860 1147 860 1151.5 882 c 128,-1,19
 1156 904 1156 904 1159.5 927.5 c 128,-1,20
 1163 951 1163 951 1165.5 974 c 128,-1,21
 1168 997 1168 997 1168 1018 c 0,22,23
 1168 1104 1168 1104 1109.5 1152 c 128,-1,24
 1051 1200 1051 1200 931 1200 c 0,25,26
 855 1200 855 1200 783 1175 c 128,-1,27
 711 1150 711 1150 653.5 1107.5 c 128,-1,28
 596 1065 596 1065 556 1009 c 128,-1,29
 516 953 516 953 504 891 c 2,30,-1
 330 0 l 1,31,-1
 36 0 l 1,32,-1
 247 1092 l 2,33,34
 254 1129 254 1129 262.5 1175 c 128,-1,35
 271 1221 271 1221 279 1266 c 128,-1,36
 287 1311 287 1311 294 1349 c 128,-1,37
 301 1387 301 1387 304 1409 c 1,38,-1
 594 1409 l 1,39,40
 591 1387 591 1387 586 1355.5 c 128,-1,41
 581 1324 581 1324 575 1289.5 c 128,-1,42
 569 1255 569 1255 563 1220.5 c 128,-1,43
 557 1186 557 1186 552 1158 c 1,44,-1
 556 1158 l 1,45,46
 600 1220 600 1220 653.5 1270 c 128,-1,47
 707 1320 707 1320 769 1355 c 128,-1,48
 831 1390 831 1390 903 1409.5 c 128,-1,49
 975 1429 975 1429 1057 1429 c 0,50,51
 1254 1429 1254 1429 1355 1338.5 c 128,-1,52
 1456 1248 1456 1248 1456 1065 c 0,53,54
 1456 1017 1456 1017 1449 968.5 c 128,-1,55
 1442 920 1442 920 1436 888 c 2,56,-1
 1369 542 l 2,57,58
 1352 453 1352 453 1332 376.5 c 128,-1,59
 1312 300 1312 300 1285 237.5 c 128,-1,60
 1258 175 1258 175 1220.5 127 c 128,-1,61
 1183 79 1183 79 1130.5 46.5 c 128,-1,62
 1078 14 1078 14 1007.5 -3 c 128,-1,63
 937 -20 937 -20 844 -20 c 0,0,1
EndSplineSet
EndChar

StartChar: eng
Encoding: 331 331 267
Width: 1251
Flags: W
LayerCount: 2
Fore
SplineSet
649 -425 m 0,0,1
 599 -425 599 -425 556 -419.5 c 128,-1,2
 513 -414 513 -414 483 -406 c 1,3,-1
 519 -218 l 1,4,5
 532 -220 532 -220 548.5 -221 c 128,-1,6
 565 -222 565 -222 577 -222 c 0,7,8
 611 -222 611 -222 634.5 -214 c 128,-1,9
 658 -206 658 -206 675 -187 c 128,-1,10
 692 -168 692 -168 704 -137 c 128,-1,11
 716 -106 716 -106 725 -60 c 2,12,-1
 856 595 l 2,13,14
 860 614 860 614 864.5 637 c 128,-1,15
 869 660 869 660 873 683 c 128,-1,16
 877 706 877 706 879.5 726.5 c 128,-1,17
 882 747 882 747 882 760 c 0,18,19
 882 823 882 823 844 856 c 128,-1,20
 806 889 806 889 730 889 c 0,21,22
 683 889 683 889 636 869 c 128,-1,23
 589 849 589 849 548.5 812 c 128,-1,24
 508 775 508 775 477.5 722.5 c 128,-1,25
 447 670 447 670 435 606 c 2,26,-1
 317 0 l 1,27,-1
 35 0 l 1,28,-1
 201 851 l 2,29,30
 208 885 208 885 214.5 922.5 c 128,-1,31
 221 960 221 960 226 993.5 c 128,-1,32
 231 1027 231 1027 234.5 1051 c 128,-1,33
 238 1075 238 1075 239 1082 c 1,34,-1
 507 1082 l 1,35,36
 507 1077 507 1077 504.5 1055 c 128,-1,37
 502 1033 502 1033 498.5 1004.5 c 128,-1,38
 495 976 495 976 491 946.5 c 128,-1,39
 487 917 487 917 483 897 c 1,40,-1
 486 897 l 1,41,42
 516 939 516 939 552.5 976 c 128,-1,43
 589 1013 589 1013 634 1041 c 128,-1,44
 679 1069 679 1069 734.5 1085 c 128,-1,45
 790 1101 790 1101 859 1101 c 0,46,47
 1011 1101 1011 1101 1088 1028 c 128,-1,48
 1165 955 1165 955 1165 817 c 0,49,50
 1165 799 1165 799 1162.5 776 c 128,-1,51
 1160 753 1160 753 1157 730.5 c 128,-1,52
 1154 708 1154 708 1150.5 687.5 c 128,-1,53
 1147 667 1147 667 1144 653 c 2,54,-1
 993 -128 l 2,55,56
 981 -193 981 -193 954 -247 c 128,-1,57
 927 -301 927 -301 885 -341 c 128,-1,58
 843 -381 843 -381 784.5 -403 c 128,-1,59
 726 -425 726 -425 649 -425 c 0,0,1
EndSplineSet
EndChar

StartChar: OE
Encoding: 338 338 274
Width: 2048
Flags: W
LayerCount: 2
Fore
SplineSet
917 0 m 1,0,1
 898 -3 898 -3 872 -4.5 c 128,-1,2
 846 -6 846 -6 817 -7.5 c 128,-1,3
 788 -9 788 -9 759 -9.5 c 128,-1,4
 730 -10 730 -10 706 -10 c 0,5,6
 555 -10 555 -10 442 32 c 128,-1,7
 329 74 329 74 253.5 150.5 c 128,-1,8
 178 227 178 227 140.5 334.5 c 128,-1,9
 103 442 103 442 103 573 c 0,10,11
 103 664 103 664 123 764 c 0,12,13
 153 914 153 914 226.5 1035.5 c 128,-1,14
 300 1157 300 1157 407.5 1242.5 c 128,-1,15
 515 1328 515 1328 652.5 1374 c 128,-1,16
 790 1420 790 1420 949 1420 c 0,17,18
 988 1420 988 1420 1024 1418.5 c 128,-1,19
 1060 1417 1060 1417 1087 1414.5 c 128,-1,20
 1114 1412 1114 1412 1131 1410.5 c 128,-1,21
 1148 1409 1148 1409 1150 1409 c 2,22,-1
 2099 1409 l 1,23,-1
 2055 1182 l 1,24,-1
 1388 1182 l 1,25,-1
 1319 827 l 1,26,-1
 1925 827 l 1,27,-1
 1882 606 l 1,28,-1
 1276 606 l 1,29,-1
 1203 231 l 1,30,-1
 1911 231 l 1,31,-1
 1866 0 l 1,32,-1
 917 0 l 1,0,1
736 222 m 0,33,34
 788 222 788 222 836 228.5 c 128,-1,35
 884 235 884 235 909 242 c 1,36,-1
 1089 1169 l 1,37,38
 1073 1174 1073 1174 1053.5 1177.5 c 128,-1,39
 1034 1181 1034 1181 1013.5 1183 c 128,-1,40
 993 1185 993 1185 973.5 1186.5 c 128,-1,41
 954 1188 954 1188 939 1188 c 0,42,43
 725 1188 725 1188 594.5 1069.5 c 128,-1,44
 464 951 464 951 420 732 c 0,45,46
 412 689 412 689 407.5 645.5 c 128,-1,47
 403 602 403 602 403 563 c 0,48,49
 403 476 403 476 427 411.5 c 128,-1,50
 451 347 451 347 494.5 305 c 128,-1,51
 538 263 538 263 599.5 242.5 c 128,-1,52
 661 222 661 222 736 222 c 0,33,34
EndSplineSet
EndChar

StartChar: oe
Encoding: 339 339 275
Width: 1933
Flags: W
LayerCount: 2
Fore
SplineSet
1163 476 m 1,0,1
 1159 454 1159 454 1157.5 432 c 128,-1,2
 1156 410 1156 410 1156 387 c 0,3,4
 1156 281 1156 281 1202.5 224.5 c 128,-1,5
 1249 168 1249 168 1340 168 c 0,6,7
 1382 168 1382 168 1415 181 c 128,-1,8
 1448 194 1448 194 1474 216.5 c 128,-1,9
 1500 239 1500 239 1519.5 270 c 128,-1,10
 1539 301 1539 301 1553 337 c 1,11,-1
 1798 263 l 1,12,13
 1768 199 1768 199 1730 146.5 c 128,-1,14
 1692 94 1692 94 1637 57 c 128,-1,15
 1582 20 1582 20 1505 0 c 128,-1,16
 1428 -20 1428 -20 1321 -20 c 0,17,18
 1195 -20 1195 -20 1103.5 19.5 c 128,-1,19
 1012 59 1012 59 955 132 c 1,20,21
 918 91 918 91 870 62 c 128,-1,22
 822 33 822 33 767 15 c 128,-1,23
 712 -3 712 -3 652 -11.5 c 128,-1,24
 592 -20 592 -20 530 -20 c 0,25,26
 423 -20 423 -20 336 9.5 c 128,-1,27
 249 39 249 39 187 95.5 c 128,-1,28
 125 152 125 152 91.5 233.5 c 128,-1,29
 58 315 58 315 58 419 c 0,30,31
 58 574 58 574 104.5 700 c 128,-1,32
 151 826 151 826 236 915 c 128,-1,33
 321 1004 321 1004 439 1052.5 c 128,-1,34
 557 1101 557 1101 699 1101 c 0,35,36
 763 1101 763 1101 816 1092.5 c 128,-1,37
 869 1084 869 1084 913.5 1066.5 c 128,-1,38
 958 1049 958 1049 996 1022.5 c 128,-1,39
 1034 996 1034 996 1068 960 c 1,40,41
 1143 1030 1143 1030 1240 1066 c 128,-1,42
 1337 1102 1337 1102 1451 1102 c 0,43,44
 1563 1102 1563 1102 1645 1072 c 128,-1,45
 1727 1042 1727 1042 1781 987.5 c 128,-1,46
 1835 933 1835 933 1861 857.5 c 128,-1,47
 1887 782 1887 782 1887 691 c 0,48,49
 1887 646 1887 646 1880.5 587.5 c 128,-1,50
 1874 529 1874 529 1863 476 c 1,51,-1
 1163 476 l 1,0,1
886 662 m 1,52,53
 886 728 886 728 871.5 775 c 128,-1,54
 857 822 857 822 830 851.5 c 128,-1,55
 803 881 803 881 764.5 895 c 128,-1,56
 726 909 726 909 678 909 c 0,57,58
 634 909 634 909 589 898.5 c 128,-1,59
 544 888 544 888 503.5 855 c 128,-1,60
 463 822 463 822 429.5 761 c 128,-1,61
 396 700 396 700 373 600 c 0,62,63
 362 552 362 552 357.5 509.5 c 128,-1,64
 353 467 353 467 353 431 c 0,65,66
 353 359 353 359 369 310 c 128,-1,67
 385 261 385 261 412.5 230 c 128,-1,68
 440 199 440 199 478.5 185.5 c 128,-1,69
 517 172 517 172 562 172 c 256,70,71
 607 172 607 172 651 182 c 128,-1,72
 695 192 695 192 734.5 224.5 c 128,-1,73
 774 257 774 257 807 317.5 c 128,-1,74
 840 378 840 378 863 480 c 0,75,76
 871 515 871 515 875 546 c 0,77,78
 876 554 876 554 877 561 c 128,-1,79
 878 568 878 568 879 575 c 0,80,81
 882 598 882 598 883.5 619 c 128,-1,82
 885 640 885 640 886 662 c 1,52,53
1627 663 m 1,83,84
 1629 679 1629 679 1629.5 692 c 128,-1,85
 1630 705 1630 705 1630 719 c 0,86,87
 1630 826 1630 826 1580.5 875 c 128,-1,88
 1531 924 1531 924 1451 924 c 0,89,90
 1417 924 1417 924 1379 913 c 128,-1,91
 1341 902 1341 902 1305.5 872.5 c 128,-1,92
 1270 843 1270 843 1241.5 792.5 c 128,-1,93
 1213 742 1213 742 1196 663 c 1,94,-1
 1627 663 l 1,83,84
EndSplineSet
EndChar

StartChar: Tbar
Encoding: 358 358 293
Width: 1251
Flags: W
LayerCount: 2
Fore
SplineSet
895 1181 m 1,0,-1
 824 816 l 1,1,-1
 1052 816 l 1,2,-1
 1015 626 l 1,3,-1
 787 626 l 1,4,-1
 665 0 l 1,5,-1
 370 0 l 1,6,-1
 492 626 l 1,7,-1
 265 626 l 1,8,-1
 302 816 l 1,9,-1
 529 816 l 1,10,-1
 600 1181 l 1,11,-1
 145 1181 l 1,12,-1
 189 1409 l 1,13,-1
 1395 1409 l 1,14,-1
 1351 1181 l 1,15,-1
 895 1181 l 1,0,-1
EndSplineSet
EndChar

StartChar: tbar
Encoding: 359 359 294
Width: 682
Flags: W
LayerCount: 2
Fore
SplineSet
560 8 m 1,0,1
 523 -3 523 -3 476 -9.5 c 128,-1,2
 429 -16 429 -16 376 -16 c 0,3,4
 317 -16 317 -16 269 -2 c 128,-1,5
 221 12 221 12 187 40 c 128,-1,6
 153 68 153 68 134.5 110.5 c 128,-1,7
 116 153 116 153 116 209 c 0,8,9
 116 254 116 254 121.5 296.5 c 128,-1,10
 127 339 127 339 132 366 c 2,11,-1
 152 473 l 1,12,-1
 26 473 l 1,13,-1
 62 663 l 1,14,-1
 189 663 l 1,15,-1
 234 892 l 1,16,-1
 86 892 l 1,17,-1
 123 1082 l 1,18,-1
 285 1082 l 1,19,-1
 422 1336 l 1,20,-1
 598 1336 l 1,21,-1
 550 1082 l 1,22,-1
 752 1082 l 1,23,-1
 717 892 l 1,24,-1
 512 892 l 1,25,-1
 467 663 l 1,26,-1
 652 663 l 1,27,-1
 615 473 l 1,28,-1
 430 473 l 1,29,-1
 408 357 l 2,30,31
 404 337 404 337 400 308.5 c 128,-1,32
 396 280 396 280 397 260 c 0,33,34
 399 218 399 218 422.5 197.5 c 128,-1,35
 446 177 446 177 484 177 c 0,36,37
 508 177 508 177 532.5 180.5 c 128,-1,38
 557 184 557 184 592 190 c 1,39,-1
 560 8 l 1,0,1
EndSplineSet
EndChar

StartChar: longs
Encoding: 383 383 318
Width: 569
Flags: W
LayerCount: 2
Fore
SplineSet
268 1195 m 2,0,1
 281 1263 281 1263 307.5 1317 c 128,-1,2
 334 1371 334 1371 380.5 1408 c 128,-1,3
 427 1445 427 1445 495 1464.5 c 128,-1,4
 563 1484 563 1484 659 1484 c 0,5,6
 704 1484 704 1484 744.5 1478.5 c 128,-1,7
 785 1473 785 1473 814 1467 c 1,8,-1
 778 1286 l 1,9,10
 769 1288 769 1288 756.5 1289.5 c 128,-1,11
 744 1291 744 1291 730.5 1292.5 c 128,-1,12
 717 1294 717 1294 704 1295 c 128,-1,13
 691 1296 691 1296 682 1296 c 0,14,15
 615 1296 615 1296 585 1264 c 128,-1,16
 555 1232 555 1232 542 1167 c 2,17,-1
 315 0 l 1,18,-1
 35 0 l 1,19,-1
 268 1195 l 2,0,1
EndSplineSet
EndChar

StartChar: florin
Encoding: 402 402 319
Width: 1139
Flags: W
LayerCount: 2
Fore
SplineSet
756 892 m 1,0,-1
 498 -425 l 1,1,-1
 218 -425 l 1,2,-1
 476 892 l 1,3,-1
 318 892 l 1,4,-1
 355 1082 l 1,5,-1
 513 1082 l 1,6,-1
 535 1195 l 2,7,8
 548 1263 548 1263 574.5 1317 c 128,-1,9
 601 1371 601 1371 647.5 1408 c 128,-1,10
 694 1445 694 1445 762 1464.5 c 128,-1,11
 830 1484 830 1484 926 1484 c 0,12,13
 971 1484 971 1484 1011.5 1478.5 c 128,-1,14
 1052 1473 1052 1473 1081 1467 c 1,15,-1
 1045 1286 l 1,16,17
 1036 1288 1036 1288 1023.5 1289.5 c 128,-1,18
 1011 1291 1011 1291 997.5 1292.5 c 128,-1,19
 984 1294 984 1294 971 1295 c 128,-1,20
 958 1296 958 1296 949 1296 c 0,21,22
 882 1296 882 1296 852 1264 c 128,-1,23
 822 1232 822 1232 809 1167 c 2,24,-1
 793 1082 l 1,25,-1
 1006 1082 l 1,26,-1
 969 892 l 1,27,-1
 756 892 l 1,0,-1
EndSplineSet
EndChar

StartChar: circumflex
Encoding: 710 710 326
Width: 682
Flags: W
LayerCount: 2
Fore
SplineSet
818 1211 m 1,0,-1
 813 1183 l 1,1,-1
 663 1183 l 1,2,-1
 497 1375 l 1,3,-1
 493 1375 l 1,4,-1
 245 1183 l 1,5,-1
 76 1183 l 1,6,-1
 81 1211 l 1,7,-1
 401 1529 l 1,8,-1
 630 1529 l 1,9,-1
 818 1211 l 1,0,-1
EndSplineSet
EndChar

StartChar: caron
Encoding: 711 711 327
Width: 682
Flags: W
LayerCount: 2
Fore
SplineSet
573 1183 m 1,0,-1
 344 1183 l 1,1,-1
 147 1500 l 1,2,-1
 153 1529 l 1,3,-1
 303 1529 l 1,4,-1
 477 1336 l 1,5,-1
 481 1336 l 1,6,-1
 721 1529 l 1,7,-1
 890 1529 l 1,8,-1
 884 1500 l 1,9,-1
 573 1183 l 1,0,-1
EndSplineSet
EndChar

StartChar: uni02C9
Encoding: 713 713 328
Width: 682
Flags: W
LayerCount: 2
Fore
SplineSet
753 1203 m 1,0,-1
 167 1203 l 1,1,-1
 200 1371 l 1,2,-1
 790 1371 l 1,3,-1
 753 1203 l 1,0,-1
EndSplineSet
EndChar

StartChar: breve
Encoding: 728 728 329
Width: 682
Flags: W
LayerCount: 2
Fore
SplineSet
470 1183 m 0,0,1
 396 1183 396 1183 338 1205 c 128,-1,2
 280 1227 280 1227 239.5 1265.5 c 128,-1,3
 199 1304 199 1304 178 1356 c 128,-1,4
 157 1408 157 1408 157 1468 c 0,5,6
 157 1478 157 1478 157.5 1486.5 c 128,-1,7
 158 1495 158 1495 159 1506 c 1,8,-1
 322 1506 l 1,9,10
 322 1464 322 1464 336 1433 c 128,-1,11
 350 1402 350 1402 372.5 1381.5 c 128,-1,12
 395 1361 395 1361 424.5 1350.5 c 128,-1,13
 454 1340 454 1340 486 1340 c 0,14,15
 522 1340 522 1340 555.5 1350 c 128,-1,16
 589 1360 589 1360 617.5 1380.5 c 128,-1,17
 646 1401 646 1401 668 1432 c 128,-1,18
 690 1463 690 1463 703 1506 c 1,19,-1
 867 1506 l 1,20,21
 848 1433 848 1433 816.5 1373.5 c 128,-1,22
 785 1314 785 1314 737.5 1271.5 c 128,-1,23
 690 1229 690 1229 624 1206 c 128,-1,24
 558 1183 558 1183 470 1183 c 0,0,1
EndSplineSet
EndChar

StartChar: dotaccent
Encoding: 729 729 330
Width: 682
Flags: W
LayerCount: 2
Fore
SplineSet
330 1277 m 1,0,-1
 371 1484 l 1,1,-1
 652 1484 l 1,2,-1
 611 1277 l 1,3,-1
 330 1277 l 1,0,-1
EndSplineSet
EndChar

StartChar: ring
Encoding: 730 730 331
Width: 682
Flags: W
LayerCount: 2
Fore
SplineSet
735 1390 m 0,0,1
 735 1337 735 1337 715 1290.5 c 128,-1,2
 695 1244 695 1244 660.5 1209.5 c 128,-1,3
 626 1175 626 1175 579.5 1155.5 c 128,-1,4
 533 1136 533 1136 481 1136 c 256,5,6
 429 1136 429 1136 382.5 1155.5 c 128,-1,7
 336 1175 336 1175 301.5 1209.5 c 128,-1,8
 267 1244 267 1244 247 1290.5 c 128,-1,9
 227 1337 227 1337 227 1390 c 0,10,11
 227 1442 227 1442 247 1488.5 c 128,-1,12
 267 1535 267 1535 301.5 1569.5 c 128,-1,13
 336 1604 336 1604 382.5 1624 c 128,-1,14
 429 1644 429 1644 481 1644 c 256,15,16
 533 1644 533 1644 579.5 1624 c 128,-1,17
 626 1604 626 1604 660.5 1569.5 c 128,-1,18
 695 1535 695 1535 715 1488.5 c 128,-1,19
 735 1442 735 1442 735 1390 c 0,0,1
608 1390 m 0,20,21
 608 1416 608 1416 598 1438.5 c 128,-1,22
 588 1461 588 1461 571 1478 c 128,-1,23
 554 1495 554 1495 530.5 1505 c 128,-1,24
 507 1515 507 1515 481 1515 c 256,25,26
 455 1515 455 1515 432 1505 c 128,-1,27
 409 1495 409 1495 392 1478 c 128,-1,28
 375 1461 375 1461 365.5 1438.5 c 128,-1,29
 356 1416 356 1416 356 1390 c 0,30,31
 356 1363 356 1363 365.5 1339.5 c 128,-1,32
 375 1316 375 1316 392 1299 c 128,-1,33
 409 1282 409 1282 432 1272 c 128,-1,34
 455 1262 455 1262 481 1262 c 256,35,36
 507 1262 507 1262 530.5 1272 c 128,-1,37
 554 1282 554 1282 571 1299 c 128,-1,38
 588 1316 588 1316 598 1339.5 c 128,-1,39
 608 1363 608 1363 608 1390 c 0,20,21
EndSplineSet
EndChar

StartChar: ogonek
Encoding: 731 731 332
Width: 682
Flags: W
LayerCount: 2
Fore
SplineSet
306 -425 m 0,0,1
 266 -425 266 -425 229.5 -414 c 128,-1,2
 193 -403 193 -403 165.5 -381 c 128,-1,3
 138 -359 138 -359 122 -325.5 c 128,-1,4
 106 -292 106 -292 106 -246 c 0,5,6
 106 -202 106 -202 121 -164 c 128,-1,7
 136 -126 136 -126 160.5 -94 c 128,-1,8
 185 -62 185 -62 217.5 -36 c 128,-1,9
 250 -10 250 -10 286 10 c 1,10,-1
 450 10 l 1,11,12
 418 -10 418 -10 391 -37.5 c 128,-1,13
 364 -65 364 -65 344.5 -95 c 128,-1,14
 325 -125 325 -125 314.5 -155 c 128,-1,15
 304 -185 304 -185 304 -211 c 0,16,17
 304 -249 304 -249 326 -268 c 128,-1,18
 348 -287 348 -287 383 -287 c 0,19,20
 412 -287 412 -287 437 -280.5 c 128,-1,21
 462 -274 462 -274 485 -264 c 1,22,-1
 466 -391 l 1,23,24
 429 -407 429 -407 389.5 -416 c 128,-1,25
 350 -425 350 -425 306 -425 c 0,0,1
EndSplineSet
EndChar

StartChar: tilde
Encoding: 732 732 333
Width: 682
Flags: W
LayerCount: 2
Fore
SplineSet
624 1183 m 0,0,1
 580 1183 580 1183 539.5 1202 c 128,-1,2
 499 1221 499 1221 461.5 1244.5 c 128,-1,3
 424 1268 424 1268 390 1287 c 128,-1,4
 356 1306 356 1306 326 1306 c 0,5,6
 300 1306 300 1306 281.5 1297.5 c 128,-1,7
 263 1289 263 1289 249 1273 c 128,-1,8
 235 1257 235 1257 224.5 1234.5 c 128,-1,9
 214 1212 214 1212 204 1183 c 1,10,-1
 68 1183 l 1,11,12
 79 1228 79 1228 97 1279 c 128,-1,13
 115 1330 115 1330 146.5 1374 c 128,-1,14
 178 1418 178 1418 227 1447 c 128,-1,15
 276 1476 276 1476 349 1476 c 0,16,17
 394 1476 394 1476 435.5 1457 c 128,-1,18
 477 1438 477 1438 514 1414.5 c 128,-1,19
 551 1391 551 1391 584 1372 c 128,-1,20
 617 1353 617 1353 646 1353 c 0,21,22
 671 1353 671 1353 689.5 1361.5 c 128,-1,23
 708 1370 708 1370 722 1386 c 128,-1,24
 736 1402 736 1402 747.5 1425 c 128,-1,25
 759 1448 759 1448 769 1476 c 1,26,-1
 904 1476 l 1,27,28
 893 1431 893 1431 875 1380 c 128,-1,29
 857 1329 857 1329 825.5 1285 c 128,-1,30
 794 1241 794 1241 745.5 1212 c 128,-1,31
 697 1183 697 1183 624 1183 c 0,0,1
EndSplineSet
EndChar

StartChar: hungarumlaut
Encoding: 733 733 334
Width: 682
Flags: W
LayerCount: 2
Fore
SplineSet
58 1183 m 1,0,-1
 68 1214 l 1,1,-1
 325 1502 l 1,2,-1
 586 1502 l 1,3,-1
 576 1459 l 1,4,-1
 204 1183 l 1,5,-1
 58 1183 l 1,0,-1
463 1183 m 1,6,-1
 473 1214 l 1,7,-1
 730 1502 l 1,8,-1
 991 1502 l 1,9,-1
 981 1459 l 1,10,-1
 609 1183 l 1,11,-1
 463 1183 l 1,6,-1
EndSplineSet
EndChar

StartChar: tonos
Encoding: 900 900 335
Width: 682
Flags: W
LayerCount: 2
Fore
SplineSet
153 1183 m 1,0,-1
 159 1216 l 1,1,-1
 285 1508 l 1,2,-1
 542 1508 l 1,3,-1
 535 1471 l 1,4,-1
 258 1183 l 1,5,-1
 153 1183 l 1,0,-1
EndSplineSet
EndChar

StartChar: dieresistonos
Encoding: 901 901 336
Width: 682
Flags: W
LayerCount: 2
Fore
SplineSet
185 1190 m 1,0,-1
 191 1223 l 1,1,-1
 327 1621 l 1,2,-1
 564 1621 l 1,3,-1
 557 1584 l 1,4,-1
 300 1190 l 1,5,-1
 185 1190 l 1,0,-1
-58 1231 m 1,6,-1
 -14 1453 l 1,7,-1
 185 1453 l 1,8,-1
 141 1231 l 1,9,-1
 -58 1231 l 1,6,-1
473 1231 m 1,10,-1
 517 1453 l 1,11,-1
 717 1453 l 1,12,-1
 673 1231 l 1,13,-1
 473 1231 l 1,10,-1
EndSplineSet
EndChar

StartChar: Gamma
Encoding: 915 915 348
Width: 1249
Flags: W
LayerCount: 2
Fore
SplineSet
1330 1409 m 1,0,-1
 1286 1181 l 1,1,-1
 560 1181 l 1,2,-1
 331 1 l 1,3,-1
 36 1 l 1,4,-1
 309 1409 l 1,5,-1
 1330 1409 l 1,0,-1
EndSplineSet
EndChar

StartChar: Delta
Encoding: 916 916 349
Width: 1375
Flags: W
LayerCount: 2
Fore
SplineSet
-19 226 m 1,0,-1
 693 1409 l 1,1,-1
 1038 1408 l 1,2,-1
 1284 226 l 1,3,-1
 1240 0 l 1,4,-1
 -64 0 l 1,5,-1
 -19 226 l 1,0,-1
995 244 m 1,6,-1
 865 942 l 2,7,8
 858 983 858 983 851.5 1023.5 c 128,-1,9
 845 1064 845 1064 840 1098.5 c 128,-1,10
 835 1133 835 1133 832.5 1157.5 c 128,-1,11
 830 1182 830 1182 830 1189 c 1,12,13
 827 1182 827 1182 814.5 1157 c 128,-1,14
 802 1132 802 1132 784 1097 c 128,-1,15
 766 1062 766 1062 743.5 1021 c 128,-1,16
 721 980 721 980 698 940 c 2,17,-1
 300 244 l 1,18,-1
 995 244 l 1,6,-1
EndSplineSet
EndChar

StartChar: Theta
Encoding: 920 920 353
Width: 1593
Flags: W
LayerCount: 2
Fore
SplineSet
556 827 m 1,0,-1
 1143 827 l 1,1,-1
 1099 599 l 1,2,-1
 512 599 l 1,3,-1
 556 827 l 1,0,-1
928 1430 m 0,4,5
 1076 1430 1076 1430 1193 1389.5 c 128,-1,6
 1310 1349 1310 1349 1391.5 1273.5 c 128,-1,7
 1473 1198 1473 1198 1516 1091 c 128,-1,8
 1559 984 1559 984 1559 851 c 0,9,10
 1559 802 1559 802 1554 749.5 c 128,-1,11
 1549 697 1549 697 1539 649 c 0,12,13
 1508 495 1508 495 1437.5 371.5 c 128,-1,14
 1367 248 1367 248 1263 161 c 128,-1,15
 1159 74 1159 74 1023.5 27 c 128,-1,16
 888 -20 888 -20 727 -20 c 0,17,18
 574 -20 574 -20 457 23.5 c 128,-1,19
 340 67 340 67 260.5 145.5 c 128,-1,20
 181 224 181 224 140.5 333 c 128,-1,21
 100 442 100 442 100 573 c 0,22,23
 100 619 100 619 104.5 667 c 128,-1,24
 109 715 109 715 119 764 c 0,25,26
 150 914 150 914 219 1037 c 128,-1,27
 288 1160 288 1160 391 1247.5 c 128,-1,28
 494 1335 494 1335 629.5 1382.5 c 128,-1,29
 765 1430 765 1430 928 1430 c 0,4,5
914 1197 m 0,30,31
 807 1197 807 1197 723 1165 c 128,-1,32
 639 1133 639 1133 577.5 1073 c 128,-1,33
 516 1013 516 1013 475 925.5 c 128,-1,34
 434 838 434 838 413 727 c 0,35,36
 406 690 406 690 403 652.5 c 128,-1,37
 400 615 400 615 400 581 c 0,38,39
 400 397 400 397 490 304.5 c 128,-1,40
 580 212 580 212 741 212 c 0,41,42
 849 212 849 212 933 244.5 c 128,-1,43
 1017 277 1017 277 1079 338 c 128,-1,44
 1141 399 1141 399 1181.5 485.5 c 128,-1,45
 1222 572 1222 572 1243 680 c 0,46,47
 1250 716 1250 716 1252.5 757 c 128,-1,48
 1255 798 1255 798 1255 827 c 0,49,50
 1255 920 1255 920 1231 989 c 128,-1,51
 1207 1058 1207 1058 1163 1104.5 c 128,-1,52
 1119 1151 1119 1151 1055.5 1174 c 128,-1,53
 992 1197 992 1197 914 1197 c 0,30,31
EndSplineSet
EndChar

StartChar: Lambda
Encoding: 923 923 356
Width: 1366
Flags: W
LayerCount: 2
Fore
SplineSet
1244 1 m 1,0,-1
 949 1 l 1,1,-1
 832 886 l 2,2,3
 827 930 827 930 822.5 977 c 128,-1,4
 818 1024 818 1024 816 1063 c 0,5,6
 813 1109 813 1109 812 1152 c 1,7,8
 793 1110 793 1110 772 1064 c 0,9,10
 754 1025 754 1025 731.5 978 c 128,-1,11
 709 931 709 931 686 886 c 2,12,-1
 224 1 l 1,13,-1
 -93 1 l 1,14,-1
 701 1410 l 1,15,-1
 1000 1410 l 1,16,-1
 1244 1 l 1,0,-1
EndSplineSet
EndChar

StartChar: Xi
Encoding: 926 926 359
Width: 1346
Flags: W
LayerCount: 2
Fore
SplineSet
300 1409 m 1,0,-1
 1381 1409 l 1,1,-1
 1337 1181 l 1,2,-1
 256 1181 l 1,3,-1
 300 1409 l 1,0,-1
1187 228 m 1,4,-1
 1142 0 l 1,5,-1
 -8 0 l 1,6,-1
 37 228 l 1,7,-1
 1187 228 l 1,4,-1
1148 827 m 1,8,-1
 1104 599 l 1,9,-1
 263 599 l 1,10,-1
 307 827 l 1,11,-1
 1148 827 l 1,8,-1
EndSplineSet
EndChar

StartChar: Pi
Encoding: 928 928 361
Width: 1470
Flags: W
LayerCount: 2
Fore
SplineSet
945 0 m 1,0,-1
 1172 1165 l 1,1,-1
 556 1165 l 1,2,-1
 329 0 l 1,3,-1
 36 0 l 1,4,-1
 309 1409 l 1,5,-1
 1504 1409 l 1,6,-1
 1230 0 l 1,7,-1
 945 0 l 1,0,-1
EndSplineSet
EndChar

StartChar: Sigma
Encoding: 931 931 363
Width: 1209
Flags: W
LayerCount: 2
Fore
SplineSet
-47 0 m 1,0,-1
 3 251 l 1,1,-1
 548 758 l 1,2,-1
 202 1193 l 1,3,-1
 243 1409 l 1,4,-1
 1242 1409 l 1,5,-1
 1198 1181 l 1,6,-1
 501 1181 l 1,7,-1
 800 808 l 1,8,-1
 773 674 l 1,9,-1
 293 228 l 1,10,-1
 1074 228 l 1,11,-1
 1029 0 l 1,12,-1
 -47 0 l 1,0,-1
EndSplineSet
EndChar

StartChar: Phi
Encoding: 934 934 366
Width: 1684
Flags: W
LayerCount: 2
Fore
SplineSet
1071 1052 m 1,0,-1
 944 397 l 1,1,-1
 998 397 l 2,2,3
 1080 397 1080 397 1147 423 c 128,-1,4
 1214 449 1214 449 1262 499.5 c 128,-1,5
 1310 550 1310 550 1336.5 623 c 128,-1,6
 1363 696 1363 696 1363 789 c 0,7,8
 1363 847 1363 847 1348 895.5 c 128,-1,9
 1333 944 1333 944 1304 978.5 c 128,-1,10
 1275 1013 1275 1013 1232 1032.5 c 128,-1,11
 1189 1052 1189 1052 1133 1052 c 2,12,-1
 1071 1052 l 1,0,-1
595 -11 m 1,13,-1
 633 188 l 1,14,-1
 557 188 l 2,15,16
 454 188 454 188 369.5 221 c 128,-1,17
 285 254 285 254 224 315 c 128,-1,18
 163 376 163 376 129.5 461 c 128,-1,19
 96 546 96 546 96 651 c 0,20,21
 96 804 96 804 144 918.5 c 128,-1,22
 192 1033 192 1033 280 1109 c 128,-1,23
 368 1185 368 1185 493.5 1223 c 128,-1,24
 619 1261 619 1261 773 1261 c 2,25,-1
 842 1261 l 1,26,-1
 872 1419 l 1,27,-1
 1142 1419 l 1,28,-1
 1112 1261 l 1,29,-1
 1179 1261 l 2,30,31
 1296 1261 1296 1261 1384.5 1225 c 128,-1,32
 1473 1189 1473 1189 1533 1126 c 128,-1,33
 1593 1063 1593 1063 1623.5 977.5 c 128,-1,34
 1654 892 1654 892 1654 793 c 0,35,36
 1654 651 1654 651 1609 539 c 128,-1,37
 1564 427 1564 427 1478 349 c 128,-1,38
 1392 271 1392 271 1267.5 229.5 c 128,-1,39
 1143 188 1143 188 984 188 c 2,40,-1
 903 188 l 1,41,-1
 865 -11 l 1,42,-1
 595 -11 l 1,13,-1
801 1052 m 1,43,-1
 755 1052 l 2,44,45
 675 1052 675 1052 607.5 1029 c 128,-1,46
 540 1006 540 1006 491 958.5 c 128,-1,47
 442 911 442 911 414.5 837.5 c 128,-1,48
 387 764 387 764 387 662 c 0,49,50
 387 607 387 607 400.5 558.5 c 128,-1,51
 414 510 414 510 441.5 474 c 128,-1,52
 469 438 469 438 510.5 417.5 c 128,-1,53
 552 397 552 397 608 397 c 2,54,-1
 674 397 l 1,55,-1
 801 1052 l 1,43,-1
EndSplineSet
EndChar

StartChar: Psi
Encoding: 936 936 368
Width: 1697
Flags: W
LayerCount: 2
Fore
SplineSet
968 427 m 1,0,-1
 885 0 l 1,1,-1
 606 0 l 1,2,-1
 689 427 l 1,3,-1
 660 427 l 2,4,5
 534 427 534 427 442 456 c 128,-1,6
 350 485 350 485 289.5 538.5 c 128,-1,7
 229 592 229 592 199.5 668 c 128,-1,8
 170 744 170 744 170 839 c 0,9,10
 170 909 170 909 185 987 c 2,11,-1
 267 1409 l 1,12,-1
 546 1409 l 1,13,-1
 462 973 l 2,14,15
 459 960 459 960 457 944.5 c 128,-1,16
 455 929 455 929 453.5 913 c 128,-1,17
 452 897 452 897 451 882.5 c 128,-1,18
 450 868 450 868 450 857 c 0,19,20
 450 751 450 751 515 699.5 c 128,-1,21
 580 648 580 648 705 648 c 2,22,-1
 732 648 l 1,23,-1
 880 1409 l 1,24,-1
 1159 1409 l 1,25,-1
 1011 648 l 1,26,-1
 1049 648 l 2,27,28
 1125 648 1125 648 1184 664 c 128,-1,29
 1243 680 1243 680 1286.5 715 c 128,-1,30
 1330 750 1330 750 1359 806 c 128,-1,31
 1388 862 1388 862 1403 942 c 2,32,-1
 1493 1409 l 1,33,-1
 1772 1409 l 1,34,-1
 1682 946 l 2,35,36
 1657 819 1657 819 1613 722 c 128,-1,37
 1569 625 1569 625 1494.5 559.5 c 128,-1,38
 1420 494 1420 494 1310 460.5 c 128,-1,39
 1200 427 1200 427 1043 427 c 2,40,-1
 968 427 l 1,0,-1
EndSplineSet
EndChar

StartChar: Omega
Encoding: 937 937 369
Width: 1599
Flags: W
LayerCount: 2
Fore
SplineSet
909 1430 m 0,0,1
 1061 1430 1061 1430 1181.5 1389.5 c 128,-1,2
 1302 1349 1302 1349 1385 1276 c 128,-1,3
 1468 1203 1468 1203 1512 1103 c 128,-1,4
 1556 1003 1556 1003 1556 883 c 0,5,6
 1556 771 1556 771 1528.5 669.5 c 128,-1,7
 1501 568 1501 568 1438.5 482.5 c 128,-1,8
 1376 397 1376 397 1274.5 329.5 c 128,-1,9
 1173 262 1173 262 1025 217 c 1,10,11
 1070 220 1070 220 1110 223 c 0,12,13
 1145 225 1145 225 1182 226.5 c 128,-1,14
 1219 228 1219 228 1242 228 c 2,15,-1
 1467 228 l 1,16,-1
 1423 0 l 1,17,-1
 792 0 l 1,18,-1
 855 322 l 1,19,20
 950 352 950 352 1024 402 c 128,-1,21
 1098 452 1098 452 1149 519 c 128,-1,22
 1200 586 1200 586 1226.5 669 c 128,-1,23
 1253 752 1253 752 1253 849 c 0,24,25
 1253 932 1253 932 1228 997 c 128,-1,26
 1203 1062 1203 1062 1157 1107 c 128,-1,27
 1111 1152 1111 1152 1045.5 1175.5 c 128,-1,28
 980 1199 980 1199 898 1199 c 0,29,30
 810 1199 810 1199 727 1170.5 c 128,-1,31
 644 1142 644 1142 580 1083 c 128,-1,32
 516 1024 516 1024 477.5 932.5 c 128,-1,33
 439 841 439 841 439 715 c 0,34,35
 439 639 439 639 457 577.5 c 128,-1,36
 475 516 475 516 505 468 c 128,-1,37
 535 420 535 420 575 384 c 128,-1,38
 615 348 615 348 658 322 c 1,39,-1
 593 0 l 1,40,-1
 -32 0 l 1,41,-1
 12 228 l 1,42,-1
 257 228 l 2,43,44
 280 228 280 228 315.5 226.5 c 128,-1,45
 351 225 351 225 386 223 c 0,46,47
 426 220 426 220 470 217 c 1,48,49
 404 252 404 252 344 305 c 128,-1,50
 284 358 284 358 238 426.5 c 128,-1,51
 192 495 192 495 165 576 c 128,-1,52
 138 657 138 657 138 747 c 0,53,54
 138 911 138 911 196 1038.5 c 128,-1,55
 254 1166 254 1166 357 1253 c 128,-1,56
 460 1340 460 1340 601.5 1385 c 128,-1,57
 743 1430 743 1430 909 1430 c 0,0,1
EndSplineSet
EndChar

StartChar: alpha
Encoding: 945 945 377
Width: 1270
Flags: W
LayerCount: 2
Fore
SplineSet
612 1101 m 0,0,1
 686 1101 686 1101 744 1082.5 c 128,-1,2
 802 1064 802 1064 844 1030 c 128,-1,3
 886 996 886 996 912.5 949.5 c 128,-1,4
 939 903 939 903 950 847 c 1,5,-1
 952 847 l 1,6,7
 960 868 960 868 975 901 c 128,-1,8
 990 934 990 934 1007 968.5 c 128,-1,9
 1024 1003 1024 1003 1041 1034 c 128,-1,10
 1058 1065 1058 1065 1069 1082 c 1,11,-1
 1341 1082 l 1,12,13
 1309 1035 1309 1035 1270 965 c 128,-1,14
 1231 895 1231 895 1193 817 c 128,-1,15
 1155 739 1155 739 1121 659.5 c 128,-1,16
 1087 580 1087 580 1065 514 c 1,17,18
 1065 413 1065 413 1069 338 c 128,-1,19
 1073 263 1073 263 1079 204 c 128,-1,20
 1085 145 1085 145 1093.5 96.5 c 128,-1,21
 1102 48 1102 48 1111 0 c 1,22,-1
 833 0 l 1,23,24
 828 24 828 24 823 54.5 c 128,-1,25
 818 85 818 85 814.5 116 c 128,-1,26
 811 147 811 147 809 176 c 128,-1,27
 807 205 807 205 807 225 c 2,28,-1
 807 240 l 1,29,-1
 803 240 l 1,30,31
 769 187 769 187 730.5 139.5 c 128,-1,32
 692 92 692 92 644.5 56.5 c 128,-1,33
 597 21 597 21 538.5 0 c 128,-1,34
 480 -21 480 -21 405 -21 c 0,35,36
 321 -21 321 -21 256 6 c 128,-1,37
 191 33 191 33 147 84 c 128,-1,38
 103 135 103 135 80 208.5 c 128,-1,39
 57 282 57 282 57 375 c 0,40,41
 57 421 57 421 63 478 c 128,-1,42
 69 535 69 535 80 589 c 0,43,44
 108 731 108 731 158.5 829 c 128,-1,45
 209 927 209 927 277.5 987.5 c 128,-1,46
 346 1048 346 1048 430.5 1074.5 c 128,-1,47
 515 1101 515 1101 612 1101 c 0,0,1
616 907 m 0,48,49
 571 907 571 907 532.5 889.5 c 128,-1,50
 494 872 494 872 462.5 831.5 c 128,-1,51
 431 791 431 791 406.5 724 c 128,-1,52
 382 657 382 657 365 558 c 0,53,54
 357 508 357 508 353 465.5 c 128,-1,55
 349 423 349 423 349 387 c 0,56,57
 349 174 349 174 495 174 c 0,58,59
 536 174 536 174 577 198 c 128,-1,60
 618 222 618 222 656.5 269.5 c 128,-1,61
 695 317 695 317 729 388 c 128,-1,62
 763 459 763 459 790 552 c 1,63,64
 791 569 791 569 791.5 585 c 128,-1,65
 792 601 792 601 792 616 c 0,66,67
 792 679 792 679 782 732.5 c 128,-1,68
 772 786 772 786 751 825 c 128,-1,69
 730 864 730 864 696.5 885.5 c 128,-1,70
 663 907 663 907 616 907 c 0,48,49
EndSplineSet
EndChar

StartChar: beta
Encoding: 946 946 378
Width: 1271
Flags: W
LayerCount: 2
Fore
SplineSet
235 1011 m 2,0,1
 280 1242 280 1242 416.5 1363 c 128,-1,2
 553 1484 553 1484 792 1484 c 0,3,4
 883 1484 883 1484 958.5 1461 c 128,-1,5
 1034 1438 1034 1438 1088.5 1395 c 128,-1,6
 1143 1352 1143 1352 1173 1292.5 c 128,-1,7
 1203 1233 1203 1233 1203 1159 c 0,8,9
 1203 1076 1203 1076 1178.5 1011 c 128,-1,10
 1154 946 1154 946 1113.5 899 c 128,-1,11
 1073 852 1073 852 1020 823 c 128,-1,12
 967 794 967 794 910 782 c 1,13,14
 964 769 964 769 1010 741 c 128,-1,15
 1056 713 1056 713 1090.5 672 c 128,-1,16
 1125 631 1125 631 1144.5 578 c 128,-1,17
 1164 525 1164 525 1164 461 c 0,18,19
 1164 354 1164 354 1129.5 265.5 c 128,-1,20
 1095 177 1095 177 1029 113.5 c 128,-1,21
 963 50 963 50 868 15 c 128,-1,22
 773 -20 773 -20 651 -20 c 0,23,24
 551 -20 551 -20 470.5 8 c 128,-1,25
 390 36 390 36 336 74 c 1,26,-1
 330 74 l 1,27,28
 321 17 321 17 314.5 -29 c 128,-1,29
 308 -75 308 -75 297 -128 c 2,30,-1
 238 -425 l 1,31,-1
 -44 -425 l 1,32,-1
 235 1011 l 2,0,1
769 1281 m 0,33,34
 672 1281 672 1281 608 1214 c 128,-1,35
 544 1147 544 1147 517 1009 c 2,36,-1
 370 255 l 1,37,38
 389 241 389 241 415.5 226 c 128,-1,39
 442 211 442 211 472.5 199 c 128,-1,40
 503 187 503 187 537 179.5 c 128,-1,41
 571 172 571 172 605 172 c 0,42,43
 666 172 666 172 717.5 189.5 c 128,-1,44
 769 207 769 207 806.5 242.5 c 128,-1,45
 844 278 844 278 865 331.5 c 128,-1,46
 886 385 886 385 886 457 c 0,47,48
 886 504 886 504 867.5 544.5 c 128,-1,49
 849 585 849 585 813 614 c 128,-1,50
 777 643 777 643 724.5 659.5 c 128,-1,51
 672 676 672 676 604 676 c 1,52,-1
 644 874 l 1,53,54
 712 882 712 882 765 900.5 c 128,-1,55
 818 919 818 919 855.5 949 c 128,-1,56
 893 979 893 979 912.5 1022.5 c 128,-1,57
 932 1066 932 1066 932 1123 c 0,58,59
 932 1193 932 1193 891.5 1237 c 128,-1,60
 851 1281 851 1281 769 1281 c 0,33,34
EndSplineSet
EndChar

StartChar: gamma
Encoding: 947 947 379
Width: 1139
Flags: W
LayerCount: 2
Fore
SplineSet
108 1082 m 1,0,-1
 396 1082 l 1,1,-1
 474 507 l 2,2,3
 477 484 477 484 480.5 442 c 128,-1,4
 484 400 484 400 486.5 353.5 c 128,-1,5
 489 307 489 307 491 262.5 c 128,-1,6
 493 218 493 218 493 188 c 1,7,8
 503 219 503 219 517.5 255.5 c 128,-1,9
 532 292 532 292 547 327.5 c 128,-1,10
 562 363 562 363 576.5 394.5 c 128,-1,11
 591 426 591 426 601 447 c 2,12,-1
 926 1082 l 1,13,-1
 1231 1082 l 1,14,-1
 636 54 l 2,15,16
 604 -1 604 -1 575 -56.5 c 128,-1,17
 546 -112 546 -112 519 -170.5 c 128,-1,18
 492 -229 492 -229 467.5 -292 c 128,-1,19
 443 -355 443 -355 420 -425 c 1,20,-1
 130 -425 l 1,21,22
 176 -291 176 -291 223.5 -184 c 128,-1,23
 271 -77 271 -77 316 11 c 1,24,-1
 108 1082 l 1,0,-1
EndSplineSet
EndChar

StartChar: delta
Encoding: 948 948 380
Width: 1250
Flags: W
LayerCount: 2
Fore
SplineSet
557 177 m 0,0,1
 631 177 631 177 686.5 206.5 c 128,-1,2
 742 236 742 236 779.5 287.5 c 128,-1,3
 817 339 817 339 836 408.5 c 128,-1,4
 855 478 855 478 855 558 c 0,5,6
 855 616 855 616 844.5 664.5 c 128,-1,7
 834 713 834 713 816 754 c 128,-1,8
 798 795 798 795 773 831 c 128,-1,9
 748 867 748 867 719 900 c 1,10,11
 682 886 682 886 640 868.5 c 128,-1,12
 598 851 598 851 556.5 825.5 c 128,-1,13
 515 800 515 800 477 765 c 128,-1,14
 439 730 439 730 409.5 682.5 c 128,-1,15
 380 635 380 635 362.5 572.5 c 128,-1,16
 345 510 345 510 345 430 c 0,17,18
 345 369 345 369 361 322 c 128,-1,19
 377 275 377 275 405 242.5 c 128,-1,20
 433 210 433 210 472 193.5 c 128,-1,21
 511 177 511 177 557 177 c 0,0,1
855 1294 m 2,22,23
 842 1294 842 1294 821.5 1295 c 128,-1,24
 801 1296 801 1296 778.5 1297.5 c 128,-1,25
 756 1299 756 1299 735.5 1300 c 128,-1,26
 715 1301 715 1301 703 1302 c 1,27,-1
 960 992 l 1,28,29
 1001 938 1001 938 1035 886.5 c 128,-1,30
 1069 835 1069 835 1093.5 780 c 128,-1,31
 1118 725 1118 725 1132 665.5 c 128,-1,32
 1146 606 1146 606 1146 537 c 0,33,34
 1146 405 1146 405 1101 302 c 128,-1,35
 1056 199 1056 199 974.5 127.5 c 128,-1,36
 893 56 893 56 780.5 18.5 c 128,-1,37
 668 -19 668 -19 533 -19 c 0,38,39
 420 -19 420 -19 331 14 c 128,-1,40
 242 47 242 47 180.5 105.5 c 128,-1,41
 119 164 119 164 87 243.5 c 128,-1,42
 55 323 55 323 55 415 c 0,43,44
 55 549 55 549 101 647.5 c 128,-1,45
 147 746 147 746 225.5 817 c 128,-1,46
 304 888 304 888 407.5 935.5 c 128,-1,47
 511 983 511 983 625 1013 c 1,48,-1
 378 1325 l 1,49,-1
 414 1484 l 1,50,-1
 1253 1484 l 1,51,-1
 1225 1294 l 1,52,-1
 855 1294 l 2,22,23
EndSplineSet
EndChar

StartChar: epsilon
Encoding: 949 949 381
Width: 980
Flags: W
LayerCount: 2
Fore
SplineSet
462 170 m 0,0,1
 551 170 551 170 625.5 209.5 c 128,-1,2
 700 249 700 249 769 310 c 1,3,-1
 897 159 l 1,4,5
 851 116 851 116 802 83 c 128,-1,6
 753 50 753 50 696 27 c 128,-1,7
 639 4 639 4 571 -8 c 128,-1,8
 503 -20 503 -20 420 -20 c 0,9,10
 328 -20 328 -20 255 4 c 128,-1,11
 182 28 182 28 131 70 c 128,-1,12
 80 112 80 112 53 169 c 128,-1,13
 26 226 26 226 26 292 c 0,14,15
 26 359 26 359 50 409.5 c 128,-1,16
 74 460 74 460 116.5 495.5 c 128,-1,17
 159 531 159 531 218.5 551.5 c 128,-1,18
 278 572 278 572 349 579 c 1,19,-1
 350 581 l 1,20,21
 311 592 311 592 277 611.5 c 128,-1,22
 243 631 243 631 217 659.5 c 128,-1,23
 191 688 191 688 176 725 c 128,-1,24
 161 762 161 762 161 806 c 0,25,26
 161 879 161 879 192.5 934.5 c 128,-1,27
 224 990 224 990 281.5 1027 c 128,-1,28
 339 1064 339 1064 420.5 1082.5 c 128,-1,29
 502 1101 502 1101 602 1101 c 0,30,31
 671 1101 671 1101 729.5 1089.5 c 128,-1,32
 788 1078 788 1078 837.5 1052.5 c 128,-1,33
 887 1027 887 1027 927.5 986.5 c 128,-1,34
 968 946 968 946 999 888 c 1,35,-1
 807 804 l 1,36,37
 772 867 772 867 720.5 895 c 128,-1,38
 669 923 669 923 603 923 c 0,39,40
 569 923 569 923 536.5 916 c 128,-1,41
 504 909 504 909 479.5 894 c 128,-1,42
 455 879 455 879 440 854.5 c 128,-1,43
 425 830 425 830 425 794 c 0,44,45
 425 755 425 755 448 728 c 128,-1,46
 471 701 471 701 511.5 684 c 128,-1,47
 552 667 552 667 606 659.5 c 128,-1,48
 660 652 660 652 723 652 c 1,49,-1
 699 477 l 1,50,51
 630 477 630 477 561.5 473.5 c 128,-1,52
 493 470 493 470 438.5 453.5 c 128,-1,53
 384 437 384 437 350.5 402 c 128,-1,54
 317 367 317 367 317 304 c 0,55,56
 317 245 317 245 356.5 207.5 c 128,-1,57
 396 170 396 170 462 170 c 0,0,1
EndSplineSet
EndChar

StartChar: zeta
Encoding: 950 950 382
Width: 1007
Flags: W
LayerCount: 2
Fore
SplineSet
1088 1484 m 1,0,-1
 1054 1295 l 1,1,2
 980 1231 980 1231 897.5 1158 c 128,-1,3
 815 1085 815 1085 734.5 1007.5 c 128,-1,4
 654 930 654 930 580.5 848.5 c 128,-1,5
 507 767 507 767 451 686 c 128,-1,6
 395 605 395 605 361.5 526 c 128,-1,7
 328 447 328 447 328 373 c 0,8,9
 328 334 328 334 343 308.5 c 128,-1,10
 358 283 358 283 387.5 264 c 128,-1,11
 417 245 417 245 460.5 230 c 128,-1,12
 504 215 504 215 561 198 c 0,13,14
 616 182 616 182 667.5 162 c 128,-1,15
 719 142 719 142 759 113 c 128,-1,16
 799 84 799 84 823 43.5 c 128,-1,17
 847 3 847 3 847 -56 c 0,18,19
 847 -105 847 -105 834.5 -153.5 c 128,-1,20
 822 -202 822 -202 799.5 -246.5 c 128,-1,21
 777 -291 777 -291 747.5 -330.5 c 128,-1,22
 718 -370 718 -370 683 -402 c 1,23,-1
 530 -305 l 1,24,25
 542 -290 542 -290 556.5 -271.5 c 128,-1,26
 571 -253 571 -253 583 -232.5 c 128,-1,27
 595 -212 595 -212 603 -189.5 c 128,-1,28
 611 -167 611 -167 611 -145 c 0,29,30
 611 -117 611 -117 591.5 -96.5 c 128,-1,31
 572 -76 572 -76 537 -59.5 c 128,-1,32
 502 -43 502 -43 454.5 -29 c 128,-1,33
 407 -15 407 -15 351 -1 c 0,34,35
 289 15 289 15 234 37 c 128,-1,36
 179 59 179 59 138 94 c 128,-1,37
 97 129 97 129 73 179.5 c 128,-1,38
 49 230 49 230 49 303 c 0,39,40
 49 393 49 393 80 483 c 128,-1,41
 111 573 111 573 164.5 661 c 128,-1,42
 218 749 218 749 290 834 c 128,-1,43
 362 919 362 919 443.5 999 c 128,-1,44
 525 1079 525 1079 612.5 1153.5 c 128,-1,45
 700 1228 700 1228 784 1295 c 1,46,-1
 785 1301 l 1,47,48
 773 1300 773 1300 756.5 1299 c 128,-1,49
 740 1298 740 1298 722.5 1297 c 128,-1,50
 705 1296 705 1296 688.5 1295.5 c 128,-1,51
 672 1295 672 1295 661 1295 c 2,52,-1
 350 1295 l 1,53,-1
 387 1484 l 1,54,-1
 1088 1484 l 1,0,-1
EndSplineSet
EndChar

StartChar: eta
Encoding: 951 951 383
Width: 1251
Flags: W
LayerCount: 2
Fore
SplineSet
1165 817 m 0,0,1
 1165 799 1165 799 1162.5 776 c 128,-1,2
 1160 753 1160 753 1157 730.5 c 128,-1,3
 1154 708 1154 708 1150.5 687.5 c 128,-1,4
 1147 667 1147 667 1144 653 c 2,5,-1
 935 -425 l 1,6,-1
 656 -425 l 1,7,-1
 856 595 l 2,8,9
 860 614 860 614 864.5 637 c 128,-1,10
 869 660 869 660 873 683 c 128,-1,11
 877 706 877 706 879.5 726.5 c 128,-1,12
 882 747 882 747 882 760 c 0,13,14
 882 823 882 823 844 856 c 128,-1,15
 806 889 806 889 730 889 c 0,16,17
 683 889 683 889 636 869 c 128,-1,18
 589 849 589 849 548.5 812 c 128,-1,19
 508 775 508 775 477.5 722.5 c 128,-1,20
 447 670 447 670 435 606 c 2,21,-1
 319 0 l 1,22,-1
 37 0 l 1,23,-1
 202 851 l 2,24,25
 216 919 216 919 216 979.5 c 128,-1,26
 216 1040 216 1040 211 1082 c 1,27,-1
 480 1082 l 1,28,29
 485 1061 485 1061 487 1037 c 128,-1,30
 489 1013 489 1013 489 988.5 c 128,-1,31
 489 964 489 964 487.5 940.5 c 128,-1,32
 486 917 486 917 482 897 c 1,33,-1
 486 897 l 1,34,35
 516 939 516 939 552.5 976 c 128,-1,36
 589 1013 589 1013 634 1041 c 128,-1,37
 679 1069 679 1069 734.5 1085 c 128,-1,38
 790 1101 790 1101 859 1101 c 0,39,40
 1011 1101 1011 1101 1088 1028 c 128,-1,41
 1165 955 1165 955 1165 817 c 0,0,1
EndSplineSet
EndChar

StartChar: theta
Encoding: 952 952 384
Width: 1142
Flags: W
LayerCount: 2
Fore
SplineSet
735 1484 m 0,0,1
 920 1484 920 1484 1010 1367.5 c 128,-1,2
 1100 1251 1100 1251 1100 1028 c 0,3,4
 1100 964 1100 964 1091 882 c 128,-1,5
 1082 800 1082 800 1065 709 c 0,6,7
 1028 519 1028 519 972.5 381 c 128,-1,8
 917 243 917 243 843 154 c 128,-1,9
 769 65 769 65 675 22.5 c 128,-1,10
 581 -20 581 -20 467 -20 c 0,11,12
 385 -20 385 -20 319 9.5 c 128,-1,13
 253 39 253 39 206 99 c 128,-1,14
 159 159 159 159 133.5 248.5 c 128,-1,15
 108 338 108 338 108 458 c 0,16,17
 108 516 108 516 115 589.5 c 128,-1,18
 122 663 122 663 138 743 c 0,19,20
 211 1117 211 1117 357 1300.5 c 128,-1,21
 503 1484 503 1484 735 1484 c 0,0,1
502 163 m 0,22,23
 544 163 544 163 582.5 185.5 c 128,-1,24
 621 208 621 208 655 262.5 c 128,-1,25
 689 317 689 317 718.5 410 c 128,-1,26
 748 503 748 503 772 644 c 1,27,-1
 393 644 l 1,28,29
 381 579 381 579 373.5 512.5 c 128,-1,30
 366 446 366 446 366 399 c 0,31,32
 366 332 366 332 376 287 c 128,-1,33
 386 242 386 242 404 214.5 c 128,-1,34
 422 187 422 187 447 175 c 128,-1,35
 472 163 472 163 502 163 c 0,22,23
698 1299 m 0,36,37
 656 1299 656 1299 618 1277.5 c 128,-1,38
 580 1256 580 1256 546 1202.5 c 128,-1,39
 512 1149 512 1149 483.5 1059.5 c 128,-1,40
 455 970 455 970 431 834 c 1,41,-1
 809 834 l 1,42,43
 822 893 822 893 831 954.5 c 128,-1,44
 840 1016 840 1016 840 1062 c 0,45,46
 840 1188 840 1188 801.5 1243.5 c 128,-1,47
 763 1299 763 1299 698 1299 c 0,36,37
EndSplineSet
EndChar

StartChar: iota
Encoding: 953 953 385
Width: 569
Flags: W
LayerCount: 2
Fore
SplineSet
352 145 m 0,0,1
 352 59 352 59 394 0 c 1,2,-1
 94 0 l 1,3,4
 84 16 84 16 75.5 50.5 c 128,-1,5
 67 85 67 85 67 124 c 0,6,7
 67 152 67 152 70 183 c 128,-1,8
 73 214 73 214 78 236 c 2,9,-1
 243 1082 l 1,10,-1
 525 1082 l 1,11,-1
 358 227 l 2,12,13
 355 210 355 210 353.5 186 c 128,-1,14
 352 162 352 162 352 145 c 0,0,1
EndSplineSet
EndChar

StartChar: kappa
Encoding: 954 954 386
Width: 1159
Flags: W
LayerCount: 2
Fore
SplineSet
753 0 m 1,0,-1
 563 439 l 1,1,-1
 387 326 l 1,2,-1
 318 0 l 1,3,-1
 37 0 l 1,4,-1
 248 1082 l 1,5,-1
 529 1082 l 1,6,-1
 427 561 l 1,7,-1
 932 1082 l 1,8,-1
 1234 1082 l 1,9,-1
 764 620 l 1,10,-1
 1041 0 l 1,11,-1
 753 0 l 1,0,-1
EndSplineSet
EndChar

StartChar: lambda
Encoding: 955 955 387
Width: 1139
Flags: W
LayerCount: 2
Fore
SplineSet
1006 0 m 1,0,-1
 722 0 l 1,1,-1
 675 462 l 2,2,3
 673 485 673 485 669 522.5 c 128,-1,4
 665 560 665 560 661.5 601 c 128,-1,5
 658 642 658 642 655 680 c 128,-1,6
 652 718 652 718 652 741 c 1,7,8
 640 714 640 714 618.5 673.5 c 128,-1,9
 597 633 597 633 572.5 589 c 128,-1,10
 548 545 548 545 523 502 c 128,-1,11
 498 459 498 459 479 429 c 2,12,-1
 214 0 l 1,13,-1
 -92 0 l 1,14,-1
 586 1020 l 1,15,-1
 574 1093 l 1,16,17
 560 1162 560 1162 546.5 1208 c 128,-1,18
 533 1254 533 1254 515.5 1281.5 c 128,-1,19
 498 1309 498 1309 475 1320.5 c 128,-1,20
 452 1332 452 1332 420 1332 c 0,21,22
 400 1332 400 1332 375 1327.5 c 128,-1,23
 350 1323 350 1323 330 1315 c 1,24,-1
 304 1507 l 1,25,26
 337 1518 337 1518 388 1527.5 c 128,-1,27
 439 1537 439 1537 496 1537 c 0,28,29
 577 1537 577 1537 632.5 1515.5 c 128,-1,30
 688 1494 688 1494 725.5 1448 c 128,-1,31
 763 1402 763 1402 786 1331 c 128,-1,32
 809 1260 809 1260 824 1162 c 2,33,-1
 1006 0 l 1,0,-1
EndSplineSet
EndChar

StartChar: mu
Encoding: 956 956 388
Width: 1235
Flags: W
LayerCount: 2
Fore
SplineSet
739 0 m 1,0,1
 740 12 740 12 742 34 c 128,-1,2
 744 56 744 56 747 82.5 c 128,-1,3
 750 109 750 109 754 136 c 128,-1,4
 758 163 758 163 762 184 c 1,5,-1
 759 184 l 1,6,7
 702 85 702 85 633.5 32.5 c 128,-1,8
 565 -20 565 -20 479 -20 c 0,9,10
 422 -20 422 -20 382.5 4 c 128,-1,11
 343 28 343 28 328 70 c 1,12,-1
 322 70 l 1,13,14
 318 42 318 42 316 26.5 c 128,-1,15
 314 11 314 11 313 0.5 c 128,-1,16
 312 -10 312 -10 310.5 -19.5 c 128,-1,17
 309 -29 309 -29 306 -45 c 2,18,-1
 233 -424 l 1,19,-1
 -47 -424 l 1,20,-1
 244 1082 l 1,21,-1
 525 1082 l 1,22,-1
 407 477 l 2,23,24
 401 444 401 444 397.5 414 c 128,-1,25
 394 384 394 384 394 358 c 0,26,27
 394 282 394 282 426.5 237.5 c 128,-1,28
 459 193 459 193 536 193 c 0,29,30
 586 193 586 193 630.5 215.5 c 128,-1,31
 675 238 675 238 711.5 278.5 c 128,-1,32
 748 319 748 319 775 376.5 c 128,-1,33
 802 434 802 434 816 504 c 2,34,-1
 928 1082 l 1,35,-1
 1209 1082 l 1,36,-1
 1046 242 l 2,37,38
 1039 208 1039 208 1032.5 171.5 c 128,-1,39
 1026 135 1026 135 1021 101.5 c 128,-1,40
 1016 68 1016 68 1012 41 c 128,-1,41
 1008 14 1008 14 1007 0 c 1,42,-1
 739 0 l 1,0,1
EndSplineSet
EndChar

StartChar: nu
Encoding: 957 957 389
Width: 1139
Flags: W
LayerCount: 2
Fore
SplineSet
489 239 m 1,0,1
 567 334 567 334 629.5 420 c 128,-1,2
 692 506 692 506 735.5 592 c 128,-1,3
 779 678 779 678 802.5 768.5 c 128,-1,4
 826 859 826 859 826 962 c 0,5,6
 826 997 826 997 821.5 1026 c 128,-1,7
 817 1055 817 1055 812 1082 c 1,8,-1
 1102 1082 l 1,9,10
 1110 1057 1110 1057 1114.5 1029 c 128,-1,11
 1119 1001 1119 1001 1119 967 c 0,12,13
 1119 883 1119 883 1096.5 799.5 c 128,-1,14
 1074 716 1074 716 1034.5 633 c 128,-1,15
 995 550 995 550 941 468.5 c 128,-1,16
 887 387 887 387 823.5 308 c 128,-1,17
 760 229 760 229 691 151.5 c 128,-1,18
 622 74 622 74 551 0 c 1,19,-1
 284 0 l 1,20,-1
 105 1082 l 1,21,-1
 392 1082 l 1,22,-1
 489 239 l 1,0,1
EndSplineSet
EndChar

StartChar: xi
Encoding: 958 958 390
Width: 921
Flags: W
LayerCount: 2
Fore
SplineSet
1015 1484 m 1,0,-1
 979 1299 l 1,1,2
 898 1290 898 1290 825.5 1275 c 128,-1,3
 753 1260 753 1260 698 1233.5 c 128,-1,4
 643 1207 643 1207 610.5 1167 c 128,-1,5
 578 1127 578 1127 578 1069 c 0,6,7
 578 1023 578 1023 601.5 994 c 128,-1,8
 625 965 625 965 664 947 c 128,-1,9
 703 929 703 929 753.5 920.5 c 128,-1,10
 804 912 804 912 859 907 c 1,11,-1
 822 716 l 1,12,13
 719 704 719 704 628.5 683.5 c 128,-1,14
 538 663 538 663 471 626 c 128,-1,15
 404 589 404 589 365 531.5 c 128,-1,16
 326 474 326 474 326 389 c 0,17,18
 326 350 326 350 337.5 322.5 c 128,-1,19
 349 295 349 295 375.5 274.5 c 128,-1,20
 402 254 402 254 444.5 237 c 128,-1,21
 487 220 487 220 549 202 c 0,22,23
 599 187 599 187 648 168.5 c 128,-1,24
 697 150 697 150 735.5 121 c 128,-1,25
 774 92 774 92 798 49.5 c 128,-1,26
 822 7 822 7 822 -56 c 0,27,28
 822 -104 822 -104 808.5 -151 c 128,-1,29
 795 -198 795 -198 772.5 -242 c 128,-1,30
 750 -286 750 -286 721 -326 c 128,-1,31
 692 -366 692 -366 662 -400 c 1,32,-1
 509 -304 l 1,33,34
 540 -263 540 -263 562.5 -229 c 128,-1,35
 585 -195 585 -195 585 -154 c 0,36,37
 585 -121 585 -121 568.5 -98.5 c 128,-1,38
 552 -76 552 -76 522.5 -59 c 128,-1,39
 493 -42 493 -42 452 -29 c 128,-1,40
 411 -16 411 -16 361 -4 c 0,41,42
 304 10 304 10 248.5 31.5 c 128,-1,43
 193 53 193 53 148.5 88 c 128,-1,44
 104 123 104 123 76.5 175.5 c 128,-1,45
 49 228 49 228 49 304 c 0,46,47
 49 392 49 392 83 475 c 128,-1,48
 117 558 117 558 187 626.5 c 128,-1,49
 257 695 257 695 362.5 745 c 128,-1,50
 468 795 468 795 611 816 c 1,51,-1
 611 818 l 1,52,53
 552 822 552 822 501 838.5 c 128,-1,54
 450 855 450 855 413 883 c 128,-1,55
 376 911 376 911 355 950.5 c 128,-1,56
 334 990 334 990 334 1040 c 0,57,58
 334 1100 334 1100 361 1143 c 128,-1,59
 388 1186 388 1186 433 1216 c 128,-1,60
 478 1246 478 1246 535.5 1264.5 c 128,-1,61
 593 1283 593 1283 653 1293 c 1,62,-1
 655 1301 l 1,63,64
 643 1300 643 1300 608.5 1299 c 128,-1,65
 574 1298 574 1298 533.5 1297 c 128,-1,66
 493 1296 493 1296 455 1295.5 c 128,-1,67
 417 1295 417 1295 399 1295 c 2,68,-1
 323 1295 l 1,69,-1
 361 1484 l 1,70,-1
 1015 1484 l 1,0,-1
EndSplineSet
EndChar

StartChar: pi
Encoding: 960 960 392
Width: 1458
Flags: W
LayerCount: 2
Fore
SplineSet
626 892 m 1,0,-1
 602 768 l 2,1,2
 577 638 577 638 547.5 529 c 128,-1,3
 518 420 518 420 486.5 327 c 128,-1,4
 455 234 455 234 421.5 154 c 128,-1,5
 388 74 388 74 354 0 c 1,6,-1
 67 0 l 1,7,8
 101 76 101 76 136.5 157.5 c 128,-1,9
 172 239 172 239 206 331 c 128,-1,10
 240 423 240 423 271 529 c 128,-1,11
 302 635 302 635 326 760 c 2,12,-1
 352 892 l 1,13,14
 313 892 313 892 275.5 889 c 128,-1,15
 238 886 238 886 206.5 880.5 c 128,-1,16
 175 875 175 875 150.5 868.5 c 128,-1,17
 126 862 126 862 112 855 c 1,18,-1
 151 1053 l 1,19,20
 165 1059 165 1059 187 1064.5 c 128,-1,21
 209 1070 209 1070 235.5 1074 c 128,-1,22
 262 1078 262 1078 289 1080 c 128,-1,23
 316 1082 316 1082 339 1082 c 2,24,-1
 1478 1082 l 1,25,-1
 1441 892 l 1,26,-1
 1208 892 l 1,27,-1
 1097 329 l 2,28,29
 1091 296 1091 296 1091 271 c 0,30,31
 1091 221 1091 221 1114 199 c 128,-1,32
 1137 177 1137 177 1182 177 c 0,33,34
 1191 177 1191 177 1205 178.5 c 128,-1,35
 1219 180 1219 180 1234.5 182 c 128,-1,36
 1250 184 1250 184 1264 186.5 c 128,-1,37
 1278 189 1278 189 1286 190 c 1,38,-1
 1254 7 l 1,39,40
 1236 2 1236 2 1210 -3 c 128,-1,41
 1184 -8 1184 -8 1155.5 -12 c 128,-1,42
 1127 -16 1127 -16 1099 -18 c 128,-1,43
 1071 -20 1071 -20 1049 -20 c 0,44,45
 987 -20 987 -20 941.5 -2.5 c 128,-1,46
 896 15 896 15 866.5 46.5 c 128,-1,47
 837 78 837 78 823 122 c 128,-1,48
 809 166 809 166 809 219 c 0,49,50
 809 245 809 245 812 277.5 c 128,-1,51
 815 310 815 310 821 339 c 2,52,-1
 928 892 l 1,53,-1
 626 892 l 1,0,-1
EndSplineSet
EndChar

StartChar: rho
Encoding: 961 961 393
Width: 1240
Flags: W
LayerCount: 2
Fore
SplineSet
717 1103 m 0,0,1
 820 1103 820 1103 905 1072 c 128,-1,2
 990 1041 990 1041 1050.5 981.5 c 128,-1,3
 1111 922 1111 922 1144 834 c 128,-1,4
 1177 746 1177 746 1177 632 c 0,5,6
 1177 495 1177 495 1139.5 376 c 128,-1,7
 1102 257 1102 257 1032 169 c 128,-1,8
 962 81 962 81 863 30.5 c 128,-1,9
 764 -20 764 -20 641 -20 c 0,10,11
 535 -20 535 -20 467 15.5 c 128,-1,12
 399 51 399 51 352 117 c 1,13,-1
 348 117 l 1,14,15
 344 87 344 87 340 59.5 c 128,-1,16
 336 32 336 32 330 0 c 2,17,-1
 247 -425 l 1,18,-1
 -47 -425 l 1,19,-1
 148 581 l 2,20,21
 171 699 171 699 213.5 795 c 128,-1,22
 256 891 256 891 324 959.5 c 128,-1,23
 392 1028 392 1028 488.5 1065.5 c 128,-1,24
 585 1103 585 1103 717 1103 c 0,0,1
700 909 m 0,25,26
 646 909 646 909 603 886 c 128,-1,27
 560 863 560 863 528 819.5 c 128,-1,28
 496 776 496 776 473.5 713.5 c 128,-1,29
 451 651 451 651 437 572 c 2,30,-1
 387 290 l 1,31,32
 425 236 425 236 482.5 205 c 128,-1,33
 540 174 540 174 606 174 c 0,34,35
 673 174 673 174 725 212 c 128,-1,36
 777 250 777 250 813 314 c 128,-1,37
 849 378 849 378 867.5 462 c 128,-1,38
 886 546 886 546 886 637 c 0,39,40
 886 708 886 708 872 759.5 c 128,-1,41
 858 811 858 811 833 844 c 128,-1,42
 808 877 808 877 774 893 c 128,-1,43
 740 909 740 909 700 909 c 0,25,26
EndSplineSet
EndChar

StartChar: sigma1
Encoding: 962 962 394
Width: 1090
Flags: W
LayerCount: 2
Fore
SplineSet
743 1103 m 0,0,1
 867 1103 867 1103 951 1060 c 128,-1,2
 1035 1017 1035 1017 1085 946 c 1,3,-1
 923 804 l 1,4,5
 909 823 909 823 890 842.5 c 128,-1,6
 871 862 871 862 847 877.5 c 128,-1,7
 823 893 823 893 794 903 c 128,-1,8
 765 913 765 913 731 913 c 0,9,10
 673 913 673 913 622 887 c 128,-1,11
 571 861 571 861 529 818.5 c 128,-1,12
 487 776 487 776 454 723 c 128,-1,13
 421 670 421 670 398.5 615.5 c 128,-1,14
 376 561 376 561 364 510.5 c 128,-1,15
 352 460 352 460 352 424 c 0,16,17
 352 381 352 381 363.5 350 c 128,-1,18
 375 319 375 319 403 295 c 128,-1,19
 431 271 431 271 478 251 c 128,-1,20
 525 231 525 231 595 210 c 0,21,22
 651 193 651 193 709.5 173.5 c 128,-1,23
 768 154 768 154 815.5 123 c 128,-1,24
 863 92 863 92 893.5 47 c 128,-1,25
 924 2 924 2 924 -66 c 0,26,27
 924 -117 924 -117 910.5 -164 c 128,-1,28
 897 -211 897 -211 874.5 -253.5 c 128,-1,29
 852 -296 852 -296 822 -333 c 128,-1,30
 792 -370 792 -370 759 -402 c 1,31,-1
 606 -305 l 1,32,33
 617 -292 617 -292 631 -275 c 128,-1,34
 645 -258 645 -258 657.5 -237.5 c 128,-1,35
 670 -217 670 -217 678.5 -193.5 c 128,-1,36
 687 -170 687 -170 687 -143 c 0,37,38
 687 -115 687 -115 670.5 -95 c 128,-1,39
 654 -75 654 -75 620 -58.5 c 128,-1,40
 586 -42 586 -42 534 -26.5 c 128,-1,41
 482 -11 482 -11 410 8 c 0,42,43
 330 29 330 29 267.5 56 c 128,-1,44
 205 83 205 83 162.5 121.5 c 128,-1,45
 120 160 120 160 98 211.5 c 128,-1,46
 76 263 76 263 76 334 c 0,47,48
 76 403 76 403 95 486.5 c 128,-1,49
 114 570 114 570 152 655.5 c 128,-1,50
 190 741 190 741 246 821.5 c 128,-1,51
 302 902 302 902 376 964.5 c 128,-1,52
 450 1027 450 1027 542 1065 c 128,-1,53
 634 1103 634 1103 743 1103 c 0,0,1
EndSplineSet
EndChar

StartChar: sigma
Encoding: 963 963 395
Width: 1359
Flags: W
LayerCount: 2
Fore
SplineSet
532 -20 m 0,0,1
 417 -20 417 -20 329.5 11 c 128,-1,2
 242 42 242 42 183 98 c 128,-1,3
 124 154 124 154 94 234 c 128,-1,4
 64 314 64 314 64 411 c 0,5,6
 64 447 64 447 68.5 489 c 128,-1,7
 73 531 73 531 81 571 c 0,8,9
 113 715 113 715 185.5 813 c 128,-1,10
 258 911 258 911 359 970.5 c 128,-1,11
 460 1030 460 1030 582.5 1056 c 128,-1,12
 705 1082 705 1082 838 1082 c 2,13,-1
 1424 1082 l 1,14,-1
 1387 892 l 1,15,-1
 1253 892 l 2,16,17
 1242 892 1242 892 1219.5 892.5 c 128,-1,18
 1197 893 1197 893 1170 894 c 128,-1,19
 1143 895 1143 895 1115.5 896 c 128,-1,20
 1088 897 1088 897 1066 898 c 1,21,-1
 1065 894 l 1,22,23
 1083 866 1083 866 1100 832 c 128,-1,24
 1117 798 1117 798 1130.5 760 c 128,-1,25
 1144 722 1144 722 1152 680 c 128,-1,26
 1160 638 1160 638 1160 592 c 0,27,28
 1160 466 1160 466 1122 354.5 c 128,-1,29
 1084 243 1084 243 1006 160 c 128,-1,30
 928 77 928 77 810 28.5 c 128,-1,31
 692 -20 692 -20 532 -20 c 0,0,1
564 172 m 0,32,33
 653 172 653 172 713.5 208 c 128,-1,34
 774 244 774 244 811 308.5 c 128,-1,35
 848 373 848 373 864 462.5 c 128,-1,36
 880 552 880 552 880 660 c 0,37,38
 880 730 880 730 870.5 787.5 c 128,-1,39
 861 845 861 845 847 892 c 1,40,-1
 776 892 l 2,41,42
 706 892 706 892 640.5 874.5 c 128,-1,43
 575 857 575 857 521 817.5 c 128,-1,44
 467 778 467 778 427.5 713.5 c 128,-1,45
 388 649 388 649 370 554 c 0,46,47
 363 519 363 519 359.5 487.5 c 128,-1,48
 356 456 356 456 356 426 c 0,49,50
 356 306 356 306 409.5 239 c 128,-1,51
 463 172 463 172 564 172 c 0,32,33
EndSplineSet
EndChar

